<?xml version="1.0" standalone="no"?>
<!DOCTYPE svg PUBLIC "-//W3C//DTD SVG 1.1//EN" "http://www.w3.org/Graphics/SVG/1.1/DTD/svg11.dtd" >
<svg>
<metadata>
Created by FontForge 20110222 at Wed Mar 25 12:58:34 2015
 By deploy user
(c) 2000 Adobe Systems Incorporated. All Rights Reserved.
</metadata>
<defs>
<font id="ChaparralPro-Italic" horiz-adv-x="322" >
  <font-face 
    font-family="Chaparral Pro"
    font-weight="400"
    font-style="italic"
    font-stretch="normal"
    units-per-em="1000"
    panose-1="2 6 5 3 4 5 5 9 2 3"
    ascent="740"
    descent="-260"
    x-height="420"
    cap-height="650"
    bbox="-105 -316 1042 867"
    underline-thickness="54"
    underline-position="-46"
    slope="-10"
    unicode-range="U+0020-FB04"
  />
<missing-glyph horiz-adv-x="500" 
d="M0 0v700h500v-700h-500zM250 395l170 255h-340zM280 350l170 -255v510zM80 50h340l-170 255zM50 605v-510l170 255z" />
    <glyph glyph-name="T_h" unicode="Th" horiz-adv-x="962" 
d="M374 600l-96 -550l97 -3q-1 -6 -9 -47h-128q-20 0 -62.5 -0.5t-62.5 -0.5q6 32 9 47l79 3q4 0 4 4l92 547q-93 0 -136 -3q-22 -2 -28 -19l-30 -97q-36 2 -49 4q24 120 34 165q10 0 41 -0.5t52 -0.5h167h192l159 1q7 0 9.5 -2t1.5 -7q-69 -270 -86 -338l5 -2
q111 125 201 128q18 -3 37 -16.5t29 -35.5q6 -10 6 -30q0 -79 -80 -300q-4 -6 4 -6q19 0 71 13q5 -21 6 -42q-60 -21 -131 -21q-4 0 -14 10.5t-12 19.5q40 116 64 208q19 79 19 99q0 15 -8.5 25.5t-23.5 10.5q-44 0 -111.5 -59.5t-79.5 -104.5q-3 -12 -23.5 -95t-26.5 -104
q-23 -1 -69 -1l138 578q2 12 -1.5 15t-18.5 4q-81 3 -231 3z" />
    <glyph glyph-name="T_h.caron" unicode="&#x164;h" horiz-adv-x="962" 
d="M374 600l-96 -550l97 -3q-1 -6 -9 -47h-128q-20 0 -62.5 -0.5t-62.5 -0.5q6 32 9 47l79 3q4 0 4 4l92 547q-93 0 -136 -3q-22 -2 -28 -19l-30 -97q-36 2 -49 4q24 120 34 165q10 0 41 -0.5t52 -0.5h167h192l159 1q7 0 9.5 -2t1.5 -7q-69 -270 -86 -338l5 -2
q111 125 201 128q18 -3 37 -16.5t29 -35.5q6 -10 6 -30q0 -79 -80 -300q-4 -6 4 -6q19 0 71 13q5 -21 6 -42q-60 -21 -131 -21q-4 0 -14 10.5t-12 19.5q40 116 64 208q19 79 19 99q0 15 -8.5 25.5t-23.5 10.5q-44 0 -111.5 -59.5t-79.5 -104.5q-3 -12 -23.5 -95t-26.5 -104
q-23 -1 -69 -1l138 578q2 12 -1.5 15t-18.5 4q-81 3 -231 3zM352 768q12 7 57 34t65 40q10 -10 21 -30q-84 -61 -134 -99q-23 0 -33 1q-34 34 -100 98q16 19 28 29q55 -41 96 -73z" />
    <glyph glyph-name="T_h.commaaccent" unicode="&#x162;h" horiz-adv-x="962" 
d="M374 600l-96 -550l97 -3q-1 -6 -9 -47h-128q-20 0 -62.5 -0.5t-62.5 -0.5q6 32 9 47l79 3q4 0 4 4l92 547q-93 0 -136 -3q-22 -2 -28 -19l-30 -97q-36 2 -49 4q24 120 34 165q10 0 41 -0.5t52 -0.5h167h192l159 1q7 0 9.5 -2t1.5 -7q-69 -270 -86 -338l5 -2
q111 125 201 128q18 -3 37 -16.5t29 -35.5q6 -10 6 -30q0 -79 -80 -300q-4 -6 4 -6q19 0 71 13q5 -21 6 -42q-60 -21 -131 -21q-4 0 -14 10.5t-12 19.5q40 116 64 208q19 79 19 99q0 15 -8.5 25.5t-23.5 10.5q-44 0 -111.5 -59.5t-79.5 -104.5q-3 -12 -23.5 -95t-26.5 -104
q-23 -1 -69 -1l138 578q2 12 -1.5 15t-18.5 4q-81 3 -231 3zM291 -100v-1q0 -49 -35 -92t-84 -69q-16 20 -23 31q71 46 71 89q0 28 -39 39q1 30 19 48.5t40 18.5q21 0 36 -18.5t15 -45.5z" />
    <glyph glyph-name="f_f_j" unicode="ffj" horiz-adv-x="769" 
d="M638 675h1q61 0 109 -23q0 -13 -14.5 -35.5t-27.5 -27.5q-61 29 -106 29q-49 0 -81 -38q-21 -26 -32 -60t-23 -102h149q91 13 105 13q5 0 14 -8t13 -15q-39 -216 -62 -331q-15 -74 -29 -114.5t-43 -83.5q-20 -30 -47 -57t-46 -40t-24 -13q-11 1 -31 19.5t-22 29.5
q80 30 116 77q32 42 54 161q34 183 54 313q-108 2 -209 0q-55 -312 -96 -529q-10 0 -32.5 -0.5t-34.5 -0.5q39 219 93 529h-206q-26 -148 -93 -528q-44 -2 -67 -2q26 147 90 529h-82q3 23 8 46q24 2 78 4q6 0 6 7q12 71 28 108t50 70q67 67 174 67q40 0 59 -12
q0 -13 -13.5 -34.5t-24.5 -26.5q-26 15 -71 15q-53 0 -82 -36q-20 -25 -30.5 -59t-22.5 -99q11 1 204 1q3 1 5 6q11 71 28 110t52 74q68 67 162 67z" />
    <glyph glyph-name="f_j" unicode="fj" horiz-adv-x="506" 
d="M366 674h1q24 0 36.5 -1t32 -6t41.5 -16q0 -12 -14.5 -35t-26.5 -28q-58 29 -108 29t-81 -38q-22 -26 -33.5 -61t-22.5 -102q18 1 60 2.5t62 2.5q35 2 78.5 6t56.5 4q9 0 23 -25q-46 -252 -63 -331q-15 -74 -29 -114.5t-43 -83.5q-20 -30 -47 -56.5t-46 -39.5t-24 -13
q-11 1 -31.5 19.5t-21.5 29.5q81 31 115 76q32 42 55 161q2 11 14.5 81t24.5 139.5t16 92.5h-207q-32 -184 -96 -528q-22 -1 -68 -1q36 200 93 529h-81q4 33 7 45q24 2 78 4q5 0 5 7q11 70 29 109.5t53 74.5q68 67 162 67z" />
    <glyph glyph-name="ff" unicode="ff" horiz-adv-x="589" 
d="M374 670h1q39 0 58 -12q0 -14 -13 -35t-25 -27q-32 16 -71 16q-52 0 -83 -37q-14 -17 -23.5 -43t-14 -45t-14.5 -70q140 0 203 1q4 0 6 7q12 71 28 110.5t50 72.5q68 68 163 68q38 0 58 -13q0 -14 -13.5 -36t-24.5 -27q-40 17 -71 17q-40 0 -70 -36q-14 -17 -24 -44.5
t-14.5 -47t-14.5 -71.5q25 0 76.5 0.5t75.5 0.5q-4 -33 -9 -50q-106 0 -151 -1q-24 -138 -95 -528q-11 0 -33 -0.5t-34 -0.5q80 459 92 529h-206q-13 -75 -93 -529q-22 -1 -67 -1q26 147 90 529h-81q3 23 8 46q25 2 77 4q5 0 7 7q12 71 27 108t49 70q69 68 176 68z" />
    <glyph glyph-name="fi" unicode="fi" horiz-adv-x="522" 
d="M364 674h1q63 0 111 -23q0 -12 -14.5 -35t-26.5 -28q-63 29 -108 29q-52 0 -81 -38q-22 -26 -33.5 -61t-22.5 -102q87 0 146 3.5t82 6.5l23 3q4 0 13.5 -9t13.5 -16q-60 -247 -86 -358q-2 -7 3 -7q17 0 76 16q4 -17 7 -42q-62 -22 -124 -22q-5 0 -18 10.5t-17 20.5
q2 9 80 345h-206q-58 -327 -96 -528q-22 -1 -68 -1q35 196 93 528h-81q5 35 7 46q24 2 78 4q5 0 5 7q10 69 28 108.5t54 75.5q68 67 161 67z" />
    <glyph glyph-name="fl" unicode="fl" horiz-adv-x="533" 
d="M373 674h1q37 0 82 -10t69 -24q-30 -125 -138 -593q-2 -6 3 -6q31 0 87 15q4 -31 5 -43q-75 -22 -138 -22q-4 0 -15 10t-17 20q5 21 33.5 144.5t46.5 202.5h-209q-50 -285 -95 -529q-22 -1 -68 -1q47 261 92 529h-81q2 18 8 46q52 2 77 3q6 0 6 7q11 69 29 109t54 77
q68 65 168 65zM340 619h-1q-60 0 -91 -38q-23 -27 -34.5 -63t-22.5 -102q33 0 106 0.5t106 1.5q38 167 42 182q-40 19 -105 19z" />
    <glyph glyph-name="ffi" unicode="ffi" horiz-adv-x="796" 
d="M374 669h1q38 0 58 -11q0 -14 -13 -35t-25 -27q-30 15 -71 15q-53 0 -82 -36q-20 -25 -29.5 -58t-22.5 -100q139 0 201 1q5 0 6 7q11 70 28.5 109.5t52.5 73.5q68 67 161 67q64 0 110 -23q0 -12 -14.5 -35t-26.5 -28q-61 29 -107 29q-51 0 -80 -38q-22 -26 -33 -60
t-23 -103q55 0 100 1t70.5 3t42.5 4t26 3t11 1q4 0 13.5 -9t13.5 -16q-45 -184 -86 -358q-2 -7 3 -7q17 0 76 16q4 -17 7 -42q-62 -22 -124 -22q-5 0 -18 10.5t-16 20.5q10 46 38 166.5t41 179.5h-206q-7 -41 -41 -230t-53 -298q-11 0 -33 -0.5t-34 -0.5q54 309 91 529h-206
q-17 -96 -53 -298t-41 -231q-22 -1 -67 -1q56 320 91 529h-81q5 35 7 46q26 2 78 4q5 0 7 7q12 70 27.5 107.5t49.5 71.5q68 66 175 66z" />
    <glyph glyph-name="ffl" unicode="ffl" horiz-adv-x="807" 
d="M649 674h1q36 0 81 -10t69 -24q-23 -92 -138 -593q-2 -6 3 -6q31 0 87 15q4 -31 5 -43q-75 -22 -137 -22q-4 0 -15.5 9.5t-16.5 19.5q2 10 79 349q-149 0 -209 -1q-55 -311 -95 -528q-11 0 -33 -0.5t-34 -0.5q4 21 92 529q-29 0 -103 -0.5t-103 -0.5q-51 -297 -92 -528
q-22 -1 -67 -1q63 375 89 529h-82q3 23 8 46q26 2 78 4q4 0 6 7q12 71 27 108t49 70q69 67 176 67q41 0 60 -12q0 -14 -13 -35t-25 -27q-28 16 -72 16q-52 0 -83 -37q-14 -17 -23.5 -42.5t-14 -45t-14.5 -69.5h203q4 0 6 8q10 68 28 107.5t54 75.5q67 66 169 66zM616 619h-1
q-59 0 -92 -38q-22 -26 -33.5 -61.5t-23.5 -101.5q148 0 212 1q20 88 42 181q-40 19 -104 19z" />
    <glyph glyph-name=".notdef" horiz-adv-x="500" 
d="M0 0v700h500v-700h-500zM250 395l170 255h-340zM280 350l170 -255v510zM80 50h340l-170 255zM50 605v-510l170 255z" />
    <glyph glyph-name=".null" horiz-adv-x="0" 
 />
    <glyph glyph-name="nonmarkingreturn" horiz-adv-x="333" 
 />
    <glyph glyph-name="space" unicode=" " horiz-adv-x="200" 
 />
    <glyph glyph-name="exclam" unicode="!" horiz-adv-x="253" 
d="M238 658h1q1 -1 1 -3q-69 -320 -105 -488q-28 -4 -51 -4q4 27 9.5 68t11.5 90t9 68q19 150 30 254q14 5 49 10t45 5zM90 91h1q23 0 35.5 -15.5t12.5 -34.5q0 -21 -15.5 -35.5t-36.5 -14.5q-24 0 -37.5 12.5t-13.5 32.5q0 22 16 38.5t38 16.5z" />
    <glyph glyph-name="quotedbl" unicode="&#x22;" horiz-adv-x="307" 
d="M186 698q-32 -135 -48 -213q-16 -5 -49 -5q12 120 19 208q26 10 78 10zM329 698q-32 -135 -48 -213q-16 -5 -49 -5q6 50 19 208q26 10 78 10z" />
    <glyph glyph-name="numbersign" unicode="#" horiz-adv-x="512" 
d="M410 420l-47 -140q80 0 112 -1q-3 -18 -10 -46h-118q-12 -34 -36 -102.5t-34 -96.5q-17 -1 -49 1q11 30 22.5 63.5t25 73t20.5 61.5q-35 -1 -110 -1q-12 -32 -70 -198q-15 -1 -48 1q11 33 33.5 99t33.5 98q-20 0 -56 -0.5t-51 -0.5q5 27 11 49h112q21 62 46 140
q-82 0 -113 1q2 7 5 23t4 23h120q8 22 61 179q23 0 53 -2q-10 -27 -31 -88t-31 -89q34 1 109 1q11 33 32 93.5t29 84.5q21 0 53 -2q-8 -22 -29 -82.5t-32 -93.5q19 0 54 0.5t50 0.5q-3 -22 -10 -49h-111zM312 280l46 140h-109q-32 -94 -47 -140h110z" />
    <glyph glyph-name="dollar" unicode="$" horiz-adv-x="512" 
d="M103 444v1q0 42 26 76.5t58 51.5q48 28 112 31q6 32 17 98q21 5 50 7q-2 -11 -8.5 -46.5t-10.5 -56.5q89 0 126 -25q-8 -36 -36 -58q-50 32 -100 36q-5 -28 -18 -100t-20 -111q72 -26 104 -57.5t32 -84.5q0 -80 -72 -131q-48 -35 -128 -45q-3 -15 -9 -48t-9 -48
q-14 -2 -46 -4q9 48 18 99q-110 -3 -167 34q10 38 40 57q65 -45 136 -46q22 123 40 227q-67 27 -101 58.5t-34 84.5zM171 451v-1q0 -31 18 -48.5t67 -37.5q6 35 17.5 100.5t16.5 94.5q-40 0 -72 -21q-47 -33 -47 -87zM367 190v1q0 35 -19 55.5t-66 39.5q-32 -172 -39 -212
q48 4 80 29q44 34 44 87z" />
    <glyph glyph-name="percent" unicode="%" horiz-adv-x="753" 
d="M558 613l-1 4q-76 -1 -239 -1q31 -29 31 -94q0 -94 -70 -157q-43 -38 -103 -38q-51 0 -82 31q-38 36 -38 99q0 43 19.5 87t52.5 72q45 38 102 38q356 4 381 6q9 -12 20 -33q-41 -55 -121.5 -166t-105.5 -145q-38 -52 -123.5 -170t-124.5 -172q-5 3 -41 25q55 74 249 342
q63 88 194 272zM185 366h1q33 0 56 24q45 47 45 139q0 41 -16 63q-16 23 -48 23q-33 0 -56 -22q-23 -21 -35.5 -61.5t-12.5 -79.5q0 -44 20 -66q17 -20 46 -20zM528 -10h-1q-50 0 -81 31q-38 36 -38 99q0 43 19 86.5t52 72.5q46 39 102 39q57 0 87 -36q32 -34 32 -98
q0 -39 -18 -82t-51 -74q-45 -38 -103 -38zM537 29h1q34 0 56 25q18 19 31 56.5t13 79.5t-15 64q-18 25 -49 25q-32 0 -55 -22t-35.5 -62.5t-12.5 -79.5q0 -44 19 -66q18 -20 47 -20z" />
    <glyph glyph-name="ampersand" unicode="&#x26;" horiz-adv-x="670" 
d="M189 360l1 4q-72 57 -72 130q0 70 60 120q49 41 129 41q69 0 105 -37q37 -35 37 -91q0 -110 -148 -174v-4q95 -85 158 -183q49 60 64 147q2 11 -6 11l-58 2q3 20 8 43h100q14 0 42.5 0.5t41.5 0.5q-5 -32 -7 -44l-55 -2q-26 -117 -103 -196q7 -10 15.5 -22.5t17 -26
t11.5 -17.5q11 -17 26 -17l71 -1q-3 -23 -9 -43q-119 -6 -127 -6q-7 10 -26.5 40.5t-28.5 44.5q-28 -22 -44.5 -33.5t-46 -27t-63 -22.5t-74.5 -7q-86 0 -136 41q-54 46 -54 121q0 64 45.5 120.5t125.5 87.5zM189 502v-1q0 -26 10.5 -48t22.5 -35t38 -37q121 49 121 141
q0 39 -22 64q-23 24 -61 24q-48 0 -75 -26q-34 -32 -34 -82zM94 162v-1q0 -56 37 -90q38 -32 95 -32q100 0 183 81q-95 140 -186 208q-129 -58 -129 -166z" />
    <glyph glyph-name="quotesingle" unicode="'" horiz-adv-x="175" 
d="M189 698q-32 -135 -48 -213q-16 -5 -49 -5q12 120 19 208q26 10 78 10z" />
    <glyph glyph-name="parenleft" unicode="(" horiz-adv-x="334" 
d="M57 188v1q0 155 90 303.5t222 220.5q10 -15 17 -37q-97 -60 -177 -198t-80 -297q0 -102 29.5 -169.5t81.5 -123.5q-10 -14 -30 -32q-70 63 -111.5 139t-41.5 193z" />
    <glyph glyph-name="parenright" unicode=")" horiz-adv-x="334" 
d="M289 383v-1q0 -162 -91 -307.5t-220 -217.5q-9 16 -19 37q45 30 88.5 76t82.5 108t63 144t24 168q0 182 -112 292q18 22 28 32q67 -53 111.5 -136t44.5 -195z" />
    <glyph glyph-name="asterisk" unicode="*" horiz-adv-x="360" 
d="M198 574l16 125q25 2 46 0l-26 -125l109 73q10 -13 23 -40l-121 -66l100 -70q-11 -19 -29 -37l-93 79l-17 -129q-25 -2 -46 1l27 127l-107 -73q-22 40 -22 41l120 65l-101 69q13 19 28 36z" />
    <glyph glyph-name="plus" unicode="+" horiz-adv-x="512" 
d="M227 262v186q29 3 57 3q-1 -28 -1.5 -92t-0.5 -96q119 0 173 1q1 -11 -2 -56h-171q0 -37 -0.5 -103.5t-0.5 -92.5q-24 -3 -54 -3v199h-171q0 19 2 53q110 0 169 1z" />
    <glyph glyph-name="comma" unicode="," horiz-adv-x="244" 
d="M149 28v-1q0 -51 -36 -95.5t-87 -71.5q-12 14 -24 32q73 48 73 92q0 30 -40 40q2 31 20 50.5t41 19.5q21 0 37 -19.5t16 -46.5z" />
    <glyph glyph-name="hyphen" unicode="-" horiz-adv-x="300" 
d="M139 214h-1h-109q3 23 8 53h107q21 0 61.5 0.5t60.5 1.5q-2 -15 -9 -55h-118z" />
    <glyph glyph-name="period" unicode="." horiz-adv-x="244" 
d="M96 99h1q27 0 39 -17t12 -36q0 -23 -16 -39t-39 -16q-24 0 -38 14.5t-14 37.5q0 21 15 38.5t40 17.5z" />
    <glyph glyph-name="slash" unicode="/" horiz-adv-x="394" 
d="M3 -54q-19 10 -42 26q125 203 229 376q20 33 92.5 155.5t108.5 180.5q22 -12 46 -30q-3 -5 -202 -332q-73 -118 -232 -376z" />
    <glyph glyph-name="zero" unicode="0" horiz-adv-x="512" 
d="M491 440v-1q0 -120 -39.5 -230.5t-101.5 -164.5q-63 -54 -145 -54q-71 0 -114 48q-49 54 -49 168q0 111 36.5 220t97.5 167q66 62 151 62q79 0 123 -56q41 -54 41 -159zM312 609h-1q-45 0 -86 -41q-45 -46 -75.5 -156t-30.5 -216q0 -73 22 -115q23 -45 79 -45q47 0 85 38
q47 48 78 158t31 215q0 81 -20 115q-27 47 -82 47z" />
    <glyph glyph-name="one" unicode="1" horiz-adv-x="512" 
d="M47 47l141 3q4 0 4 5q18 99 50 286.5t37 215.5q-131 -29 -173 -39q-4 29 -5 45q52 16 118 39.5t106 39t42 15.5q3 0 2 -4q-50 -295 -106 -602l154 -3q-2 -16 -8 -48q-33 0 -97.5 0.5t-92.5 0.5q-29 0 -89 -0.5t-91 -0.5q2 15 8 47z" />
    <glyph glyph-name="two" unicode="2" horiz-adv-x="512" 
d="M174 565l-26 -95q-8 1 -26.5 2.5t-26.5 2.5q15 87 26 143q80 37 165 37q95 0 144 -51q41 -43 41 -114q0 -41 -18 -85t-39 -75t-59 -70t-54.5 -53.5t-49.5 -42.5q-66 -58 -132 -104v-5q94 0 309 5l3 -1q-5 -34 -14 -60q-9 0 -110 0.5t-144 0.5h-139q-10 33 -12 41
q113 85 193 157q42 37 67.5 62.5t57.5 64t47.5 79t15.5 82.5q0 45 -23 78q-29 40 -92 40q-60 0 -97 -26q-6 -6 -7 -13z" />
    <glyph glyph-name="three" unicode="3" horiz-adv-x="512" 
d="M312 346l-1 -6q63 -12 97 -52.5t34 -94.5q0 -97 -90 -157q-66 -46 -185 -46q-93 0 -136 14q-1 26 -2 76t-1 66q22 5 53 7l13 -90q2 -8 7 -11q29 -13 82 -13q77 0 123 34q55 40 55 114q0 54 -40.5 88t-107.5 34h-59q1 8 3 25t3 25q103 -2 167.5 40t64.5 108q0 40 -22 66
q-26 33 -94 33q-62 0 -90 -23q-5 -4 -8 -10l-24 -91q-3 0 -23.5 2t-30.5 4q16 90 25 134q74 33 165 33q97 0 141 -44q39 -39 39 -97q0 -61 -45 -105.5t-113 -62.5z" />
    <glyph glyph-name="four" unicode="4" horiz-adv-x="512" 
d="M186 43l87 3q6 0 6 4q4 22 11.5 63t10.5 60q-39 -1 -265 -1q-13 39 -18 59q20 22 77.5 88t94.5 107q142 162 198 223q44 0 65 -2q-3 -18 -31 -179t-43 -244q83 0 107 1q-7 -39 -11 -51h-105q-7 -42 -23 -128l84 -3q-3 -22 -9 -43q-17 0 -59 0.5t-63 0.5q-22 0 -64 -0.5
t-59 -0.5q3 15 9 43zM370 555l-6 1q-27 -32 -142 -167q-48 -55 -134 -157q-5 -7 2 -7q100 -2 219 -2z" />
    <glyph glyph-name="five" unicode="5" horiz-adv-x="512" 
d="M85 150l13 -89q0 -7 6 -11q26 -11 71 -11q83 0 132 42q61 51 61 138q0 63 -42 100t-121 37q-67 0 -103 -9l-6 6q20 78 77 291h160q113 0 165 1q-5 -34 -14 -62q-39 0 -128 0.5t-138 0.5q-24 -82 -48 -173q54 4 69 4q101 0 152.5 -54t51.5 -127q0 -62 -28.5 -113
t-68.5 -78q-73 -53 -190 -53q-73 0 -118 12q-2 45 -6 141q13 2 53 7z" />
    <glyph glyph-name="six" unicode="6" horiz-adv-x="512" 
d="M139 326h5q74 70 160 70q69 0 111 -47q40 -46 40 -116q0 -61 -26 -114t-65 -83q-58 -46 -138 -46q-79 0 -128 54q-49 59 -49 154q0 114 37 212.5t90 154.5q84 90 207 90q54 0 89 -14q0 -87 -1 -131q-31 -6 -52 -7l-10 81q0 8 -4 11q-13 10 -51 10q-76 0 -128 -66
q-60 -77 -87 -213zM279 341h-1q-35 0 -76 -21.5t-70 -62.5q-18 -112 17 -176q10 -18 33 -32.5t54 -14.5q50 0 89 37q54 51 54 149q0 50 -23 85q-24 36 -77 36z" />
    <glyph glyph-name="seven" unicode="7" horiz-adv-x="512" 
d="M435 578l-2 5q-231 2 -256 -1q-21 -1 -30 -22l-27 -79l-24 4t-26 5q26 104 40 155q4 0 34.5 -0.5t50.5 -0.5h303q6 -18 13 -58q-140 -202 -265 -466q-23 -48 -35 -119q-33 -3 -80 -3q10 69 41 128q106 200 263 452z" />
    <glyph glyph-name="eight" unicode="8" horiz-adv-x="512" 
d="M347 345l-1 -5q55 -24 85.5 -64t30.5 -87q0 -100 -94 -160q-59 -39 -154 -39q-86 0 -141 44q-51 40 -51 109q0 62 45.5 115t120.5 85l1 4q-82 49 -82 131q0 43 23.5 79.5t51.5 57.5q57 40 137 40q38 0 72 -12.5t52 -30.5q41 -39 41 -91q0 -117 -137 -176zM178 487v-1
q0 -42 25.5 -68t92.5 -53q118 50 118 144q0 38 -20 65q-11 16 -34.5 26t-47.5 10q-56 0 -89 -27q-45 -36 -45 -96zM388 175v1q0 50 -36 84t-115 61q-59 -23 -99.5 -69t-40.5 -100q0 -50 28 -79q36 -38 99 -38q62 0 105 30q59 41 59 110z" />
    <glyph glyph-name="nine" unicode="9" horiz-adv-x="512" 
d="M391 316l-4 1q-77 -63 -157 -63q-35 0 -66.5 14.5t-48.5 34.5q-40 46 -40 121q0 53 27.5 105t70.5 84q59 42 131 42q81 0 129 -57q46 -54 46 -155q0 -121 -38.5 -222t-85.5 -149q-83 -82 -205 -82q-49 0 -92 8q-2 23 -4.5 67t-3.5 66q15 3 52 7l15 -82q1 -7 7 -11
q13 -8 49 -8q80 0 134 65q56 67 84 214zM252 305h1q76 0 143 73q10 63 4.5 110t-21.5 74q-26 49 -83 49q-54 0 -87 -33q-58 -58 -58 -148q0 -56 21 -86q12 -18 34.5 -28.5t45.5 -10.5z" />
    <glyph glyph-name="colon" unicode=":" horiz-adv-x="244" 
d="M153 415h1q27 0 38.5 -16.5t11.5 -36.5q0 -22 -16 -38t-38 -16q-24 0 -38 14.5t-14 36.5q0 21 15 38.5t40 17.5zM96 98h1q27 0 38.5 -16.5t11.5 -36.5q0 -23 -15.5 -38.5t-38.5 -15.5q-24 0 -38 14.5t-14 36.5q0 21 15 38.5t40 17.5z" />
    <glyph glyph-name="semicolon" unicode=";" horiz-adv-x="244" 
d="M153 415h1q27 0 38.5 -16.5t11.5 -36.5q0 -22 -16 -38t-38 -16q-24 0 -38 14.5t-14 36.5t15 39t40 17zM96 94h1q21 0 36.5 -19t15.5 -47q0 -51 -36 -96t-87 -71q-10 11 -24 31q73 48 73 93q0 28 -40 40q2 30 20 49.5t41 19.5z" />
    <glyph glyph-name="less" unicode="&#x3c;" horiz-adv-x="512" 
d="M170 238q39 -33 234 -194q-15 -24 -31 -41q-50 39 -140 108.5t-131 101.5q-1 15 -1 47q122 90 273 201q18 -20 30 -42q-207 -160 -234 -181z" />
    <glyph glyph-name="equal" unicode="=" horiz-adv-x="512" 
d="M60 283q0 21 2 53q20 0 398 3q2 -24 -2 -56h-398zM59 133q0 32 3 56h398q0 -19 -2 -53q-21 0 -399 -3z" />
    <glyph glyph-name="greater" unicode="&#x3e;" horiz-adv-x="512" 
d="M347 235q-87 72 -234 189q14 24 30 41q114 -85 273 -205v-47q-248 -188 -273 -206q-12 14 -31 41q117 91 235 187z" />
    <glyph glyph-name="question" unicode="?" horiz-adv-x="430" 
d="M432 527v-1q0 -65 -45.5 -122t-141.5 -113q-31 -20 -31 -46q-1 -24 5 -72q-22 -9 -53 -15q-7 15 -14.5 47.5t-7.5 58.5q0 8 2 22q52 33 80.5 53.5t61 50.5t46.5 60.5t14 66.5q0 43 -25 67.5t-70 24.5q-44 0 -71 -17q-8 -8 -10 -12l-28 -88q-38 4 -53 7q21 97 30 133
q69 28 151 28q80 0 119.5 -38.5t40.5 -94.5zM168 89h1q46 0 46 -50q0 -20 -16.5 -34t-38.5 -14t-35 12t-13 30q0 23 17 39.5t39 16.5z" />
    <glyph glyph-name="at" unicode="@" horiz-adv-x="621" 
d="M388 343h4l17 29q12 -2 46 -10q-33 -122 -56 -220q-2 -7 7 -7q42 3 77 35q53 49 53 144q0 70 -43 113.5t-129 43.5q-79 0 -145 -47.5t-101.5 -119t-35.5 -146.5q0 -81 48 -122t118 -41q76 0 133 35q8 -14 12 -32q-70 -39 -162 -39q-84 0 -141.5 50.5t-57.5 145.5
q0 60 25 121.5t69 113t111.5 84t144.5 32.5q92 0 147.5 -50t55.5 -136q0 -112 -74 -175q-55 -47 -141 -47q-16 0 -30 18q3 18 11 50l-6 2q-73 -69 -120 -69q-11 0 -32 12t-28 25q-2 5 -2 20q0 39 15 86q16 50 52.5 89.5t83.5 39.5q43 0 74 -28zM225 168v-1q0 -21 22 -21
q21 0 62 33t52 57q9 27 19 67q-22 28 -62 28q-24 0 -44.5 -22t-31.5 -56q-17 -43 -17 -85z" />
    <glyph glyph-name="A" unicode="A" horiz-adv-x="585" 
d="M-48 46l53 4q4 0 8 5q54 96 170 310.5t159 291.5q9 2 52 2q20 -103 60.5 -325t52.5 -284l60 -3q-3 -25 -9 -46h-91q-23 0 -66 -0.5t-62 -0.5q2 13 8 47l79 3q4 0 4 6q-18 99 -26 142q0 4 -6 4l-241 -1q-25 -47 -77 -151l89 -3q-2 -18 -8 -46h-132q-15 0 -44 -0.5
t-42 -0.5q8 41 9 46zM345 549h-7q-15 -29 -70.5 -135t-83.5 -158q-3 -6 2 -6h210q-8 47 -25.5 149.5t-25.5 149.5z" />
    <glyph glyph-name="B" unicode="B" horiz-adv-x="560" 
d="M5 46l69 2q7 0 8 7l92 546l-75 2q8 41 9 46q88 2 176 2q116 0 169 -29q31 -17 47.5 -47.5t16.5 -63.5q0 -56 -41.5 -100.5t-99.5 -62.5v-6q61 -12 95.5 -50t34.5 -88q0 -89 -77.5 -147t-197.5 -58q-15 0 -63 0.5t-56 0.5h-115q2 12 8 46zM249 602l-41 -240q14 -2 51 -2
q71 0 125.5 38t54.5 101q0 45 -32 76t-101 31q-39 0 -57 -4zM199 313l-41 -231q-4 -23 12.5 -30.5t67.5 -7.5q77 0 132 40t55 110q0 20 -7 39t-23 38.5t-50.5 31.5t-82.5 12q-54 0 -63 -2z" />
    <glyph glyph-name="C" unicode="C" horiz-adv-x="572" 
d="M507 464l3 112q0 10 -4 13q-28 16 -82 16q-94 0 -161 -60q-61 -53 -93 -129t-32 -151q0 -96 38 -149q22 -31 61 -50.5t86 -19.5q64 0 176 38q4 -31 3 -50q-125 -44 -196 -44q-106 0 -176 65q-73 69 -73 196q0 104 49.5 194.5t122.5 143.5q96 71 225 71q87 0 125 -22
q-5 -49 -20 -172q-8 -1 -26 -1.5t-26 -0.5z" />
    <glyph glyph-name="D" unicode="D" horiz-adv-x="668" 
d="M9 46l66 2q7 0 8 7l92 546l-71 2q1 10 9 46q104 2 198 2q144 0 223 -56q51 -37 75 -95.5t24 -120.5q0 -98 -44.5 -184t-116.5 -135q-89 -61 -240 -61q-21 0 -64.5 0.5t-53.5 0.5q-17 0 -55.5 -0.5t-57.5 -0.5q5 26 8 47zM251 601l-90 -518q-4 -23 10 -30.5t69 -7.5
q131 0 201 61q46 40 78 107.5t32 158.5q0 106 -55 166q-64 67 -188 67q-40 0 -57 -4z" />
    <glyph glyph-name="E" unicode="E" horiz-adv-x="532" 
d="M9 46l68 3q4 0 6 4l91 548l-73 2q6 32 9 47h113h216h81q-13 -109 -19 -154q-7 -1 -22.5 -2t-21.5 -1v86q0 16 -22 19q-52 4 -177 4q-8 0 -9 -4l-41 -243q27 0 79.5 0.5t78.5 1.5q15 0 21 4.5t8 15.5l13 48h46q-6 -38 -17 -96q-2 -10 -5 -28.5t-5.5 -34.5t-5.5 -30
q-15 -1 -47 -1l5 50q2 13 -3 17.5t-21 4.5q-47 1 -156 1l-40 -241q-2 -13 6.5 -16.5t46.5 -3.5q123 0 157 8q13 2 23 20l44 91q21 -4 43 -13q-44 -129 -53 -154q-15 0 -124 0.5t-186 0.5q-21 0 -60 -0.5t-56 -0.5q6 32 9 47z" />
    <glyph glyph-name="F" unicode="F" horiz-adv-x="521" 
d="M10 46l66 3q6 0 6 6l93 546l-71 2q2 7 5 23t4 24q16 0 53.5 -0.5t57.5 -0.5q15 0 110 0.5t106 0.5q20 0 46 0.5t35 0.5q-6 -59 -17 -160q-8 -1 -24 -2t-24 -1l-3 91q0 17 -20 19q-37 3 -161 3h-21l-46 -260q26 0 77.5 0.5t76.5 1.5q25 0 31 20l13 50q33 0 48 -1
q-5 -22 -19 -100q-3 -16 -9 -47.5t-8 -44.5q-15 -1 -48 -1l5 52q1 12 -3.5 16.5t-19.5 5.5q-43 1 -152 1l-42 -244l115 -3q-8 -38 -10 -47q-19 0 -69 0.5t-74 0.5q-21 0 -59.5 -0.5t-55.5 -0.5q6 28 8 46z" />
    <glyph glyph-name="G" unicode="G" horiz-adv-x="640" 
d="M607 233l-51 -2q-3 0 -5 -4l-36 -202q-53 -35 -182 -35t-204 75q-73 72 -73 190q0 105 50.5 197t126.5 142q100 66 234 66q95 0 141 -32q-14 -108 -21 -163q-34 -2 -51 -2l4 101q0 12 -7 18q-30 27 -99 27q-99 0 -173 -62q-52 -44 -87 -120t-35 -164q0 -93 40 -146
q62 -80 179 -80q27 0 48.5 4t31.5 9.5t11 10.5l28 170l-105 2q2 16 8 48h143h92q-2 -16 -8 -48z" />
    <glyph glyph-name="H" unicode="H" horiz-adv-x="714" 
d="M12 47l65 3q5 0 6 6l91 545l-70 3q6 34 8 46h114h118q-2 -18 -8 -46l-83 -3q-3 0 -3 -4l-40 -230q2 -4 6 -4h319l40 238l-85 2q6 32 9 47h124q18 0 54 0.5t50 0.5q-2 -13 -8 -47l-65 -3q-4 0 -4 -4l-95 -547l74 -3q-3 -25 -9 -46h-110q-20 0 -61 -0.5t-59 -0.5q2 13 8 47
l79 3q5 0 6 6l43 255q0 4 -4 4l-320 -2l-47 -263l90 -3q-2 -15 -8 -47q-17 0 -59.5 0.5t-63.5 0.5q-18 0 -56.5 -0.5t-54.5 -0.5q2 8 4.5 23.5t4.5 23.5z" />
    <glyph glyph-name="I" unicode="I" horiz-adv-x="312" 
d="M8 47l68 3q6 0 6 5l92 546l-77 3q1 8 4 23t5 23h121h112q-3 -21 -10 -46l-76 -3q-2 0 -4 -4l-94 -547l85 -3q-3 -20 -10 -47q-16 0 -55.5 0.5t-59.5 0.5q-19 0 -59 -0.5t-57 -0.5q2 7 4.5 23.5t4.5 23.5z" />
    <glyph glyph-name="J" unicode="J" horiz-adv-x="482" 
d="M504 605l-70 -3q-3 0 -3 -4q-46 -302 -52 -341q-22 -139 -73 -196q-70 -75 -188 -75q-66 0 -112 17q4 108 7 154q16 2 50 4l5 -98q0 -8 6 -12q24 -14 63 -14q72 0 114 49q35 41 52 157q9 58 52 359l-121 3q1 5 3 14.5t3.5 17t2.5 13.5q24 0 81.5 -0.5t82.5 -0.5
q19 0 55.5 0.5t50.5 0.5q-3 -24 -9 -45z" />
    <glyph glyph-name="K" unicode="K" horiz-adv-x="611" 
d="M13 47l64 3q3 0 5 4l92 547l-70 3q2 8 5 24.5t4 21.5q17 0 55 -0.5t58 -0.5q18 0 53.5 0.5t50.5 0.5q-4 -26 -9 -47l-68 -2q-3 0 -5 -6l-42 -240q52 3 66 7q32 26 105.5 102t120.5 131q5 5 -1 5l-63 3q2 7 5 23t4 23h128q13 0 38 0.5t35 0.5q-3 -24 -9 -46l-49 -3
q-143 -149 -255 -253l-1 -5q50 -34 90 -132q36 -88 61 -136q13 -25 31 -25l70 -2q-4 -27 -9 -46q-13 0 -40 -1t-39 -1q-14 -1 -59 -1q-22 33 -79 172q-52 137 -99 137q-46 0 -59 -1l-44 -257l82 -3q-4 -27 -9 -47q-15 0 -54.5 0.5t-59.5 0.5q-19 0 -56 -0.5t-52 -0.5
q5 26 8 47z" />
    <glyph glyph-name="L" unicode="L" horiz-adv-x="513" 
d="M11 45l67 3q4 2 4 5l96 547l-72 2q6 32 10 47h114h121q-4 -28 -10 -47l-85 -2q-2 0 -4 -4l-94 -528q-2 -14 3.5 -17.5t35.5 -3.5q135 0 160 6q13 4 22 21l50 104q16 -2 48 -11q-32 -93 -62 -168q-14 0 -118.5 0.5t-180.5 0.5q-21 0 -59.5 -0.5t-54.5 -0.5q1 5 4 21.5
t5 24.5z" />
    <glyph glyph-name="M" unicode="M" horiz-adv-x="830" 
d="M163 600l-69 2l9 48h167q0 -2 45.5 -215t70.5 -328h5q61 107 175 319t121 224h164q-2 -19 -8 -47l-63 -3q-4 0 -4 -6q-16 -96 -50 -302.5t-40 -242.5l71 -3q-4 -30 -8 -46q-15 0 -52.5 0.5t-56.5 0.5t-57 -0.5t-53 -0.5q2 8 4 23t4 23l74 3q5 0 7 5q15 88 45.5 269.5
t39.5 237.5h-8q-204 -384 -307 -549q-9 -1 -45 -1q-53 204 -122 553h-7q-14 -82 -45.5 -257.5t-45.5 -257.5l88 -3q-3 -21 -9 -46q-17 0 -59 0.5t-62 0.5q-17 0 -48 -0.5t-44 -0.5q1 7 3.5 22.5t4.5 23.5l64 3q5 0 7 5q47 269 94 546z" />
    <glyph glyph-name="N" unicode="N" horiz-adv-x="697" 
d="M3 47l64 3q6 0 6 5l93 545l-74 3q2 8 5 23.5t4 23.5q21 0 69.5 -0.5t71.5 -0.5q10 -20 60.5 -123.5t108.5 -223.5t97 -200l6 1q15 94 42 264.5t37 233.5l-95 1q6 32 9 47h124q17 0 49 0.5t45 0.5q-2 -13 -8 -47l-61 -2q-3 -1 -4 -6l-102 -593q-20 -8 -53 -8
q-130 228 -277 549h-7q-14 -82 -41.5 -246.5t-41.5 -246.5l99 -2q-8 -45 -9 -47h-132q-17 0 -48.5 -0.5t-44.5 -0.5q1 7 3.5 23t4.5 24z" />
    <glyph glyph-name="O" unicode="O" horiz-adv-x="703" 
d="M669 394v-1q0 -102 -42.5 -190t-105.5 -140q-92 -73 -216 -73q-108 0 -176 68q-72 69 -72 197q0 105 46 195.5t112 140.5q88 69 210 69q104 0 169 -65q75 -74 75 -201zM139 254v-1q0 -98 47 -156q49 -58 137 -58q87 0 151 58q48 43 80.5 119.5t32.5 177.5q0 98 -45 156
q-45 61 -133 61q-91 0 -158 -63q-46 -43 -79 -118.5t-33 -175.5z" />
    <glyph glyph-name="P" unicode="P" horiz-adv-x="539" 
d="M15 46l62 3q5 2 6 6l92 546l-67 2q2 7 5 23t4 23q88 2 157 2q97 0 149 -20q51 -20 75.5 -61t24.5 -91q0 -71 -42 -126t-98 -77q-61 -24 -144 -24q-31 0 -51 2l-35 -204l111 -3q-3 -25 -9 -46h-145q-17 0 -52.5 -0.5t-51.5 -0.5q1 5 4 21.5t5 24.5zM249 601l-50 -290
q-1 -5 13.5 -7t37.5 -2q67 0 110 23q85 41 85 149q0 59 -37 94.5t-112 35.5q-40 0 -47 -3z" />
    <glyph glyph-name="Q" unicode="Q" horiz-adv-x="702" 
d="M58 254v1q0 110 47 200.5t115 139.5q87 65 204 65q88 0 146 -43q49 -35 74 -94.5t25 -129.5q0 -97 -40 -184t-99 -136q-59 -50 -126 -69l-1 -5q76 -55 133 -79q31 -13 72 -13q37 0 78 13q5 -19 7 -47q-79 -27 -135 -27q-29 0 -69 21q-71 40 -161 123h-19q-119 0 -187 77
q-64 72 -64 187zM140 261v-1q0 -104 47 -162q48 -59 137 -59q92 0 161 69q102 102 102 286q0 98 -48 160q-43 57 -131 57q-87 0 -153 -59q-50 -45 -82.5 -124t-32.5 -167z" />
    <glyph glyph-name="R" unicode="R" horiz-adv-x="580" 
d="M12 46l64 3q6 2 6 5l92 547l-69 2q2 16 8 46q90 2 155 2q108 0 158 -18q50 -16 76 -55.5t26 -84.5q0 -65 -47.5 -117t-115.5 -73v-5q8 -3 15.5 -9t13 -11.5t12 -17t10 -19t10 -24.5t9.5 -26l10.5 -31.5l11.5 -34.5q17 -46 27 -60t24 -15l53 -2q-4 -32 -8 -47h-65
q-22 -1 -60 -1q-15 24 -46 114t-39 108q-14 32 -33 44.5t-58 12.5q-48 0 -58 -2l-40 -227l82 -3q-4 -30 -8 -47q-16 0 -56 0.5t-62 0.5q-20 0 -55.5 -0.5t-50.5 -0.5q6 34 8 46zM249 601l-47 -275q7 -2 54 -2q89 0 140 47.5t51 112.5q0 55 -36 88t-101 33q-43 0 -61 -4z" />
    <glyph glyph-name="S" unicode="S" horiz-adv-x="488" 
d="M402 485l-2 90q0 9 -4 13q-20 21 -78 21q-66 0 -100 -30q-47 -37 -47 -96q0 -41 23 -62t87 -54q10 -4 15 -7q69 -36 99 -72.5t30 -89.5q0 -97 -76 -157q-64 -51 -179 -51q-96 0 -148 29q8 79 15 156q16 3 50 3l2 -102q0 -10 5 -13q30 -22 94 -22q81 0 122 37
q42 36 42 100q0 25 -7.5 43t-28 34.5t-37.5 27t-54 29.5q-65 34 -96 69.5t-31 88.5q0 45 23.5 83.5t58.5 62.5q62 44 162 44q83 0 123 -26q-6 -77 -15 -147q-28 -2 -48 -2z" />
    <glyph glyph-name="T" unicode="T" horiz-adv-x="558" 
d="M122 46l79 3q5 0 5 4l92 547q-92 0 -137 -3q-22 -2 -28 -19l-29 -96q-5 0 -50 3q6 31 18 87.5t16 77.5q10 0 41 -0.5t52 -0.5h167q146 0 168 1q62 0 83 1q-6 -58 -22 -165q-15 -2 -49 -4l2 97q0 9 -4 13t-17 5q-34 3 -135 3l-95 -550l96 -3q-4 -27 -9 -47q-18 0 -62 0.5
t-65 0.5t-63 -0.5t-62 -0.5q2 8 4 23t4 23z" />
    <glyph glyph-name="U" unicode="U" horiz-adv-x="647" 
d="M678 603l-65 -3l-58 -335q-24 -140 -100 -212q-65 -63 -172 -63q-103 0 -155 58q-35 39 -42 95t7 120l57 338l-65 2q6 32 9 47h105h123q-3 -24 -9 -47l-82 -3q-4 0 -6 -6l-56 -325q-21 -121 13 -172q36 -54 111 -54q70 0 123 47q23 21 44.5 66.5t31.5 105.5
q53 320 55 334q0 4 -4 4l-83 2q7 39 9 47h116q18 0 52 0.5t48 0.5q-4 -33 -7 -47z" />
    <glyph glyph-name="V" unicode="V" horiz-adv-x="594" 
d="M654 604l-54 -4q-13 -23 -147 -275q-103 -188 -188 -334q-24 -2 -55 -2q-31 140 -66 347q-7 44 -42 260q0 3 -4 5l-56 2q1 7 3.5 23t4.5 24q14 0 48 -0.5t51 -0.5q25 0 71 0.5t66 0.5q-4 -30 -8 -47l-97 -3q18 -138 32 -229q35 -219 46 -284h7q64 116 139 263
q68 130 120 243q2 7 -3 7l-86 3q1 9 3.5 24t3.5 22h131q16 0 46 0.5t42 0.5q-4 -32 -8 -46z" />
    <glyph glyph-name="W" unicode="W" horiz-adv-x="843" 
d="M287 602l-93 -3q0 -95 3 -223q0 -13 2 -112.5t4 -159.5h8q24 48 251 518q9 1 53 1q7 -63 25.5 -246.5t29.5 -276.5h7q72 178 104 257q65 167 87 236q2 7 -2 7l-89 2q2 9 5.5 25.5t4.5 20.5q20 0 65.5 0.5t66.5 0.5h85q-9 -43 -10 -46l-51 -3q-18 -43 -114 -271
q-94 -216 -151 -339q-11 -1 -56 -1q-31 199 -60 497h-6q-142 -294 -253 -496q-11 -1 -55 -1q-12 139 -21 355q-2 42 -5.5 126.5t-5.5 125.5q0 4 -5 4l-58 3q1 7 4.5 23t4.5 23h98h137q-2 -15 -10 -47z" />
    <glyph glyph-name="X" unicode="X" horiz-adv-x="590" 
d="M-34 46l54 3q4 0 9 6q58 66 234 272l2 7q-99 216 -122 263q-2 4 -5 4l-61 3q2 8 5.5 24t4.5 21h97q26 0 70.5 0.5t62.5 0.5q-3 -24 -9 -46l-84 -3q47 -116 93 -218h7q136 171 162 213q2 5 -2 5l-79 3q1 4 4.5 20.5t5.5 25.5h129h86q-7 -34 -10 -46l-52 -3
q-121 -148 -222 -261l-1 -7q112 -240 134 -284l66 -3q-4 -26 -9 -46q-13 0 -46.5 0.5t-50.5 0.5q-24 0 -68.5 -0.5t-63.5 -0.5q2 9 5.5 26.5t3.5 19.5l75 3q6 2 4 7q-60 138 -101 225h-7q-117 -141 -183 -232l82 -3q-4 -27 -9 -45h-132q-15 0 -45 -0.5t-43 -0.5q1 8 4.5 23
t4.5 23z" />
    <glyph glyph-name="Y" unicode="Y" horiz-adv-x="533" 
d="M106 47l75 3q7 0 7 6l33 196q-51 137 -126 345q-2 4 -6 4l-51 3q1 5 4 21.5t5 24.5h91q25 0 70 0.5t63 0.5q-4 -27 -9 -47l-86 -3q44 -134 97 -291h7q125 175 192 286q2 5 -3 5l-80 2q8 38 10 47h126q13 0 41.5 0.5t39.5 0.5q-1 -5 -4 -21.5t-5 -24.5l-48 -4
q-233 -322 -253 -349l-35 -202l90 -3q-4 -29 -9 -47q-17 0 -59.5 0.5t-63.5 0.5q-19 0 -61 -0.5t-62 -0.5q2 8 5 24t5 23z" />
    <glyph glyph-name="Z" unicode="Z" horiz-adv-x="555" 
d="M469 592l-1 5q-243 2 -264 -3q-16 -4 -24 -23l-39 -106q-34 6 -50 9q43 156 49 176q5 0 37.5 -0.5t51.5 -0.5h319q6 -22 12 -57q-344 -395 -478 -536l1 -4q257 0 299 9q22 5 31 27l42 103q26 -5 50 -11q-21 -67 -61 -181q-4 0 -51.5 0.5t-113 0.5h-112.5h-168l-12 45
q55 60 140 156.5t190 217t152 173.5z" />
    <glyph glyph-name="bracketleft" unicode="[" horiz-adv-x="317" 
d="M116 -82l121 -3q-5 -35 -8 -45q-118 2 -184 2l142 830q28 0 90.5 0.5t93.5 0.5q-4 -30 -8 -43l-113 -3q-7 0 -7 -8z" />
    <glyph glyph-name="backslash" unicode="\" horiz-adv-x="541" 
d="M465 -54q-38 62 -127 207.5t-103 168.5q-120 205 -198 332q23 17 47 30q35 -58 107.5 -182t90.5 -154q55 -92 225 -376q-23 -16 -42 -26z" />
    <glyph glyph-name="bracketright" unicode="]" horiz-adv-x="317" 
d="M-35 -85l122 3l130 731q2 8 -5 8l-111 3q1 18 7 43q31 0 93.5 -0.5t90.5 -0.5l-151 -830q-29 -1 -91 -1.5t-92 -0.5q1 8 3.5 23.5t3.5 21.5z" />
    <glyph glyph-name="asciicircum" unicode="^" horiz-adv-x="512" 
d="M440 329q-34 48 -92.5 128t-73.5 101q-16 -23 -72 -101.5t-90 -126.5q-36 25 -42 30q21 31 86 128.5t96 143.5q14 1 45 1q28 -42 89.5 -133.5t94.5 -139.5q-17 -14 -41 -31z" />
    <glyph glyph-name="underscore" unicode="_" horiz-adv-x="500" 
d="M-45 -73h500v-54h-500v54z" />
    <glyph glyph-name="grave" unicode="`" horiz-adv-x="458" 
d="M194 637q36 -33 138 -133l-27 -30q-139 109 -153 120q13 16 42 43z" />
    <glyph glyph-name="a" unicode="a" horiz-adv-x="461" 
d="M292 117l-7 3q-63 -70 -111.5 -101t-77.5 -31q-18 3 -38.5 17.5t-31.5 34.5q-9 18 -9 40q0 64 31 150q28 76 80 137.5t117 61.5q55 0 98 -48h6l22 52q33 -9 55 -16q-56 -196 -93 -371q0 -5 5 -5q12 0 68 17q6 -22 9 -42q-70 -25 -122 -25q-4 0 -14 8t-13 16q13 56 26 102
zM245 376h-1q-34 0 -64.5 -35.5t-51.5 -85.5q-37 -91 -37 -164q0 -21 9 -32.5t23 -11.5q34 0 98.5 60t78.5 100q15 42 31 120q-32 49 -86 49z" />
    <glyph glyph-name="b" unicode="b" horiz-adv-x="466" 
d="M149 291l6 -3q110 143 200 143q40 -7 67 -55q8 -16 8 -42q0 -45 -15 -106t-43 -112q-28 -53 -73 -89.5t-104 -36.5q-54 0 -105 49l-25 -52q-17 4 -51 14q15 60 80.5 333t73.5 304l-86 -6q-1 8 -2.5 21.5t-1.5 20.5q39 6 74.5 12.5t52.5 10t20 3.5q10 0 25 -22
q-4 -15 -45.5 -175.5t-55.5 -211.5zM194 39h1q69 0 115 88t46 193q0 21 -9 34.5t-25 13.5q-43 0 -110 -68t-83 -117q-8 -26 -22 -87q11 -23 37 -40t50 -17z" />
    <glyph glyph-name="c" unicode="c" horiz-adv-x="360" 
d="M21 121v1q0 51 23 116t68 114q38 41 77.5 59t91.5 18q48 0 71 -19q-2 -14 -16.5 -35.5t-24.5 -26.5q-42 24 -73 24q-44 0 -77 -43q-27 -35 -45.5 -90.5t-18.5 -104.5q0 -90 76 -90q45 0 123 34q7 -16 12 -39q-96 -49 -160 -49q-50 0 -88.5 34.5t-38.5 96.5z" />
    <glyph glyph-name="d" unicode="d" horiz-adv-x="478" 
d="M303 120l-7 3q-54 -63 -107 -98.5t-88 -36.5q-19 2 -40.5 16.5t-33.5 35.5q-9 16 -9 40q0 67 32 153q30 78 82 137t120 59q56 0 100 -35h6q30 128 54 241l-88 -4q-3 23 -3 42q37 5 72 11.5t53 11t21 4.5q11 0 26 -22q-8 -33 -39.5 -169.5t-68 -293t-39.5 -168.5
q0 -6 5 -6q18 0 63 16q7 -23 8 -42q-68 -24 -117 -24q-4 0 -14 8t-13 16q4 23 25 105zM128 47h1q39 0 107 64.5t80 104.5q14 56 27 121q-33 39 -89 39q-40 0 -73.5 -36.5t-54.5 -90.5q-35 -89 -35 -155q0 -24 11 -35.5t26 -11.5z" />
    <glyph glyph-name="e" unicode="e" horiz-adv-x="404" 
d="M22 108v1q0 51 24.5 120.5t70.5 121.5q70 78 150 78q50 0 79 -32.5t30 -73.5q-4 -26 -19 -52.5t-36 -37.5q-72 -38 -211 -38q-13 -45 -13 -77q0 -35 18 -54.5t50 -19.5q64 0 158 53q6 -13 16 -39q-111 -68 -200 -68q-44 0 -80.5 31.5t-36.5 86.5zM247 381h-1
q-42 0 -77 -43q-33 -43 -49 -100q89 -2 142 25q41 18 41 54q0 26 -14.5 45t-41.5 19z" />
    <glyph glyph-name="f" unicode="f" horiz-adv-x="313" 
d="M380 675h1q36 0 58 -12q-1 -14 -15 -36t-25 -27q-45 17 -70 17q-40 0 -72 -36q-14 -17 -25 -45t-15.5 -47t-16.5 -72q24 0 72 0.5t70 1.5q-3 -20 -11 -50q-39 -1 -140 -1q-85 -405 -111 -529q-23 -1 -69 -1q79 382 109 529h-81q1 5 4 21.5t5 24.5q26 2 78 4q6 0 6 7
q14 71 31.5 110.5t52.5 73.5q71 67 164 67z" />
    <glyph glyph-name="g" unicode="g" horiz-adv-x="426" 
d="M41 223v1q0 77 54.5 141t140.5 64q38 0 62 -8q4 -2 15 -2q111 0 137 1q1 -14 -1 -46q-16 0 -49.5 -1t-49.5 -2l-1 -4q20 -24 20 -75q0 -68 -36 -124q-24 -36 -68.5 -62t-111.5 -19q-47 -31 -53 -42q-2 -5 -2 -9q0 -21 112 -30q7 -1 11 -1q85 -8 113 -25
q18 -11 30.5 -30.5t12.5 -40.5q0 -61 -66 -107.5t-191 -46.5q-80 0 -129.5 26.5t-49.5 72.5q0 38 23 53q37 24 109 64v6q-47 15 -47 60q0 8 13 19t66 43v5q-64 35 -64 119zM114 217v-1q0 -90 72 -90q45 0 77.5 47t32.5 118q0 46 -13 68q-17 29 -55 29q-50 0 -82 -50
t-32 -121zM304 -106v1q0 27 -18.5 37t-74.5 16q-10 1 -41.5 5t-44.5 6q-79 -48 -93 -62q-19 -18 -19 -39q0 -30 36.5 -45.5t84.5 -15.5q74 0 122 25.5t48 71.5z" />
    <glyph glyph-name="h" unicode="h" horiz-adv-x="495" 
d="M169 634l-88 -6q-3 21 -3 41q32 6 67.5 13.5t56 12.5t22.5 5q4 0 13.5 -7t14.5 -15q-10 -37 -96 -375l6 -2q60 69 112.5 98t87.5 30q18 -3 37.5 -16.5t29.5 -35.5q6 -10 6 -30q0 -74 -80 -300q-4 -6 4 -6q19 0 71 13q1 -6 2 -13t2 -15.5t2 -13.5q-60 -21 -131 -21
q-5 0 -15 10.5t-11 19.5q44 134 63 208q19 68 19 99q0 15 -8 25.5t-23 10.5q-44 0 -111.5 -59.5t-79.5 -104.5q-6 -22 -26 -104t-24 -96h-70q51 203 150 634z" />
    <glyph glyph-name="i" unicode="i" horiz-adv-x="251" 
d="M185 623h1q22 0 34.5 -15.5t12.5 -33.5q0 -20 -16 -36t-36 -16q-22 0 -37 15t-15 35q0 19 15.5 35t40.5 16zM119 367l-85 -5q0 7 -1 21t-1 21q34 5 67.5 11t51.5 10t21 4q4 0 13 -9t13 -16q-41 -173 -85 -358q-3 -7 3 -7q16 0 76 16q6 -28 7 -42q-69 -22 -125 -22
q-5 0 -18 10.5t-17 20.5q77 331 80 345z" />
    <glyph glyph-name="j" unicode="j" horiz-adv-x="245" 
d="M179 622h1q22 0 34.5 -15.5t12.5 -32.5q0 -21 -15 -37t-36 -16q-22 0 -36.5 14.5t-14.5 35.5q0 20 14.5 35.5t39.5 15.5zM122 366l-96 -5v42q37 5 73 11.5t54.5 10.5t21.5 4q5 0 14 -8t13 -15q-30 -166 -61 -332q-15 -74 -29 -114.5t-43 -83.5q-20 -30 -47 -56.5
t-46 -39.5t-24 -13q-11 1 -31.5 19t-21.5 29q80 30 116 76q33 43 54 162q37 212 53 313z" />
    <glyph glyph-name="k" unicode="k" horiz-adv-x="448" 
d="M136 219l6 -3q84 101 154.5 157.5t107.5 56.5q9 0 21 -18t14 -38q-88 -13 -200 -120v-5q49 -23 78 -112q20 -63 32 -85q4 -8 15 -8q19 1 63 13q4 -24 5 -42q-63 -21 -133 -21q-23 38 -46 113q-34 101 -60 101q-8 0 -17 -9q-20 -18 -52 -53q-6 -22 -18.5 -75t-17.5 -71
h-69q57 237 149 634l-86 -6q-1 15 -3 43q29 4 64 11.5t57 12.5t24 5q4 0 13 -7.5t14 -14.5q-42 -174 -115 -459z" />
    <glyph glyph-name="l" unicode="l" horiz-adv-x="249" 
d="M169 635l-95 -5q-1 7 -1.5 14t-1 15.5t-0.5 13.5q39 4 75.5 11t55.5 11.5t21 4.5q12 0 27 -22q-63 -257 -148 -631q-2 -6 4 -6q29 0 86 15q3 -16 5 -44q-67 -21 -138 -21q-4 0 -15.5 10t-16.5 20q13 53 70 302.5t72 311.5z" />
    <glyph glyph-name="m" unicode="m" horiz-adv-x="739" 
d="M120 369l-81 -9q-2 30 -2 43q34 5 64 11.5t44.5 10.5t16.5 4q12 0 27 -21q-8 -36 -23 -102l8 -2q53 65 100.5 95t81.5 30q40 -4 61 -43q6 -10 6 -28q0 -17 -8 -57l6 -2q99 126 184 128q16 -2 35.5 -16t29.5 -34q6 -13 6 -30q0 -63 -73 -300q-4 -6 3 -6q20 0 70 15
q3 -14 7 -42q-71 -23 -128 -23q-4 0 -13.5 10t-13.5 20q27 83 55 192q22 103 22 116q0 14 -8.5 24.5t-25.5 10.5q-40 0 -102 -64t-74 -110q-37 -152 -46 -189q-23 -1 -68 -1q32 123 56 230q18 75 18 105q0 12 -7.5 21.5t-21.5 9.5q-42 0 -103.5 -63t-73.5 -110
q-6 -21 -24 -98.5t-22 -93.5q-22 -1 -68 -1q28 113 85 369z" />
    <glyph glyph-name="n" unicode="n" horiz-adv-x="510" 
d="M120 366l-79 -7q-2 30 -2 42q28 5 59 12t48.5 11.5t20.5 4.5q5 0 13.5 -6.5t12.5 -13.5q-9 -42 -27 -109l7 -2q55 65 111.5 97.5t94.5 33.5q43 -7 65 -51q6 -12 6 -31q0 -74 -80 -300q-2 -7 4 -7q15 0 72 16q4 -21 6 -42q-62 -23 -129 -23q-5 0 -15 9.5t-13 20.5
q40 121 62 206q19 76 19 101q0 36 -31 36q-45 0 -113 -60.5t-80 -106.5q-6 -21 -26 -103t-23 -93q-23 -1 -69 -1q52 216 86 366z" />
    <glyph glyph-name="o" unicode="o" horiz-adv-x="439" 
d="M397 282v-1q0 -64 -26 -126.5t-75 -109.5q-58 -55 -142 -55q-66 0 -101 43q-29 37 -29 92q0 72 28 138t74 110q60 56 140 56q59 0 93 -37q38 -40 38 -110zM172 34h1q48 0 87 47q26 32 43.5 89t17.5 109q0 49 -16 75q-18 30 -55 30q-52 0 -93 -55q-22 -30 -39.5 -84
t-17.5 -111q0 -47 16 -72q16 -28 56 -28z" />
    <glyph glyph-name="p" unicode="p" horiz-adv-x="472" 
d="M150 284l9 -2q112 148 204 149q18 -2 38.5 -18.5t29.5 -37.5q8 -18 8 -37q0 -122 -58 -226q-27 -50 -71 -86t-101 -36q-55 0 -99 38q-17 -90 -53 -262q-22 -1 -68 -1q11 58 54.5 279t63.5 324l-82 -5v43q38 5 68 11t42 9t14 3q5 0 14 -7t14 -14q-1 -6 -11 -51.5
t-16 -72.5zM365 321v1q0 19 -9 32.5t-25 13.5q-44 0 -110.5 -69t-80.5 -118q-8 -29 -20 -98q15 -20 39 -32t46 -12q74 0 117 90q43 87 43 192z" />
    <glyph glyph-name="q" unicode="q" horiz-adv-x="462" 
d="M300 122l-6 2q-120 -133 -194 -136q-42 6 -69 46q-12 18 -12 45q0 72 34 160q30 77 80 133.5t118 56.5q59 0 105 -43h5l20 47q27 -6 54 -15q-63 -239 -141 -597q-1 -2 1 -4t4 -2q18 0 75 17q6 -28 7 -42q-77 -25 -128 -25q-5 0 -16.5 11t-16.5 21q44 182 80 325zM93 90
v-1q0 -19 9 -30.5t23 -11.5q37 0 107 66t83 107q14 46 27 111q-32 45 -90 45q-75 0 -127 -131q-32 -85 -32 -155z" />
    <glyph glyph-name="r" unicode="r" horiz-adv-x="364" 
d="M120 369l-78 -8q-2 30 -2 43q28 4 58.5 10.5t48 10.5t18.5 4q4 0 13 -8t13 -14q-12 -47 -29 -124l7 -3q45 67 87.5 108t69.5 41q26 0 49 -14q0 -18 -12 -44.5t-21 -30.5q-21 9 -41 9q-31 0 -87 -66.5t-72 -127.5q-9 -34 -36 -155h-68q39 168 82 369z" />
    <glyph glyph-name="s" unicode="s" horiz-adv-x="365" 
d="M281 294l-4 65q-2 9 -6 12q-20 13 -53 13q-34 0 -56 -12q-37 -21 -37 -61q0 -18 9.5 -31t21 -19.5t39.5 -18.5q54 -24 79.5 -49.5t25.5 -65.5q0 -74 -69 -113q-41 -24 -123 -24q-65 0 -97 18q1 20 3 61t3 61q28 2 44 2l7 -73q0 -8 6 -11q20 -13 60 -13q44 0 66 15
q31 20 31 61q0 29 -16.5 43.5t-56.5 32.5q-52 22 -77 45.5t-25 66.5q0 36 22.5 65t52.5 44q45 21 110 21q61 0 94 -21q-2 -21 -5.5 -59.5t-4.5 -52.5q-26 -2 -44 -2z" />
    <glyph glyph-name="t" unicode="t" horiz-adv-x="345" 
d="M128 86v-1q0 -40 45 -40q44 0 114 20q2 -11 4 -43q-84 -31 -153 -31q-22 0 -47.5 17.5t-33.5 44.5q-3 9 -3 18q0 26 34 179q10 44 26 117h-78q1 5 3 14.5t3.5 17t2.5 13.5q50 4 74 5q7 0 8 7q4 15 13 48t12 45q37 17 65 17q3 0 3 -4q-9 -45 -25 -113q102 0 151 1
q-3 -23 -10 -51h-152q-12 -46 -27 -119q-29 -130 -29 -162z" />
    <glyph glyph-name="u" unicode="u" horiz-adv-x="487" 
d="M116 367l-75 -8q-2 28 -4 42q30 6 63 13t51 11t20 4q5 0 14 -9t11 -17q-39 -121 -61 -223q-15 -66 -15 -94q0 -18 9 -27.5t22 -9.5q36 0 100 61.5t75 100.5q13 44 46 207q24 1 70 1q-67 -305 -80 -371q-2 -6 4 -6q21 0 72 16q6 -22 9 -41q-65 -26 -123 -26q-4 0 -13.5 9
t-14.5 18q10 51 20 97l-6 2q-116 -127 -185 -129q-38 6 -64 42q-12 16 -12 43q0 71 67 294z" />
    <glyph glyph-name="v" unicode="v" horiz-adv-x="448" 
d="M99 368l-75 -7q-2 14 -4 42q21 4 51.5 11t50 11t21.5 4q5 0 15 -8t16 -17q-19 -271 -22 -357q0 -10 9 -3q44 37 95 108q37 52 67.5 115t30.5 97q0 8 -9 8l-58 -6q-2 14 -4 42q107 20 112 20t18 -13.5t13 -17.5q0 -49 -39 -126.5t-82 -135.5q-33 -43 -67 -77.5
t-53.5 -49.5t-24.5 -15q-40 0 -74 5q-1 114 13 370z" />
    <glyph glyph-name="w" unicode="w" horiz-adv-x="674" 
d="M349 280h-6q-32 -80 -75.5 -151t-71.5 -103.5t-34 -32.5q-37 0 -72 5q-4 181 4 370l-76 -9q-4 28 -5 42q122 28 123 28q5 0 15.5 -8.5t14.5 -16.5q-12 -286 -12 -352q0 -4 2.5 -5t5.5 2q40 51 78 116q73 125 101 234q23 8 63 8q2 -252 7 -359q0 -3 3 -3.5t5 1.5
q43 50 85 121q28 50 51.5 110t23.5 89q0 9 -7 8l-60 -5q-2 30 -2 43q18 2 44.5 6.5t43.5 7t20 2.5q5 -1 18 -13.5t14 -17.5q-1 -44 -33.5 -118.5t-72.5 -138.5q-23 -37 -52 -72.5t-48.5 -55t-23.5 -19.5q-39 0 -69 5q-7 109 -2 282z" />
    <glyph glyph-name="x" unicode="x" horiz-adv-x="436" 
d="M222 272h5q48 58 99 107.5t69 49.5q10 0 26 -17.5t19 -33.5q-94 -46 -197 -149l-1 -5q44 -117 67 -171q3 -8 13 -8q26 0 66 12q3 -11 7 -42q-53 -21 -136 -21q-12 29 -70 190h-5q-92 -103 -120 -193q-21 -2 -84 -2q8 35 64 104.5t124 135.5l1 5q-28 75 -51 134l-77 -17
q-3 10 -10 40q19 6 48.5 16.5t45.5 16t19 5.5q12 0 33 -14q41 -132 45 -143z" />
    <glyph glyph-name="y" unicode="y" horiz-adv-x="430" 
d="M86 366l-77 -14q-5 23 -6 42q27 7 58 16.5t46 14t18 4.5q11 0 30 -21q11 -127 38 -383h6q46 74 72 129q69 148 69 211q0 9 -9 8l-59 -5q-1 6 -1.5 13t-1 15.5t-0.5 13.5q20 3 47 8t43.5 8t20.5 3q5 0 18 -13.5t13 -18.5q0 -46 -31 -124.5t-68 -147.5q-84 -154 -207 -285
q-33 -36 -64 -60.5t-39 -24.5q-13 0 -32 17t-21 32q54 27 103 66q57 47 86 90q-25 155 -52 406z" />
    <glyph glyph-name="z" unicode="z" horiz-adv-x="415" 
d="M298 368l-1 6q-78 0 -150 -2q-23 0 -28 -15l-30 -80q-23 3 -46 8q5 20 17 65.5t18 69.5q3 0 34.5 -0.5t59.5 -0.5h200q7 -22 12 -53q-44 -49 -144.5 -153.5t-160.5 -162.5l1 -5q128 0 180 4q24 2 33 21l33 78q23 -3 46 -10q-15 -54 -43 -139q-5 0 -46 0.5t-84 0.5h-107
h-86q-2 7 -7.5 20.5t-7.5 19.5q52 55 163 174t144 154z" />
    <glyph glyph-name="braceleft" unicode="{" horiz-adv-x="334" 
d="M136 293l-1 -6q47 -10 47 -65q0 -29 -30.5 -112t-30.5 -114q0 -43 28.5 -68t84.5 -26q-1 -14 -7 -40q-80 0 -125.5 36.5t-45.5 94.5q0 42 32.5 122t32.5 106q0 25 -17 37.5t-60 11.5q2 22 6 42q62 -1 85 27q11 13 14.5 36.5t3.5 85.5q0 69 12 109t42 72q61 65 177 66
q-1 -19 -8 -42q-87 0 -124 -52q-20 -28 -26.5 -66t-6.5 -114q0 -116 -83 -141z" />
    <glyph glyph-name="bar" unicode="|" horiz-adv-x="512" 
d="M230 750h53v-1000h-53v1000z" />
    <glyph glyph-name="braceright" unicode="}" horiz-adv-x="334" 
d="M211 286v7q-47 17 -47 67q0 27 27.5 105.5t27.5 116.5q0 85 -110 86q2 21 6 40q84 0 126.5 -35t42.5 -94q0 -43 -29.5 -123t-29.5 -100q0 -23 17 -35t62 -12q-4 -31 -7 -42q-60 4 -84 -27q-7 -8 -11 -18t-5.5 -33t-1.5 -35.5v-55.5q0 -110 -49 -165q-63 -71 -179 -71
q1 16 7 43q81 0 122 51q21 26 27 63t6 116q0 65 18.5 101t63.5 50z" />
    <glyph glyph-name="asciitilde" unicode="~" horiz-adv-x="512" 
d="M165 310h1q39 0 98 -36q53 -34 79 -34q49 0 55 73q24 1 49 0q-2 -55 -31 -95t-75 -40q-34 0 -95 37q-4 3 -14 9t-16 9.5t-15 7.5t-18 6t-19 2q-50 0 -64 -71q-31 0 -47 1q5 56 36 93.5t76 37.5z" />
    <glyph glyph-name="uni00A0" unicode="&#xa0;" horiz-adv-x="200" 
 />
    <glyph glyph-name="exclamdown" unicode="&#xa1;" horiz-adv-x="253" 
d="M4 -234h-1q-1 1 -1 3q38 178 104 484q23 5 51 5q-1 -4 -13 -97.5t-17 -129.5q-13 -98 -29 -251q-15 -5 -49 -9.5t-45 -4.5zM150 329h-1q-23 0 -35 15t-12 34q0 21 15.5 36t35.5 15q24 0 37.5 -13t13.5 -33q0 -22 -16 -38t-38 -16z" />
    <glyph glyph-name="cent" unicode="&#xa2;" horiz-adv-x="512" 
d="M78 257v1q0 87 63 170.5t158 102.5q12 68 17 99q21 5 50 7q-3 -18 -9 -53t-8 -48q6 1 22 1q56 0 87 -23q-2 -14 -14.5 -32.5t-23.5 -24.5q-36 26 -82 27q-8 -46 -28 -158t-30 -169q58 4 118 36q6 -15 10 -40q-69 -38 -136 -45q-3 -18 -9 -52.5t-9 -51.5q-13 -2 -47 -4
q7 34 18 105q-59 1 -103 41t-44 111zM153 265v-1q0 -39 20 -70t62 -37q49 283 56 324q-58 -13 -98 -79t-40 -137z" />
    <glyph glyph-name="sterling" unicode="&#xa3;" horiz-adv-x="512" 
d="M-18 47l65 3q11 0 17 6q59 53 77 165q3 21 7 63h-103q1 7 4 22t5 22q15 0 46 0.5t46 1.5q5 0 5 5q7 106 11 127q18 89 75 138q62 55 160 55q51 0 88 -16q-5 -80 -12 -142q-31 -4 -51 -5l-2 91q-1 10 -8 13q-17 9 -45 9q-48 0 -83 -31q-35 -32 -48 -106q-4 -20 -11 -137
q113 0 178 1q-3 -24 -10 -48h-171q-1 -13 -6 -42q-20 -112 -86 -184q-12 -10 6 -10q193 0 226 7q11 3 22 21l46 97q15 -2 47 -11q-37 -106 -60 -163q-17 0 -133 0.5t-191 0.5h-120q2 7 4.5 23.5t4.5 23.5z" />
    <glyph glyph-name="currency" unicode="&#xa4;" horiz-adv-x="512" 
d="M267 496h1q56 0 98 -28q65 75 68 79q18 -15 38 -37q-9 -10 -20 -22t-25.5 -28.5t-23.5 -26.5q38 -44 38 -112q0 -81 -48 -129q12 -14 25.5 -29t28.5 -32t23 -26q-15 -15 -37 -32q-24 29 -76 87q-42 -29 -102 -29q-55 0 -94 24q-14 -17 -40.5 -46t-33.5 -37q-24 20 -36 32
q12 14 37 41.5t36 39.5q-45 45 -45 120q0 72 45 123q-45 51 -72 81q26 26 39 37q31 -36 72 -84q42 34 104 34zM262 449h-1q-50 0 -79 -29q-44 -44 -44 -108q0 -70 40 -108q32 -27 80 -27q50 0 79 26q45 37 45 114q0 69 -42 106q-27 26 -78 26z" />
    <glyph glyph-name="yen" unicode="&#xa5;" horiz-adv-x="512" 
d="M247 49l93 -3q-4 -26 -9 -46q-17 0 -59 0.5t-63 0.5q-19 0 -61 -0.5t-61 -0.5q0 3 9 46l79 2q4 0 8 6l14 90h-152q5 32 7 38q50 1 152 1l10 67h-154q3 18 8 38q45 1 138 1q-60 164 -105 293q-4 4 -7 4l-50 3q2 7 5 22.5t4 22.5q12 0 41 -0.5t43 -0.5q25 0 69 0.5t62 0.5
q-4 -27 -9 -45l-83 -4q15 -46 44 -139.5t44 -139.5h5q73 111 175 274q2 6 -3 6l-78 2q1 7 4 22.5t5 22.5h121q13 0 40 0.5t38 0.5q0 -2 -3.5 -19.5t-5.5 -26.5l-48 -3q-130 -191 -207 -295q92 0 135 1q-4 -28 -9 -41h-153l-10 -67q104 0 153 1q-4 -26 -9 -40h-151z" />
    <glyph glyph-name="brokenbar" unicode="&#xa6;" horiz-adv-x="512" 
d="M230 675h53v-350h-53v350zM230 175h53v-350h-53v350z" />
    <glyph glyph-name="section" unicode="&#xa7;" horiz-adv-x="451" 
d="M389 219v-1q0 -86 -80 -145q14 -23 14 -60q0 -90 -66 -143q-54 -45 -130 -45q-45 0 -88 15.5t-66 41.5q7 14 20 27t26 15q50 -52 119 -52q46 0 81 30q39 33 39 96q0 39 -19.5 63.5t-70.5 62.5q-54 40 -79 74.5t-25 81.5q0 81 81 144q-16 26 -16 66q0 37 20 73t54 60
q48 35 119 35q85 0 132 -47q-13 -30 -44 -42q-50 41 -103 41q-40 0 -72 -24q-41 -30 -41 -82q0 -38 18 -60t82 -72q49 -37 72 -72.5t23 -80.5zM124 300v-1q0 -25 12 -47.5t25.5 -35t42.5 -35.5q55 -42 82 -74q42 33 42 94q0 25 -12.5 48t-26.5 36.5t-42 36.5q-68 60 -78 70
q-45 -35 -45 -92z" />
    <glyph glyph-name="dieresis" unicode="&#xa8;" horiz-adv-x="458" 
d="M196 581h1q19 0 28.5 -12t9.5 -27q0 -18 -12.5 -32t-30.5 -14q-19 0 -30.5 10.5t-11.5 27.5t12.5 32t33.5 15zM351 581h1q17 0 28 -12.5t11 -26.5q0 -18 -12 -32t-33 -14q-18 0 -29 12t-11 26q0 18 12 32.5t33 14.5z" />
    <glyph glyph-name="copyright" unicode="&#xa9;" horiz-adv-x="745" 
d="M384 660h1q139 0 232 -96t93 -236t-96 -239t-235 -99t-232 96t-93 236t96 239t234 99zM382 622h-1q-120 0 -199 -87t-79 -211t78.5 -210t199.5 -86q120 0 200 87t80 211t-79 210t-200 86zM462 385l-9 64q0 5 -5 8q-15 10 -44 10q-45 0 -74 -28q-51 -48 -51 -126
q0 -58 34 -95q31 -34 89 -34q49 0 97 24q6 -21 9 -39q-62 -29 -118 -29q-68 0 -115 35q-61 46 -61 125q0 100 77 166q53 43 131 43q51 0 75 -12q3 -59 6 -107q-22 -4 -41 -5z" />
    <glyph glyph-name="ordfeminine" unicode="&#xaa;" horiz-adv-x="364" 
d="M261 408l-5 2q-35 -40 -73 -65t-62 -25q-13 0 -33.5 13t-26.5 28q-4 8 -4 26q0 54 24 116q22 56 60.5 99.5t86.5 43.5q43 0 73 -32h3l16 34q19 -5 44 -14q-30 -108 -65 -269q0 -4 4 -4q8 0 50 9q4 -22 4 -34q-48 -16 -92 -16q-10 0 -21 18q4 28 17 70zM230 602h-1
q-47 0 -84 -86q-26 -62 -26 -116q0 -13 6 -21.5t15 -8.5q23 0 68.5 39t57.5 67q1 5 6.5 26t10.5 40t6 29q-22 31 -59 31z" />
    <glyph glyph-name="guillemotleft" unicode="&#xab;" horiz-adv-x="421" 
d="M112 218q37 -71 79 -140q-15 -12 -36 -26q-77 103 -116 149q0 6 6 39q31 28 87 79.5t74 67.5q18 -16 28 -32q-40 -45 -122 -137zM274 218q29 -57 77 -134l-36 -27q-57 76 -112 145q1 6 3 18.5t3 18.5q8 7 154 142q11 -10 28 -31q-60 -66 -117 -132z" />
    <glyph glyph-name="logicalnot" unicode="&#xac;" horiz-adv-x="512" 
d="M397 34v189h-344q0 19 2 53q61 0 195 1t198 2q4 0 4 -4q0 -36 -1 -121.5t-1 -117.5q-34 -2 -53 -2z" />
    <glyph glyph-name="uni00AD" unicode="&#xad;" horiz-adv-x="300" 
d="M139 214h-1h-109q3 23 8 53h107q21 0 61.5 0.5t60.5 1.5q-2 -15 -9 -55h-118z" />
    <glyph glyph-name="registered" unicode="&#xae;" horiz-adv-x="458" 
d="M259 660h2q78 0 130 -53.5t52 -133.5q0 -77 -54.5 -132.5t-131.5 -55.5q-79 0 -131 53.5t-52 132.5q0 78 53.5 133.5t131.5 55.5zM258 630h-1q-64 0 -106 -46t-42 -113q0 -66 42 -111t107 -45q64 0 107 46t43 112q0 67 -42.5 112t-107.5 45zM193 400v147h-22q0 18 1 26
q23 1 67 1q40 0 59 -5t30 -18t11 -27q0 -39 -42 -56v-4q15 -7 37 -51q6 -13 15 -13h14v-26h-55q-6 8 -18.5 35t-16.5 33q-7 10 -24 10h-13v-52h24v-26h-88v26h21zM236 547v-69h12q23 0 34.5 10.5t11.5 26.5q0 32 -44 32h-14z" />
    <glyph glyph-name="macron" unicode="&#xaf;" horiz-adv-x="458" 
d="M372 554q-3 -26 -9 -48q-29 0 -98.5 0.5t-102.5 0.5q2 17 8 45q136 2 202 2z" />
    <glyph glyph-name="degree" unicode="&#xb0;" horiz-adv-x="314" 
d="M180 449h-1q-41 0 -71 26t-30 72q0 43 32.5 75.5t83.5 32.5q45 0 73 -27t28 -68q0 -48 -32 -79.5t-83 -31.5zM185 490h1q24 0 38.5 17.5t14.5 48.5q0 26 -13 42t-36 16q-25 0 -40.5 -18t-15.5 -49q0 -26 14.5 -41.5t36.5 -15.5z" />
    <glyph glyph-name="plusminus" unicode="&#xb1;" horiz-adv-x="512" 
d="M221 316v153q27 3 55 3q0 -19 -0.5 -71.5t-0.5 -83.5q119 0 174 1q0 -22 -2 -56h-172q-1 -54 -1 -146q-32 -2 -53 -2v148h-171q0 36 1 53q111 0 170 1zM448 55q0 -20 -2 -54q-273 0 -397 -1q0 37 2 53q62 1 198.5 1t198.5 1z" />
    <glyph glyph-name="twosuperior" unicode="&#xb2;" 
d="M315 667v-1q0 -67 -112 -152q-8 -6 -56 -38l1 -4q19 1 74 3.5t70 2.5q1 0 1 -2q0 -20 -7 -45h-146h-76q-3 9 -7 29q60 39 100 71q97 75 97 133q0 23 -12 38q-14 16 -41 16q-29 0 -46 -12l-3 -6l-16 -53q-25 4 -40 5q2 12 8 41.5t9 44.5q38 18 94 18q62 0 88 -29
q20 -21 20 -60z" />
    <glyph glyph-name="threesuperior" unicode="&#xb3;" 
d="M231 603l-1 -6q35 -4 54 -24.5t19 -49.5q0 -45 -44 -75q-36 -25 -113 -25q-51 0 -78 6q0 14 -1.5 43t-2.5 44q13 3 41 5l9 -49l1 -2q1 -2 2 -3q21 -7 42 -7q41 0 61 16q21 16 21 44q0 27 -20 41.5t-54 14.5h-38q2 26 4 37q53 -2 88.5 15.5t35.5 48.5q0 17 -12 29
q-13 13 -44 13q-30 0 -45 -11q-4 -2 -4 -5l-14 -45q-12 2 -40 4q6 35 15 77q45 17 99 17q58 0 85 -25q21 -21 21 -48q0 -29 -22.5 -50.5t-64.5 -29.5z" />
    <glyph glyph-name="acute" unicode="&#xb4;" horiz-adv-x="458" 
d="M349 632q15 -15 37 -47q-6 -4 -68 -47t-92 -63q-2 2 -25 31q28 23 81.5 69t66.5 57z" />
    <glyph glyph-name="mu" unicode="&#xb5;" horiz-adv-x="512" 
d="M328 110l-5 3q-46 -50 -96 -86.5t-79 -36.5q-12 0 -25 8t-18 19l-5 -2q-19 -131 -29 -248q-30 -12 -77 -12q32 193 66 362q33 167 68 300q44 2 71 2q-25 -91 -57 -239q-12 -66 -12 -86q0 -18 10 -29.5t25 -11.5q36 0 100 59.5t75 100.5q6 23 47 205q24 1 70 1
q-66 -302 -80 -369q-2 -8 5 -8q23 0 71 17q6 -21 9 -42q-64 -26 -124 -26q-5 0 -14.5 9t-14.5 19q2 15 19 91z" />
    <glyph glyph-name="mu" unicode="&#x3bc;" horiz-adv-x="512" 
d="M328 110l-5 3q-46 -50 -96 -86.5t-79 -36.5q-12 0 -25 8t-18 19l-5 -2q-19 -131 -29 -248q-30 -12 -77 -12q32 193 66 362q33 167 68 300q44 2 71 2q-25 -91 -57 -239q-12 -66 -12 -86q0 -18 10 -29.5t25 -11.5q36 0 100 59.5t75 100.5q6 23 47 205q24 1 70 1
q-66 -302 -80 -369q-2 -8 5 -8q23 0 71 17q6 -21 9 -42q-64 -26 -124 -26q-5 0 -14.5 9t-14.5 19q2 15 19 91z" />
    <glyph glyph-name="paragraph" unicode="&#xb6;" horiz-adv-x="516" 
d="M484 601l-119 -722q-4 -1 -52 -9l116 732h-66l-121 -731q-23 -6 -52 -9l59 366h-17q-45 0 -82 19q-100 44 -100 167q0 71 38.5 125.5t94.5 79.5q71 32 220 32q17 0 143 -3q-5 -36 -7 -47h-55z" />
    <glyph glyph-name="periodcentered" unicode="&#xb7;" horiz-adv-x="244" 
d="M125 316h1q27 0 39 -17t12 -36q0 -23 -16 -39t-39 -16q-24 0 -38 14.5t-14 37.5q0 21 15 38.5t40 17.5z" />
    <glyph glyph-name="cedilla" unicode="&#xb8;" horiz-adv-x="458" 
d="M62 -208l1 35q77 5 77 49q0 36 -50 36q-1 3 -2 6.5t-2 8t-2 6.5l86 79h52l-77 -72q24 -4 38.5 -20t14.5 -38q0 -39 -38 -63.5t-98 -26.5z" />
    <glyph glyph-name="onesuperior" unicode="&#xb9;" 
d="M81 467l77 2q2 0 2 2q31 181 38 218q-41 -7 -83 -17q-4 23 -5 37q30 7 67 19.5t61 21t28 8.5q2 0 1 -3q-30 -170 -51 -286l80 -1q-4 -27 -7 -37h-110h-105q4 27 7 36z" />
    <glyph glyph-name="ordmasculine" unicode="&#xba;" horiz-adv-x="347" 
d="M344 538v-1q0 -49 -18 -96.5t-52 -78.5q-44 -42 -106 -42q-54 0 -81 33q-23 27 -23 75q0 104 72 176q45 42 107 42q46 0 71 -25q30 -28 30 -83zM175 356h1q34 0 62 34q17 22 30.5 64t13.5 82q0 36 -11 54q-13 20 -37 20q-37 0 -64 -38q-17 -22 -30.5 -61t-13.5 -81
q0 -40 12 -55q12 -19 37 -19z" />
    <glyph glyph-name="guillemotright" unicode="&#xbb;" horiz-adv-x="421" 
d="M128 220q-32 62 -76 133q20 17 35 26q85 -110 112 -143q-2 -21 -6 -38q-8 -7 -154 -142q-6 5 -29 31q80 88 118 133zM290 220q-32 59 -79 139q21 17 36 26q76 -100 116 -149q-2 -22 -6 -39q-27 -24 -80.5 -73t-80.5 -73q-6 5 -29 31q65 68 123 138z" />
    <glyph glyph-name="onequarter" unicode="&#xbc;" horiz-adv-x="764" 
d="M98 363l77 2q2 0 2 2q18 98 38 218q-41 -7 -83 -17q-4 23 -5 37q30 7 67 19.5t61 21t28 8.5q2 0 2 -3q-6 -35 -24 -134.5t-28 -151.5l80 -1q-5 -27 -7 -37h-110h-105q4 27 7 36zM658 634q-206 -288 -249 -351q-31 -44 -107 -149t-107 -149q-11 6 -37 22q119 165 211 296
q42 60 126.5 180.5t123.5 175.5q23 -11 39 -25zM512 32l54 1q2 0 2 2q3 12 7 43h-150q-3 8 -13 37q33 36 98 105q19 20 53.5 55.5t44.5 46.5q22 0 58 -2q-19 -112 -34 -205h60q-2 -21 -7 -36h-60q-1 -7 -4 -23t-4 -23l45 -1q-1 -13 -5 -32h-73h-77q1 5 2.5 16t2.5 16z
M609 268h-6q-23 -27 -70 -75q-51 -56 -66 -73q-5 -5 1 -5h113z" />
    <glyph glyph-name="onehalf" unicode="&#xbd;" horiz-adv-x="764" 
d="M74 363l77 2q2 0 2 2q18 98 38 218q-41 -7 -83 -17q-4 23 -5 37q30 7 67 19.5t61 21t28 8.5q2 0 2 -3q-6 -35 -24 -134.5t-28 -151.5l80 -1q-5 -27 -7 -37h-110h-105q4 27 7 36zM634 634q-38 -53 -249 -351q-55 -78 -214 -298q-11 6 -37 22q119 165 211 296
q218 310 250 356q23 -11 39 -25zM700 236v-1q0 -67 -112 -152q-8 -6 -56 -38l1 -4q19 1 74 3.5t70 2.5q1 0 1 -2q0 -21 -7 -45h-146h-76q-3 9 -7 29q57 37 100 70q97 77 97 134q0 23 -12 38q-14 16 -41 16q-30 0 -46 -12q-2 -1 -3 -6l-16 -53q-25 4 -40 5q2 12 8 41.5
t9 44.5q38 18 94 18q62 0 88 -29q20 -21 20 -60z" />
    <glyph glyph-name="threequarters" unicode="&#xbe;" horiz-adv-x="764" 
d="M262 500l-1 -6q35 -4 54 -24.5t19 -49.5q0 -46 -44 -76q-36 -25 -113 -25q-53 0 -78 7q0 13 -1.5 42.5t-2.5 44.5q28 4 41 5l9 -50q1 0 2 -2t1 -3q21 -7 42 -7q41 0 61 16q21 16 21 45q0 27 -20 41.5t-54 14.5h-38q2 26 4 37q52 -2 87.5 15.5t35.5 48.5q0 16 -12 28
q-13 13 -44 13q-28 0 -45 -10q0 -1 -1.5 -2.5t-2.5 -3.5l-13 -44q-29 2 -40 4q7 36 15 76q45 17 98 17q58 0 85 -25q21 -21 21 -47q0 -29 -22.5 -50.5t-63.5 -29.5zM669 634q-30 -43 -118.5 -167.5t-129.5 -183.5q-31 -44 -107 -149t-107 -149q-11 6 -37 22q119 165 211 296
q42 60 126.5 180.5t123.5 175.5q21 -10 38 -25zM518 32l54 1q2 0 2 2q3 12 7 43h-150q-3 8 -13 37q33 36 98 105q19 20 53.5 55.5t44.5 46.5q22 0 58 -2q-19 -112 -34 -205h60q-2 -21 -7 -36h-60q-1 -7 -4 -23t-4 -23l45 -1q-1 -13 -5 -32h-73h-77q1 5 2.5 16t2.5 16z
M615 268h-6q-23 -27 -70 -75q-51 -56 -66 -73q-5 -5 1 -5h113z" />
    <glyph glyph-name="questiondown" unicode="&#xbf;" horiz-adv-x="430" 
d="M272 331h-1q-46 0 -46 49q0 20 16.5 34.5t38.5 14.5t35 -12t13 -30q0 -23 -17 -39.5t-39 -16.5zM169 -235h-1q-81 0 -120 39t-40 95q1 66 45 121.5t141 111.5q32 21 32 43q1 34 -5 73q22 10 53 15q8 -15 15 -47t7 -57q0 -8 -2 -24q-103 -63 -152.5 -113t-49.5 -113
q0 -43 24.5 -68t70.5 -25q44 0 72 17q8 8 10 12l28 88q21 -1 54 -7q-16 -73 -31 -133q-69 -28 -151 -28z" />
    <glyph glyph-name="Agrave" unicode="&#xc0;" horiz-adv-x="585" 
d="M-48 46l53 4q4 0 8 5q54 96 170 310.5t159 291.5q9 2 52 2q20 -103 60.5 -325t52.5 -284l60 -3q-3 -25 -9 -46h-91q-23 0 -66 -0.5t-62 -0.5q2 13 8 47l79 3q4 0 4 6q-18 99 -26 142q0 4 -6 4l-241 -1q-25 -47 -77 -151l89 -3q-2 -18 -8 -46h-132q-15 0 -44 -0.5
t-42 -0.5q8 41 9 46zM345 549h-7q-15 -29 -70.5 -135t-83.5 -158q-3 -6 2 -6h210q-8 47 -25.5 149.5t-25.5 149.5zM414 701q-15 8 -80 40.5l-97 48.5q19 33 34 54q16 -11 76 -51.5t88 -58.5q-7 -16 -21 -33z" />
    <glyph glyph-name="Aacute" unicode="&#xc1;" horiz-adv-x="585" 
d="M-48 46l53 4q4 0 8 5q54 96 170 310.5t159 291.5q9 2 52 2q20 -103 60.5 -325t52.5 -284l60 -3q-3 -25 -9 -46h-91q-23 0 -66 -0.5t-62 -0.5q2 13 8 47l79 3q4 0 4 6q-18 99 -26 142q0 4 -6 4l-241 -1q-25 -47 -77 -151l89 -3q-2 -18 -8 -46h-132q-15 0 -44 -0.5
t-42 -0.5q8 41 9 46zM345 549h-7q-15 -29 -70.5 -135t-83.5 -158q-3 -6 2 -6h210q-8 47 -25.5 149.5t-25.5 149.5zM460 843q17 -26 31 -55q-27 -13 -89.5 -43.5t-88.5 -43.5q-13 19 -20 34q22 14 80.5 52t86.5 56z" />
    <glyph glyph-name="Acircumflex" unicode="&#xc2;" horiz-adv-x="585" 
d="M-48 46l53 4q4 0 8 5q54 96 170 310.5t159 291.5q9 2 52 2q20 -103 60.5 -325t52.5 -284l60 -3q-3 -25 -9 -46h-91q-23 0 -66 -0.5t-62 -0.5q2 13 8 47l79 3q4 0 4 6q-18 99 -26 142q0 4 -6 4l-241 -1q-25 -47 -77 -151l89 -3q-2 -18 -8 -46h-132q-15 0 -44 -0.5
t-42 -0.5q8 41 9 46zM345 549h-7q-15 -29 -70.5 -135t-83.5 -158q-3 -6 2 -6h210q-8 47 -25.5 149.5t-25.5 149.5zM380 779q-85 -51 -121 -73q-15 17 -24 31q40 29 132 97q12 1 37 1q15 -15 48.5 -49.5t47.5 -48.5q-13 -16 -29 -29q-26 21 -91 71z" />
    <glyph glyph-name="Atilde" unicode="&#xc3;" horiz-adv-x="585" 
d="M-48 46l53 4q4 0 8 5q54 96 170 310.5t159 291.5q9 2 52 2q20 -103 60.5 -325t52.5 -284l60 -3q-3 -25 -9 -46h-91q-23 0 -66 -0.5t-62 -0.5q2 13 8 47l79 3q4 0 4 6q-18 99 -26 142q0 4 -6 4l-241 -1q-25 -47 -77 -151l89 -3q-2 -18 -8 -46h-132q-15 0 -44 -0.5
t-42 -0.5q8 41 9 46zM345 549h-7q-15 -29 -70.5 -135t-83.5 -158q-3 -6 2 -6h210q-8 47 -25.5 149.5t-25.5 149.5zM321 807h1q25 0 67 -27q29 -20 48 -20q15 0 26 12.5t14 31.5q20 2 38 0q-4 -36 -29 -66t-61 -30q-8 0 -17 3t-13 4.5t-16 9.5l-12 8q-38 22 -56 22
q-13 0 -26 -12t-17 -30q-18 -2 -37 0q5 36 32 65t58 29z" />
    <glyph glyph-name="Adieresis" unicode="&#xc4;" horiz-adv-x="585" 
d="M-48 46l53 4q4 0 8 5q54 96 170 310.5t159 291.5q9 2 52 2q20 -103 60.5 -325t52.5 -284l60 -3q-3 -25 -9 -46h-91q-23 0 -66 -0.5t-62 -0.5q2 13 8 47l79 3q4 0 4 6q-18 99 -26 142q0 4 -6 4l-241 -1q-25 -47 -77 -151l89 -3q-2 -18 -8 -46h-132q-15 0 -44 -0.5
t-42 -0.5q8 41 9 46zM345 549h-7q-15 -29 -70.5 -135t-83.5 -158q-3 -6 2 -6h210q-8 47 -25.5 149.5t-25.5 149.5zM296 804h1q19 0 28.5 -12t9.5 -28q0 -18 -12.5 -31.5t-31.5 -13.5q-17 0 -29 10.5t-12 26.5q0 19 12.5 33.5t33.5 14.5zM462 804h1q19 0 28.5 -12t9.5 -27
q0 -19 -12 -32.5t-30 -13.5q-20 0 -31.5 11.5t-11.5 26.5q0 19 12 33t34 14z" />
    <glyph glyph-name="Aring" unicode="&#xc5;" horiz-adv-x="585" 
d="M-48 46l53 4q4 0 8 5q54 96 170 310.5t159 291.5q9 2 52 2q20 -103 60.5 -325t52.5 -284l60 -3q-3 -25 -9 -46h-91q-23 0 -66 -0.5t-62 -0.5q2 13 8 47l79 3q4 0 4 6q-18 99 -26 142q0 4 -6 4l-241 -1q-25 -47 -77 -151l89 -3q-2 -18 -8 -46h-132q-15 0 -44 -0.5
t-42 -0.5q8 41 9 46zM345 549h-7q-15 -29 -70.5 -135t-83.5 -158q-3 -6 2 -6h210q-8 47 -25.5 149.5t-25.5 149.5zM367 700h-1q-39 0 -64 20.5t-25 55.5q0 40 30.5 65.5t75.5 25.5q40 0 64.5 -21t24.5 -54q0 -36 -28.5 -64t-76.5 -28zM370 736h1q20 0 36 13.5t16 39.5
q0 18 -11.5 30.5t-31.5 12.5q-24 0 -39 -14.5t-15 -39.5q0 -18 13 -30t31 -12z" />
    <glyph glyph-name="AE" unicode="&#xc6;" horiz-adv-x="833" 
d="M418 267l-183 -1q-70 -97 -152 -217l86 -3q-4 -32 -8 -46h-133h-86q0 2 3.5 19.5t5.5 26.5l53 4q5 0 9 5q67 90 217 295t217 295q4 5 7 5h96h191h81q-13 -109 -19 -154q-26 -2 -44 -2v84q0 18 -22 19q-42 5 -177 5q-7 0 -8 -5l-48 -280q27 0 80 0.5t79 1.5q24 0 29 20
l13 48h46l-18 -96q-5 -28 -15 -88q-15 -1 -46 -1l4 46q2 12 -3 16.5t-21 4.5q-47 1 -155 1l-36 -203q-2 -13 6 -16.5t46 -3.5q124 0 158 8q13 2 23 20l43 87q21 -4 43 -13q-12 -36 -52 -150q-15 0 -124 0.5t-186 0.5q-21 0 -60 -0.5t-56 -0.5q3 16 9 46l70 4q4 0 5 4l36 210
q0 4 -4 4zM430 314l47 284h-6q-138 -192 -199 -278q-6 -6 0 -6h158z" />
    <glyph glyph-name="Ccedilla" unicode="&#xc7;" horiz-adv-x="572" 
d="M227 -75l77 65h-6q-98 0 -168 65q-73 69 -73 196q0 104 49.5 194.5t122.5 143.5q96 71 224 71q86 0 126 -22q-14 -114 -21 -172q-8 -1 -25.5 -1.5t-25.5 -0.5l3 112q0 10 -5 13q-26 16 -82 16q-93 0 -160 -60q-61 -53 -93 -129t-32 -151q0 -96 38 -149q22 -31 60.5 -50.5
t85.5 -19.5q65 0 177 38q3 -22 3 -50q-76 -27 -131 -37l-80 -68q59 -12 59 -63q0 -37 -41 -64t-106 -27l1 36q38 1 60 15.5t22 32.5q0 17 -11 27q-10 11 -43 14q-1 4 -2.5 12.5t-2.5 12.5z" />
    <glyph glyph-name="Egrave" unicode="&#xc8;" horiz-adv-x="532" 
d="M9 46l68 3q4 0 6 4l91 548l-73 2q6 32 9 47h113h216h81q-13 -109 -19 -154q-7 -1 -22.5 -2t-21.5 -1v86q0 16 -22 19q-52 4 -177 4q-8 0 -9 -4l-41 -243q27 0 79.5 0.5t78.5 1.5q15 0 21 4.5t8 15.5l13 48h46q-6 -38 -17 -96q-2 -10 -5 -28.5t-5.5 -34.5t-5.5 -30
q-15 -1 -47 -1l5 50q2 13 -3 17.5t-21 4.5q-47 1 -156 1l-40 -241q-2 -13 6.5 -16.5t46.5 -3.5q123 0 157 8q13 2 23 20l44 91q21 -4 43 -13q-44 -129 -53 -154q-15 0 -124 0.5t-186 0.5q-21 0 -60 -0.5t-56 -0.5q6 32 9 47zM403 701q-15 8 -80 40.5l-97 48.5q19 33 34 54
q16 -11 76 -51.5t88 -58.5q-7 -16 -21 -33z" />
    <glyph glyph-name="Eacute" unicode="&#xc9;" horiz-adv-x="532" 
d="M9 46l68 3q4 0 6 4l91 548l-73 2q6 32 9 47h113h216h81q-13 -109 -19 -154q-7 -1 -22.5 -2t-21.5 -1v86q0 16 -22 19q-52 4 -177 4q-8 0 -9 -4l-41 -243q27 0 79.5 0.5t78.5 1.5q15 0 21 4.5t8 15.5l13 48h46q-6 -38 -17 -96q-2 -10 -5 -28.5t-5.5 -34.5t-5.5 -30
q-15 -1 -47 -1l5 50q2 13 -3 17.5t-21 4.5q-47 1 -156 1l-40 -241q-2 -13 6.5 -16.5t46.5 -3.5q123 0 157 8q13 2 23 20l44 91q21 -4 43 -13q-44 -129 -53 -154q-15 0 -124 0.5t-186 0.5q-21 0 -60 -0.5t-56 -0.5q6 32 9 47zM443 843q17 -26 31 -55q-27 -13 -89.5 -43.5
t-88.5 -43.5q-13 19 -20 34q22 14 80.5 52t86.5 56z" />
    <glyph glyph-name="Ecircumflex" unicode="&#xca;" horiz-adv-x="532" 
d="M9 46l68 3q4 0 6 4l91 548l-73 2q6 32 9 47h113h216h81q-13 -109 -19 -154q-7 -1 -22.5 -2t-21.5 -1v86q0 16 -22 19q-52 4 -177 4q-8 0 -9 -4l-41 -243q27 0 79.5 0.5t78.5 1.5q15 0 21 4.5t8 15.5l13 48h46q-6 -38 -17 -96q-2 -10 -5 -28.5t-5.5 -34.5t-5.5 -30
q-15 -1 -47 -1l5 50q2 13 -3 17.5t-21 4.5q-47 1 -156 1l-40 -241q-2 -13 6.5 -16.5t46.5 -3.5q123 0 157 8q13 2 23 20l44 91q21 -4 43 -13q-44 -129 -53 -154q-15 0 -124 0.5t-186 0.5q-21 0 -60 -0.5t-56 -0.5q6 32 9 47zM354 780q-85 -51 -121 -73q-15 17 -24 31
q40 29 132 97q12 1 37 1q15 -15 48.5 -49.5t47.5 -48.5q-13 -16 -29 -29q-26 21 -91 71z" />
    <glyph glyph-name="Edieresis" unicode="&#xcb;" horiz-adv-x="532" 
d="M9 46l68 3q4 0 6 4l91 548l-73 2q6 32 9 47h113h216h81q-13 -109 -19 -154q-7 -1 -22.5 -2t-21.5 -1v86q0 16 -22 19q-52 4 -177 4q-8 0 -9 -4l-41 -243q27 0 79.5 0.5t78.5 1.5q15 0 21 4.5t8 15.5l13 48h46q-6 -38 -17 -96q-2 -10 -5 -28.5t-5.5 -34.5t-5.5 -30
q-15 -1 -47 -1l5 50q2 13 -3 17.5t-21 4.5q-47 1 -156 1l-40 -241q-2 -13 6.5 -16.5t46.5 -3.5q123 0 157 8q13 2 23 20l44 91q21 -4 43 -13q-44 -129 -53 -154q-15 0 -124 0.5t-186 0.5q-21 0 -60 -0.5t-56 -0.5q6 32 9 47zM267 805h1q19 0 28.5 -12t9.5 -28
q0 -18 -12.5 -31.5t-31.5 -13.5q-17 0 -29 10.5t-12 26.5q0 19 12.5 33.5t33.5 14.5zM433 805h1q19 0 28.5 -12t9.5 -27q0 -19 -12 -32.5t-30 -13.5q-20 0 -31.5 11.5t-11.5 26.5q0 19 12 33t34 14z" />
    <glyph glyph-name="Igrave" unicode="&#xcc;" horiz-adv-x="312" 
d="M8 47l68 3q6 0 6 5l92 546l-77 3q1 8 4 23t5 23h121h112q-3 -21 -10 -46l-76 -3q-2 0 -4 -4l-94 -547l85 -3q-3 -20 -10 -47q-16 0 -55.5 0.5t-59.5 0.5q-19 0 -59 -0.5t-57 -0.5q2 7 4.5 23.5t4.5 23.5zM288 701q-15 8 -80 40.5l-97 48.5q19 33 34 54q16 -11 76 -51.5
t88 -58.5q-7 -16 -21 -33z" />
    <glyph glyph-name="Iacute" unicode="&#xcd;" horiz-adv-x="312" 
d="M8 47l68 3q6 0 6 5l92 546l-77 3q1 8 4 23t5 23h121h112q-3 -21 -10 -46l-76 -3q-2 0 -4 -4l-94 -547l85 -3q-3 -20 -10 -47q-16 0 -55.5 0.5t-59.5 0.5q-19 0 -59 -0.5t-57 -0.5q2 7 4.5 23.5t4.5 23.5zM328 843q17 -26 31 -55q-27 -13 -89.5 -43.5t-88.5 -43.5
q-13 19 -20 34q22 14 80.5 52t86.5 56z" />
    <glyph glyph-name="Icircumflex" unicode="&#xce;" horiz-adv-x="312" 
d="M8 47l68 3q6 0 6 5l92 546l-77 3q1 8 4 23t5 23h121h112q-3 -21 -10 -46l-76 -3q-2 0 -4 -4l-94 -547l85 -3q-3 -20 -10 -47q-16 0 -55.5 0.5t-59.5 0.5q-19 0 -59 -0.5t-57 -0.5q2 7 4.5 23.5t4.5 23.5zM238 780q-85 -51 -121 -73q-15 17 -24 31q40 29 132 97q12 1 37 1
q15 -15 48.5 -49.5t47.5 -48.5q-13 -16 -29 -29q-26 21 -91 71z" />
    <glyph glyph-name="Idieresis" unicode="&#xcf;" horiz-adv-x="312" 
d="M8 47l68 3q6 0 6 5l92 546l-77 3q1 8 4 23t5 23h121h112q-3 -21 -10 -46l-76 -3q-2 0 -4 -4l-94 -547l85 -3q-3 -20 -10 -47q-16 0 -55.5 0.5t-59.5 0.5q-19 0 -59 -0.5t-57 -0.5q2 7 4.5 23.5t4.5 23.5zM157 805h1q19 0 28.5 -12t9.5 -28q0 -18 -12.5 -31.5t-31.5 -13.5
q-17 0 -29 10.5t-12 26.5q0 19 12.5 33.5t33.5 14.5zM323 805h1q19 0 28.5 -12t9.5 -27q0 -19 -12 -32.5t-30 -13.5q-20 0 -31.5 11.5t-11.5 26.5q0 19 12 33t34 14z" />
    <glyph glyph-name="Eth" unicode="&#xd0;" horiz-adv-x="668" 
d="M175 601l-71 2q1 10 9 46q104 2 198 2q143 0 223 -56q52 -37 75.5 -95.5t23.5 -118.5q0 -99 -45 -185t-117 -136q-88 -61 -239 -61q-21 0 -64.5 0.5t-53.5 0.5q-17 0 -55.5 -0.5t-57.5 -0.5q5 26 8 47l66 2q7 0 8 7l41 246h-91q5 33 7 42q30 1 91 1zM197 301l-36 -218
q-4 -23 10 -30.5t69 -7.5q129 0 201 61q46 40 78 108t32 161q0 103 -55 163q-64 67 -188 67q-40 0 -57 -4l-46 -256q102 0 169 1q-3 -24 -9 -45h-168z" />
    <glyph glyph-name="Ntilde" unicode="&#xd1;" horiz-adv-x="697" 
d="M3 47l64 3q6 0 6 5l93 545l-74 3q2 8 5 23.5t4 23.5q21 0 69.5 -0.5t71.5 -0.5q10 -20 60.5 -123.5t108.5 -223.5t97 -200l6 1q15 94 42 264.5t37 233.5l-95 1q6 32 9 47h124q17 0 49 0.5t45 0.5q-2 -13 -8 -47l-61 -2q-3 -1 -4 -6l-102 -593q-20 -8 -53 -8
q-130 228 -277 549h-7q-14 -82 -41.5 -246.5t-41.5 -246.5l99 -2q-8 -45 -9 -47h-132q-17 0 -48.5 -0.5t-44.5 -0.5q1 7 3.5 23t4.5 24zM376 807h1q25 0 67 -27q29 -20 48 -20q15 0 26 12.5t14 31.5q20 2 38 0q-4 -36 -29 -66t-61 -30q-8 0 -17 3t-13 4.5t-16 9.5l-12 8
q-38 22 -56 22q-13 0 -26 -12t-17 -30q-18 -2 -37 0q5 36 32 65t58 29z" />
    <glyph glyph-name="Ograve" unicode="&#xd2;" horiz-adv-x="703" 
d="M669 394v-1q0 -102 -42.5 -190t-105.5 -140q-92 -73 -216 -73q-108 0 -176 68q-72 69 -72 197q0 105 46 195.5t112 140.5q88 69 210 69q104 0 169 -65q75 -74 75 -201zM139 254v-1q0 -98 47 -156q49 -58 137 -58q87 0 151 58q48 43 80.5 119.5t32.5 177.5q0 98 -45 156
q-45 61 -133 61q-91 0 -158 -63q-46 -43 -79 -118.5t-33 -175.5zM484 706q-15 8 -80 40.5l-97 48.5q19 33 34 54q16 -11 76 -51.5t88 -58.5q-7 -16 -21 -33z" />
    <glyph glyph-name="Oacute" unicode="&#xd3;" horiz-adv-x="703" 
d="M669 394v-1q0 -102 -42.5 -190t-105.5 -140q-92 -73 -216 -73q-108 0 -176 68q-72 69 -72 197q0 105 46 195.5t112 140.5q88 69 210 69q104 0 169 -65q75 -74 75 -201zM139 254v-1q0 -98 47 -156q49 -58 137 -58q87 0 151 58q48 43 80.5 119.5t32.5 177.5q0 98 -45 156
q-45 61 -133 61q-91 0 -158 -63q-46 -43 -79 -118.5t-33 -175.5zM520 848q17 -26 31 -55q-27 -13 -89.5 -43.5t-88.5 -43.5q-13 19 -20 34q22 14 80.5 52t86.5 56z" />
    <glyph glyph-name="Ocircumflex" unicode="&#xd4;" horiz-adv-x="703" 
d="M669 394v-1q0 -102 -42.5 -190t-105.5 -140q-92 -73 -216 -73q-108 0 -176 68q-72 69 -72 197q0 105 46 195.5t112 140.5q88 69 210 69q104 0 169 -65q75 -74 75 -201zM139 254v-1q0 -98 47 -156q49 -58 137 -58q87 0 151 58q48 43 80.5 119.5t32.5 177.5q0 98 -45 156
q-45 61 -133 61q-91 0 -158 -63q-46 -43 -79 -118.5t-33 -175.5zM440 780q-85 -51 -121 -73q-15 17 -24 31q40 29 132 97q12 1 37 1q15 -15 48.5 -49.5t47.5 -48.5q-13 -16 -29 -29q-26 21 -91 71z" />
    <glyph glyph-name="Otilde" unicode="&#xd5;" horiz-adv-x="703" 
d="M669 394v-1q0 -102 -42.5 -190t-105.5 -140q-92 -73 -216 -73q-108 0 -176 68q-72 69 -72 197q0 105 46 195.5t112 140.5q88 69 210 69q104 0 169 -65q75 -74 75 -201zM139 254v-1q0 -98 47 -156q49 -58 137 -58q87 0 151 58q48 43 80.5 119.5t32.5 177.5q0 98 -45 156
q-45 61 -133 61q-91 0 -158 -63q-46 -43 -79 -118.5t-33 -175.5zM375 812h1q25 0 67 -27q29 -20 48 -20q15 0 26 12.5t14 31.5q20 2 38 0q-4 -36 -29 -66t-61 -30q-8 0 -17 3t-13 4.5t-16 9.5l-12 8q-38 22 -56 22q-13 0 -26 -12t-17 -30q-18 -2 -37 0q5 36 32 65t58 29z
" />
    <glyph glyph-name="Odieresis" unicode="&#xd6;" horiz-adv-x="703" 
d="M669 394v-1q0 -102 -42.5 -190t-105.5 -140q-92 -73 -216 -73q-108 0 -176 68q-72 69 -72 197q0 105 46 195.5t112 140.5q88 69 210 69q104 0 169 -65q75 -74 75 -201zM139 254v-1q0 -98 47 -156q49 -58 137 -58q87 0 151 58q48 43 80.5 119.5t32.5 177.5q0 98 -45 156
q-45 61 -133 61q-91 0 -158 -63q-46 -43 -79 -118.5t-33 -175.5zM360 805h1q19 0 28.5 -12t9.5 -28q0 -18 -12.5 -31.5t-31.5 -13.5q-17 0 -29 10.5t-12 26.5q0 19 12.5 33.5t33.5 14.5zM526 805h1q19 0 28.5 -12t9.5 -27q0 -19 -12 -32.5t-30 -13.5q-20 0 -31.5 11.5
t-11.5 26.5q0 19 12 33t34 14z" />
    <glyph glyph-name="multiply" unicode="&#xd7;" horiz-adv-x="512" 
d="M292 231q108 -112 158 -163q-10 -12 -35 -35q-75 78 -160 163q-110 -110 -161 -162q-19 16 -35 35q137 140 158 162q-77 79 -150 150q17 20 39 40q43 -43 149 -151q98 100 151 154q21 -18 40 -40q-99 -97 -154 -153z" />
    <glyph glyph-name="Oslash" unicode="&#xd8;" horiz-adv-x="703" 
d="M423 660h1q87 0 145 -47q11 13 32 40t32 40q18 -12 40 -34q-10 -12 -66 -79q62 -72 62 -185q0 -93 -36.5 -180t-98.5 -142q-95 -83 -223 -83q-90 0 -149 45q-57 -66 -72 -83q-16 9 -38 27q14 16 75 86q-69 69 -69 191q0 114 51 206t122 141q82 57 192 57zM406 612h-1
q-86 0 -147 -58q-50 -46 -86 -121.5t-36 -179.5q0 -87 37 -139q91 114 190 240q119 149 169 211q-26 26 -53 36.5t-73 10.5zM328 38h1q88 0 151 63q111 109 111 296q0 88 -33 129q-17 -21 -75.5 -96t-85.5 -109q-105 -131 -195 -240q43 -43 126 -43z" />
    <glyph glyph-name="Ugrave" unicode="&#xd9;" horiz-adv-x="647" 
d="M678 603l-65 -3l-58 -335q-24 -140 -100 -212q-65 -63 -172 -63q-103 0 -155 58q-35 39 -42 95t7 120l57 338l-65 2q6 32 9 47h105h123q-3 -24 -9 -47l-82 -3q-4 0 -6 -6l-56 -325q-21 -121 13 -172q36 -54 111 -54q70 0 123 47q23 21 44.5 66.5t31.5 105.5
q53 320 55 334q0 4 -4 4l-83 2q7 39 9 47h116q18 0 52 0.5t48 0.5q-4 -33 -7 -47zM449 701q-15 8 -80 40.5l-97 48.5q19 33 34 54q16 -11 76 -51.5t88 -58.5q-7 -16 -21 -33z" />
    <glyph glyph-name="Uacute" unicode="&#xda;" horiz-adv-x="647" 
d="M678 603l-65 -3l-58 -335q-24 -140 -100 -212q-65 -63 -172 -63q-103 0 -155 58q-35 39 -42 95t7 120l57 338l-65 2q6 32 9 47h105h123q-3 -24 -9 -47l-82 -3q-4 0 -6 -6l-56 -325q-21 -121 13 -172q36 -54 111 -54q70 0 123 47q23 21 44.5 66.5t31.5 105.5
q53 320 55 334q0 4 -4 4l-83 2q7 39 9 47h116q18 0 52 0.5t48 0.5q-4 -33 -7 -47zM511 843q17 -26 31 -55q-27 -13 -89.5 -43.5t-88.5 -43.5q-13 19 -20 34q22 14 80.5 52t86.5 56z" />
    <glyph glyph-name="Ucircumflex" unicode="&#xdb;" horiz-adv-x="647" 
d="M678 603l-65 -3l-58 -335q-24 -140 -100 -212q-65 -63 -172 -63q-103 0 -155 58q-35 39 -42 95t7 120l57 338l-65 2q6 32 9 47h105h123q-3 -24 -9 -47l-82 -3q-4 0 -6 -6l-56 -325q-21 -121 13 -172q36 -54 111 -54q70 0 123 47q23 21 44.5 66.5t31.5 105.5
q53 320 55 334q0 4 -4 4l-83 2q7 39 9 47h116q18 0 52 0.5t48 0.5q-4 -33 -7 -47zM419 780q-85 -51 -121 -73q-15 17 -24 31q40 29 132 97q12 1 37 1q15 -15 48.5 -49.5t47.5 -48.5q-13 -16 -29 -29q-26 21 -91 71z" />
    <glyph glyph-name="Udieresis" unicode="&#xdc;" horiz-adv-x="647" 
d="M678 603l-65 -3l-58 -335q-24 -140 -100 -212q-65 -63 -172 -63q-103 0 -155 58q-35 39 -42 95t7 120l57 338l-65 2q6 32 9 47h105h123q-3 -24 -9 -47l-82 -3q-4 0 -6 -6l-56 -325q-21 -121 13 -172q36 -54 111 -54q70 0 123 47q23 21 44.5 66.5t31.5 105.5
q53 320 55 334q0 4 -4 4l-83 2q7 39 9 47h116q18 0 52 0.5t48 0.5q-4 -33 -7 -47zM336 805h1q19 0 28.5 -12t9.5 -28q0 -18 -12.5 -31.5t-31.5 -13.5q-17 0 -29 10.5t-12 26.5q0 19 12.5 33.5t33.5 14.5zM502 805h1q19 0 28.5 -12t9.5 -27q0 -19 -12 -32.5t-30 -13.5
q-20 0 -31.5 11.5t-11.5 26.5q0 19 12 33t34 14z" />
    <glyph glyph-name="Yacute" unicode="&#xdd;" horiz-adv-x="533" 
d="M106 47l75 3q7 0 7 6l33 196q-51 137 -126 345q-2 4 -6 4l-51 3q1 5 4 21.5t5 24.5h91q25 0 70 0.5t63 0.5q-4 -27 -9 -47l-86 -3q44 -134 97 -291h7q125 175 192 286q2 5 -3 5l-80 2q8 38 10 47h126q13 0 41.5 0.5t39.5 0.5q-1 -5 -4 -21.5t-5 -24.5l-48 -4
q-233 -322 -253 -349l-35 -202l90 -3q-4 -29 -9 -47q-17 0 -59.5 0.5t-63.5 0.5q-19 0 -61 -0.5t-62 -0.5q2 8 5 24t5 23zM458 843q17 -26 31 -55q-27 -13 -89.5 -43.5t-88.5 -43.5q-13 19 -20 34q22 14 80.5 52t86.5 56z" />
    <glyph glyph-name="Thorn" unicode="&#xde;" horiz-adv-x="527" 
d="M168 143l-16 -93l109 -3q-3 -25 -9 -46h-143q-17 0 -52 -0.5t-51 -0.5q1 5 4 21.5t5 24.5l61 3q5 2 5 6l91 546l-67 3q2 8 5 23t5 23h109h111q-1 -19 -9 -46l-76 -3q-4 0 -4 -5l-11 -68q5 0 16 0.5t16 0.5q88 0 140 -21q47 -18 71 -59t24 -88q0 -70 -39.5 -122t-93.5 -74
q-61 -25 -148 -25q-29 0 -53 3zM226 482l-49 -286q4 -9 52 -9q72 0 111 21q85 42 85 149q0 58 -37 93t-112 35q-44 0 -50 -3z" />
    <glyph glyph-name="germandbls" unicode="&#xdf;" horiz-adv-x="546" 
d="M37 413l78 4q5 0 5 7q12 69 31 112t55 77q66 63 144 63q65 0 101 -45q44 -54 30 -161q-12 -10 -43 -28.5t-45 -28.5q-58 -39 -58 -83q0 -23 14 -37.5t51 -34.5q50 -26 74 -53.5t24 -67.5q0 -74 -64 -116q-48 -31 -123 -31q-61 0 -97 17q1 20 3.5 60.5t3.5 61.5q13 2 44 2
l7 -72q0 -8 6 -11q21 -12 53 -12q43 0 68 19q30 24 30 66q0 28 -15.5 46t-51.5 37q-50 26 -73 49.5t-23 64.5q0 60 82 118q53 36 67 54q7 71 -21 105q-25 28 -63 28q-46 0 -82 -38q-38 -43 -66 -194q-43 -246 -101 -552q-22 -1 -67 -1q15 86 47.5 263.5t48.5 265.5h-81
q1 8 3.5 24t3.5 22z" />
    <glyph glyph-name="agrave" unicode="&#xe0;" horiz-adv-x="461" 
d="M292 117l-7 3q-63 -70 -111.5 -101t-77.5 -31q-18 3 -38.5 17.5t-31.5 34.5q-9 18 -9 40q0 64 31 150q28 76 80 137.5t117 61.5q55 0 98 -48h6l22 52q33 -9 55 -16q-56 -196 -93 -371q0 -5 5 -5q12 0 68 17q6 -22 9 -42q-70 -25 -122 -25q-4 0 -14 8t-13 16q13 56 26 102
zM245 376h-1q-34 0 -64.5 -35.5t-51.5 -85.5q-37 -91 -37 -164q0 -21 9 -32.5t23 -11.5q34 0 98.5 60t78.5 100q15 42 31 120q-32 49 -86 49zM227 637q36 -33 138 -133l-27 -30q-139 109 -153 120q13 16 42 43z" />
    <glyph glyph-name="aacute" unicode="&#xe1;" horiz-adv-x="461" 
d="M292 117l-7 3q-63 -70 -111.5 -101t-77.5 -31q-18 3 -38.5 17.5t-31.5 34.5q-9 18 -9 40q0 64 31 150q28 76 80 137.5t117 61.5q55 0 98 -48h6l22 52q33 -9 55 -16q-56 -196 -93 -371q0 -5 5 -5q12 0 68 17q6 -22 9 -42q-70 -25 -122 -25q-4 0 -14 8t-13 16q13 56 26 102
zM245 376h-1q-34 0 -64.5 -35.5t-51.5 -85.5q-37 -91 -37 -164q0 -21 9 -32.5t23 -11.5q34 0 98.5 60t78.5 100q15 42 31 120q-32 49 -86 49zM395 632q15 -15 37 -47q-6 -4 -68 -47t-92 -63q-2 2 -25 31q28 23 81.5 69t66.5 57z" />
    <glyph glyph-name="acircumflex" unicode="&#xe2;" horiz-adv-x="461" 
d="M292 117l-7 3q-63 -70 -111.5 -101t-77.5 -31q-18 3 -38.5 17.5t-31.5 34.5q-9 18 -9 40q0 64 31 150q28 76 80 137.5t117 61.5q55 0 98 -48h6l22 52q33 -9 55 -16q-56 -196 -93 -371q0 -5 5 -5q12 0 68 17q6 -22 9 -42q-70 -25 -122 -25q-4 0 -14 8t-13 16q13 56 26 102
zM245 376h-1q-34 0 -64.5 -35.5t-51.5 -85.5q-37 -91 -37 -164q0 -21 9 -32.5t23 -11.5q34 0 98.5 60t78.5 100q15 42 31 120q-32 49 -86 49zM298 561q-15 -13 -51.5 -43.5t-52.5 -43.5q-10 8 -26 27q20 20 60.5 60t57.5 57h38q13 -19 41.5 -62.5t37.5 -56.5
q-12 -11 -31 -24q-48 57 -74 86z" />
    <glyph glyph-name="atilde" unicode="&#xe3;" horiz-adv-x="461" 
d="M292 117l-7 3q-63 -70 -111.5 -101t-77.5 -31q-18 3 -38.5 17.5t-31.5 34.5q-9 18 -9 40q0 64 31 150q28 76 80 137.5t117 61.5q55 0 98 -48h6l22 52q33 -9 55 -16q-56 -196 -93 -371q0 -5 5 -5q12 0 68 17q6 -22 9 -42q-70 -25 -122 -25q-4 0 -14 8t-13 16q13 56 26 102
zM245 376h-1q-34 0 -64.5 -35.5t-51.5 -85.5q-37 -91 -37 -164q0 -21 9 -32.5t23 -11.5q34 0 98.5 60t78.5 100q15 42 31 120q-32 49 -86 49zM253 595h1q9 0 18.5 -4t14.5 -7t16 -11.5t13 -9.5q28 -22 41 -22q25 0 36 52h36q-6 -45 -27 -74.5t-53 -29.5q-19 0 -56 28
q-34 28 -47 28q-24 0 -39 -49h-37q8 45 31 72.5t52 26.5z" />
    <glyph glyph-name="adieresis" unicode="&#xe4;" horiz-adv-x="461" 
d="M292 117l-7 3q-63 -70 -111.5 -101t-77.5 -31q-18 3 -38.5 17.5t-31.5 34.5q-9 18 -9 40q0 64 31 150q28 76 80 137.5t117 61.5q55 0 98 -48h6l22 52q33 -9 55 -16q-56 -196 -93 -371q0 -5 5 -5q12 0 68 17q6 -22 9 -42q-70 -25 -122 -25q-4 0 -14 8t-13 16q13 56 26 102
zM245 376h-1q-34 0 -64.5 -35.5t-51.5 -85.5q-37 -91 -37 -164q0 -21 9 -32.5t23 -11.5q34 0 98.5 60t78.5 100q15 42 31 120q-32 49 -86 49zM219 579h1q19 0 28.5 -12t9.5 -27q0 -18 -12.5 -32t-30.5 -14q-19 0 -30.5 10.5t-11.5 27.5t12.5 32t33.5 15zM374 579h1
q17 0 28 -12.5t11 -26.5q0 -18 -12 -32t-33 -14q-18 0 -29 12t-11 26q0 18 12 32.5t33 14.5z" />
    <glyph glyph-name="aring" unicode="&#xe5;" horiz-adv-x="461" 
d="M292 117l-7 3q-63 -70 -111.5 -101t-77.5 -31q-18 3 -38.5 17.5t-31.5 34.5q-9 18 -9 40q0 64 31 150q28 76 80 137.5t117 61.5q55 0 98 -48h6l22 52q33 -9 55 -16q-56 -196 -93 -371q0 -5 5 -5q12 0 68 17q6 -22 9 -42q-70 -25 -122 -25q-4 0 -14 8t-13 16q13 56 26 102
zM245 376h-1q-34 0 -64.5 -35.5t-51.5 -85.5q-37 -91 -37 -164q0 -21 9 -32.5t23 -11.5q34 0 98.5 60t78.5 100q15 42 31 120q-32 49 -86 49zM311 651h1q36 0 59 -20.5t23 -51.5q0 -40 -30.5 -67t-72.5 -27q-35 0 -60 20.5t-25 53.5q0 40 30.5 66t74.5 26zM307 617h-1
q-22 0 -37.5 -15t-15.5 -40q0 -18 12.5 -30.5t29.5 -12.5q21 0 36.5 15t15.5 42q0 19 -11.5 30t-28.5 11z" />
    <glyph glyph-name="ae" unicode="&#xe6;" horiz-adv-x="660" 
d="M369 357h6q64 72 152 72q45 0 74.5 -31t30.5 -71q-2 -25 -17 -52t-34 -40q-72 -40 -215 -40q-13 -45 -13 -78q0 -35 18 -54t51 -19q60 0 157 53q6 -13 16 -39q-116 -68 -200 -68q-44 0 -74 27t-34 69q-1 8 -1 27l-4 2q-48 -55 -99 -90.5t-86 -36.5q-17 2 -38.5 17.5
t-31.5 35.5q-9 17 -9 38q0 65 33 154q27 75 78.5 135.5t116.5 60.5q69 0 123 -72zM503 381h-1q-49 0 -81 -44q-30 -39 -47 -99q95 -2 144 25q41 19 41 55q0 26 -15 44.5t-41 18.5zM92 90v-1q0 -19 9 -30.5t22 -11.5q35 0 95 56t78 97q21 70 44 116q-33 60 -92 60
q-67 0 -120 -125q-36 -86 -36 -161z" />
    <glyph glyph-name="ccedilla" unicode="&#xe7;" horiz-adv-x="360" 
d="M84 -68l63 60q-3 -1 -7 -1q-43 0 -81 34.5t-38 95.5q0 52 23 117t68 114q38 41 77.5 59t91.5 18q48 0 71 -19q-2 -14 -16.5 -35.5t-24.5 -26.5q-42 24 -73 24q-44 0 -77 -43q-27 -35 -45.5 -90.5t-18.5 -104.5q0 -90 76 -90q45 0 123 34q4 -9 13 -39q-56 -28 -100 -39
l-64 -60q24 -4 38.5 -20.5t14.5 -37.5q0 -39 -38 -63.5t-98 -26.5l1 35q35 2 56 14.5t21 33.5q0 35 -50 37q-2 4 -4 11t-2 9z" />
    <glyph glyph-name="egrave" unicode="&#xe8;" horiz-adv-x="404" 
d="M22 108v1q0 51 24.5 120.5t70.5 121.5q70 78 150 78q50 0 79 -32.5t30 -73.5q-4 -26 -19 -52.5t-36 -37.5q-72 -38 -211 -38q-13 -45 -13 -77q0 -35 18 -54.5t50 -19.5q64 0 158 53q6 -13 16 -39q-111 -68 -200 -68q-44 0 -80.5 31.5t-36.5 86.5zM247 381h-1
q-42 0 -77 -43q-33 -43 -49 -100q89 -2 142 25q41 18 41 54q0 26 -14.5 45t-41.5 19zM205 636q36 -34 138 -133l-27 -30q-139 109 -153 120q13 16 42 43z" />
    <glyph glyph-name="eacute" unicode="&#xe9;" horiz-adv-x="404" 
d="M22 108v1q0 51 24.5 120.5t70.5 121.5q70 78 150 78q50 0 79 -32.5t30 -73.5q-4 -26 -19 -52.5t-36 -37.5q-72 -38 -211 -38q-13 -45 -13 -77q0 -35 18 -54.5t50 -19.5q64 0 158 53q6 -13 16 -39q-111 -68 -200 -68q-44 0 -80.5 31.5t-36.5 86.5zM247 381h-1
q-42 0 -77 -43q-33 -43 -49 -100q89 -2 142 25q41 18 41 54q0 26 -14.5 45t-41.5 19zM359 631q15 -15 37 -47q-6 -4 -68 -47t-92 -63q-2 2 -25 31q28 23 81.5 69t66.5 57z" />
    <glyph glyph-name="ecircumflex" unicode="&#xea;" horiz-adv-x="404" 
d="M22 108v1q0 51 24.5 120.5t70.5 121.5q70 78 150 78q50 0 79 -32.5t30 -73.5q-4 -26 -19 -52.5t-36 -37.5q-72 -38 -211 -38q-13 -45 -13 -77q0 -35 18 -54.5t50 -19.5q64 0 158 53q6 -13 16 -39q-111 -68 -200 -68q-44 0 -80.5 31.5t-36.5 86.5zM247 381h-1
q-42 0 -77 -43q-33 -43 -49 -100q89 -2 142 25q41 18 41 54q0 26 -14.5 45t-41.5 19zM280 560q-15 -13 -51.5 -43.5t-52.5 -43.5q-10 8 -26 27q20 20 60.5 60t57.5 57h38q13 -19 41.5 -62.5t37.5 -56.5q-12 -11 -31 -24q-48 57 -74 86z" />
    <glyph glyph-name="edieresis" unicode="&#xeb;" horiz-adv-x="404" 
d="M22 108v1q0 51 24.5 120.5t70.5 121.5q70 78 150 78q50 0 79 -32.5t30 -73.5q-4 -26 -19 -52.5t-36 -37.5q-72 -38 -211 -38q-13 -45 -13 -77q0 -35 18 -54.5t50 -19.5q64 0 158 53q6 -13 16 -39q-111 -68 -200 -68q-44 0 -80.5 31.5t-36.5 86.5zM247 381h-1
q-42 0 -77 -43q-33 -43 -49 -100q89 -2 142 25q41 18 41 54q0 26 -14.5 45t-41.5 19zM204 577h1q19 0 28.5 -12t9.5 -27q0 -18 -12.5 -32t-30.5 -14q-19 0 -30.5 10.5t-11.5 27.5t12.5 32t33.5 15zM359 577h1q17 0 28 -12.5t11 -26.5q0 -18 -12 -32t-33 -14q-18 0 -29 12
t-11 26q0 18 12 32.5t33 14.5z" />
    <glyph glyph-name="igrave" unicode="&#xec;" horiz-adv-x="251" 
d="M119 367l-85 -5q-2 28 -2 42q34 5 67.5 11t51 10t20.5 4q4 0 13.5 -9t13.5 -16q-10 -43 -28.5 -119t-36.5 -152t-21 -87q-2 -7 4 -7q16 0 75 16q5 -16 8 -42q-69 -22 -125 -22q-5 0 -18 10.5t-17 20.5q64 277 80 345zM91 637q36 -33 138 -133l-27 -30q-139 109 -153 120
q13 16 42 43z" />
    <glyph glyph-name="iacute" unicode="&#xed;" horiz-adv-x="251" 
d="M119 367l-85 -5q-2 28 -2 42q34 5 67.5 11t51 10t20.5 4q4 0 13.5 -9t13.5 -16q-10 -43 -28.5 -119t-36.5 -152t-21 -87q-2 -7 4 -7q16 0 75 16q5 -16 8 -42q-69 -22 -125 -22q-5 0 -18 10.5t-17 20.5q64 277 80 345zM263 632q15 -15 37 -47q-6 -4 -68 -47t-92 -63
q-2 2 -25 31q28 23 81.5 69t66.5 57z" />
    <glyph glyph-name="icircumflex" unicode="&#xee;" horiz-adv-x="251" 
d="M119 367l-85 -5q-2 28 -2 42q34 5 67.5 11t51 10t20.5 4q4 0 13.5 -9t13.5 -16q-10 -43 -28.5 -119t-36.5 -152t-21 -87q-2 -7 4 -7q16 0 75 16q5 -16 8 -42q-69 -22 -125 -22q-5 0 -18 10.5t-17 20.5q64 277 80 345zM176 561q-15 -13 -51.5 -43.5t-52.5 -43.5
q-10 8 -26 27q20 20 60.5 60t57.5 57h38q13 -19 41.5 -62.5t37.5 -56.5q-12 -11 -31 -24q-48 57 -74 86z" />
    <glyph glyph-name="idieresis" unicode="&#xef;" horiz-adv-x="251" 
d="M119 367l-85 -5q-2 28 -2 42q34 5 67.5 11t51 10t20.5 4q4 0 13.5 -9t13.5 -16q-10 -43 -28.5 -119t-36.5 -152t-21 -87q-2 -7 4 -7q16 0 75 16q5 -16 8 -42q-69 -22 -125 -22q-5 0 -18 10.5t-17 20.5q64 277 80 345zM91 579h1q19 0 28.5 -12t9.5 -27q0 -18 -12.5 -32
t-30.5 -14q-19 0 -30.5 10.5t-11.5 27.5t12.5 32t33.5 15zM246 579h1q17 0 28 -12.5t11 -26.5q0 -18 -12 -32t-33 -14q-18 0 -29 12t-11 26q0 18 12 32.5t33 14.5z" />
    <glyph glyph-name="eth" unicode="&#xf0;" horiz-adv-x="432" 
d="M23 130v1q0 68 27.5 132t70.5 103q56 52 124 52q48 0 79 -33l5 2q-13 98 -51 156q-125 -56 -133 -60q-10 19 -19 40q92 42 129 57q-51 63 -127 80q5 16 17 41q51 -8 94 -35.5t69 -61.5q103 48 116 53q11 -22 18 -43q-16 -8 -52.5 -23.5t-54.5 -24.5q28 -41 43.5 -102
t15.5 -119q0 -201 -99 -299q-58 -56 -138 -56q-68 0 -103 43q-31 38 -31 97zM99 134v-1q0 -46 16 -72q19 -28 55 -28q47 0 85 48q27 35 46.5 95t19.5 120q0 32 -12 48q-23 30 -66 30q-47 0 -90 -55q-18 -22 -36 -75.5t-18 -109.5z" />
    <glyph glyph-name="ntilde" unicode="&#xf1;" horiz-adv-x="510" 
d="M120 366l-79 -7q-2 30 -2 42q28 5 59 12t48.5 11.5t20.5 4.5q5 0 13.5 -6.5t12.5 -13.5q-9 -42 -27 -109l7 -2q55 65 111.5 97.5t94.5 33.5q43 -7 65 -51q6 -12 6 -31q0 -74 -80 -300q-2 -7 4 -7q15 0 72 16q4 -21 6 -42q-62 -23 -129 -23q-5 0 -15 9.5t-13 20.5
q40 121 62 206q19 76 19 101q0 36 -31 36q-45 0 -113 -60.5t-80 -106.5q-6 -21 -26 -103t-23 -93q-23 -1 -69 -1q52 216 86 366zM270 592h1q9 0 18.5 -4t14.5 -7t16 -11.5t13 -9.5q27 -22 41 -22q25 0 36 52h36q-6 -45 -27 -74.5t-53 -29.5q-19 0 -56 28q-34 28 -47 28
q-24 0 -39 -49h-37q8 45 31 72.5t52 26.5z" />
    <glyph glyph-name="ograve" unicode="&#xf2;" horiz-adv-x="439" 
d="M397 282v-1q0 -64 -26 -126.5t-75 -109.5q-58 -55 -142 -55q-66 0 -101 43q-29 37 -29 92q0 72 28 138t74 110q60 56 140 56q59 0 93 -37q38 -40 38 -110zM172 34h1q48 0 87 47q26 32 43.5 89t17.5 109q0 49 -16 75q-18 30 -55 30q-52 0 -93 -55q-22 -30 -39.5 -84
t-17.5 -111q0 -47 16 -72q16 -28 56 -28zM210 636q36 -34 138 -133l-27 -30q-139 109 -153 120q13 16 42 43z" />
    <glyph glyph-name="oacute" unicode="&#xf3;" horiz-adv-x="439" 
d="M397 282v-1q0 -64 -26 -126.5t-75 -109.5q-58 -55 -142 -55q-66 0 -101 43q-29 37 -29 92q0 72 28 138t74 110q60 56 140 56q59 0 93 -37q38 -40 38 -110zM172 34h1q48 0 87 47q26 32 43.5 89t17.5 109q0 49 -16 75q-18 30 -55 30q-52 0 -93 -55q-22 -30 -39.5 -84
t-17.5 -111q0 -47 16 -72q16 -28 56 -28zM365 631q15 -15 37 -47q-6 -4 -68 -47t-92 -63q-2 2 -25 31q28 23 81.5 69t66.5 57z" />
    <glyph glyph-name="ocircumflex" unicode="&#xf4;" horiz-adv-x="439" 
d="M397 282v-1q0 -64 -26 -126.5t-75 -109.5q-58 -55 -142 -55q-66 0 -101 43q-29 37 -29 92q0 72 28 138t74 110q60 56 140 56q59 0 93 -37q38 -40 38 -110zM172 34h1q48 0 87 47q26 32 43.5 89t17.5 109q0 49 -16 75q-18 30 -55 30q-52 0 -93 -55q-22 -30 -39.5 -84
t-17.5 -111q0 -47 16 -72q16 -28 56 -28zM277 560q-15 -13 -51.5 -43.5t-52.5 -43.5q-10 8 -26 27q20 20 60.5 60t57.5 57h38q13 -19 41.5 -62.5t37.5 -56.5q-12 -11 -31 -24q-48 57 -74 86z" />
    <glyph glyph-name="otilde" unicode="&#xf5;" horiz-adv-x="439" 
d="M397 282v-1q0 -64 -26 -126.5t-75 -109.5q-58 -55 -142 -55q-66 0 -101 43q-29 37 -29 92q0 72 28 138t74 110q60 56 140 56q59 0 93 -37q38 -40 38 -110zM172 34h1q48 0 87 47q26 32 43.5 89t17.5 109q0 49 -16 75q-18 30 -55 30q-52 0 -93 -55q-22 -30 -39.5 -84
t-17.5 -111q0 -47 16 -72q16 -28 56 -28zM238 593h1q9 0 18.5 -4t14.5 -7t16 -11.5t13 -9.5q27 -22 41 -22q25 0 36 52h36q-6 -45 -27 -74.5t-53 -29.5q-19 0 -56 28q-34 28 -47 28q-24 0 -39 -49h-37q8 45 31 72.5t52 26.5z" />
    <glyph glyph-name="odieresis" unicode="&#xf6;" horiz-adv-x="439" 
d="M397 282v-1q0 -64 -26 -126.5t-75 -109.5q-58 -55 -142 -55q-66 0 -101 43q-29 37 -29 92q0 72 28 138t74 110q60 56 140 56q59 0 93 -37q38 -40 38 -110zM172 34h1q48 0 87 47q26 32 43.5 89t17.5 109q0 49 -16 75q-18 30 -55 30q-52 0 -93 -55q-22 -30 -39.5 -84
t-17.5 -111q0 -47 16 -72q16 -28 56 -28zM212 577h1q19 0 28.5 -12t9.5 -27q0 -18 -12.5 -32t-30.5 -14q-19 0 -30.5 10.5t-11.5 27.5t12.5 32t33.5 15zM367 577h1q17 0 28 -12.5t11 -26.5q0 -18 -12 -32t-33 -14q-18 0 -29 12t-11 26q0 18 12 32.5t33 14.5z" />
    <glyph glyph-name="divide" unicode="&#xf7;" horiz-adv-x="512" 
d="M253 426h1q20 0 32.5 -14t12.5 -34q0 -19 -12.5 -34.5t-32.5 -15.5q-24 0 -36.5 15t-12.5 34q0 20 13 34.5t35 14.5zM453 266q0 -30 -3 -55h-397q0 20 2 52q65 1 203 2t195 1zM252 147h1q20 0 33 -14.5t13 -34.5q-1 -19 -13 -34t-32 -15q-24 0 -36.5 14.5t-12.5 34.5
t13 34.5t34 14.5z" />
    <glyph glyph-name="oslash" unicode="&#xf8;" horiz-adv-x="439" 
d="M265 429h1q52 0 79 -29q9 10 25.5 29t23.5 27q17 -13 32 -31q-19 -22 -51 -59q22 -35 22 -87q0 -61 -26 -124t-74 -110q-58 -55 -134 -55q-55 0 -90 30q-36 -38 -54 -56q-20 16 -30 27l57 60q-22 35 -22 81q0 69 28 133t75 109q58 55 138 55zM250 384h-1q-52 0 -94 -57
q-22 -28 -41 -79t-19 -101q0 -27 3 -47q71 86 211 254q-16 30 -59 30zM175 34h1q49 0 88 49q27 31 45 81t18 103q0 22 -2 48q-72 -85 -214 -251q19 -30 64 -30z" />
    <glyph glyph-name="ugrave" unicode="&#xf9;" horiz-adv-x="487" 
d="M116 367l-75 -8q-2 28 -4 42q30 6 63 13t51 11t20 4q5 0 14 -9t11 -17q-39 -121 -61 -223q-15 -66 -15 -94q0 -18 9 -27.5t22 -9.5q36 0 100 61.5t75 100.5q13 44 46 207q24 1 70 1q-67 -305 -80 -371q-2 -6 4 -6q21 0 72 16q6 -22 9 -41q-65 -26 -123 -26q-4 0 -13.5 9
t-14.5 18q10 51 20 97l-6 2q-116 -127 -185 -129q-38 6 -64 42q-12 16 -12 43q0 71 67 294zM218 637q36 -33 138 -133l-27 -30q-139 109 -153 120q13 16 42 43z" />
    <glyph glyph-name="uacute" unicode="&#xfa;" horiz-adv-x="487" 
d="M116 367l-75 -8q-2 28 -4 42q30 6 63 13t51 11t20 4q5 0 14 -9t11 -17q-39 -121 -61 -223q-15 -66 -15 -94q0 -18 9 -27.5t22 -9.5q36 0 100 61.5t75 100.5q13 44 46 207q24 1 70 1q-67 -305 -80 -371q-2 -6 4 -6q21 0 72 16q6 -22 9 -41q-65 -26 -123 -26q-4 0 -13.5 9
t-14.5 18q10 51 20 97l-6 2q-116 -127 -185 -129q-38 6 -64 42q-12 16 -12 43q0 71 67 294zM402 632q15 -15 37 -47q-6 -4 -68 -47t-92 -63q-2 2 -25 31q28 23 81.5 69t66.5 57z" />
    <glyph glyph-name="ucircumflex" unicode="&#xfb;" horiz-adv-x="487" 
d="M116 367l-75 -8q-2 28 -4 42q30 6 63 13t51 11t20 4q5 0 14 -9t11 -17q-39 -121 -61 -223q-15 -66 -15 -94q0 -18 9 -27.5t22 -9.5q36 0 100 61.5t75 100.5q13 44 46 207q24 1 70 1q-67 -305 -80 -371q-2 -6 4 -6q21 0 72 16q6 -22 9 -41q-65 -26 -123 -26q-4 0 -13.5 9
t-14.5 18q10 51 20 97l-6 2q-116 -127 -185 -129q-38 6 -64 42q-12 16 -12 43q0 71 67 294zM313 561q-15 -13 -51.5 -43.5t-52.5 -43.5q-10 8 -26 27q20 20 60.5 60t57.5 57h38q13 -19 41.5 -62.5t37.5 -56.5q-12 -11 -31 -24q-48 57 -74 86z" />
    <glyph glyph-name="udieresis" unicode="&#xfc;" horiz-adv-x="487" 
d="M116 367l-75 -8q-2 28 -4 42q30 6 63 13t51 11t20 4q5 0 14 -9t11 -17q-39 -121 -61 -223q-15 -66 -15 -94q0 -18 9 -27.5t22 -9.5q36 0 100 61.5t75 100.5q13 44 46 207q24 1 70 1q-67 -305 -80 -371q-2 -6 4 -6q21 0 72 16q6 -22 9 -41q-65 -26 -123 -26q-4 0 -13.5 9
t-14.5 18q10 51 20 97l-6 2q-116 -127 -185 -129q-38 6 -64 42q-12 16 -12 43q0 71 67 294zM228 579h1q19 0 28.5 -12t9.5 -27q0 -18 -12.5 -32t-30.5 -14q-19 0 -30.5 10.5t-11.5 27.5t12.5 32t33.5 15zM383 579h1q17 0 28 -12.5t11 -26.5q0 -18 -12 -32t-33 -14
q-18 0 -29 12t-11 26q0 18 12 32.5t33 14.5z" />
    <glyph glyph-name="yacute" unicode="&#xfd;" horiz-adv-x="430" 
d="M86 366l-77 -14q-5 23 -6 42q27 7 58 16.5t46 14t18 4.5q11 0 30 -21q11 -127 38 -383h6q46 74 72 129q69 148 69 211q0 9 -9 8l-59 -5q-1 6 -1.5 13t-1 15.5t-0.5 13.5q20 3 47 8t43.5 8t20.5 3q5 0 18 -13.5t13 -18.5q0 -46 -31 -124.5t-68 -147.5q-84 -154 -207 -285
q-33 -36 -64 -60.5t-39 -24.5q-13 0 -32 17t-21 32q54 27 103 66q57 47 86 90q-25 155 -52 406zM356 632q15 -15 37 -47q-6 -4 -68 -47t-92 -63q-2 2 -25 31q28 23 81.5 69t66.5 57z" />
    <glyph glyph-name="thorn" unicode="&#xfe;" horiz-adv-x="470" 
d="M148 285l8 -2q111 147 202 148q23 -3 42.5 -20t28.5 -38q7 -14 7 -34q0 -124 -58 -227q-27 -50 -71.5 -86t-100.5 -36q-59 0 -100 38q-8 -44 -29 -147.5t-23 -114.5q-22 -1 -68 -1q94 487 151 792l-82 -4q-1 15 -1 43q39 5 70.5 10.5t45.5 9t16 3.5q5 0 14 -7.5t13 -14.5
q-56 -271 -65 -312zM362 320v1q0 47 -36 47q-43 0 -109.5 -68.5t-80.5 -116.5q-6 -19 -20 -98q32 -46 87 -46q38 0 68 26t47 63q44 91 44 192z" />
    <glyph glyph-name="ydieresis" unicode="&#xff;" horiz-adv-x="430" 
d="M86 366l-77 -14q-5 23 -6 42q27 7 58 16.5t46 14t18 4.5q11 0 30 -21q11 -127 38 -383h6q46 74 72 129q69 148 69 211q0 9 -9 8l-59 -5q-1 6 -1.5 13t-1 15.5t-0.5 13.5q20 3 47 8t43.5 8t20.5 3q5 0 18 -13.5t13 -18.5q0 -46 -31 -124.5t-68 -147.5q-84 -154 -207 -285
q-33 -36 -64 -60.5t-39 -24.5q-13 0 -32 17t-21 32q54 27 103 66q57 47 86 90q-25 155 -52 406zM190 579h1q19 0 28.5 -12t9.5 -27q0 -18 -12.5 -32t-30.5 -14q-19 0 -30.5 10.5t-11.5 27.5t12.5 32t33.5 15zM345 579h1q17 0 28 -12.5t11 -26.5q0 -18 -12 -32t-33 -14
q-18 0 -29 12t-11 26q0 18 12 32.5t33 14.5z" />
    <glyph glyph-name="Amacron" unicode="&#x100;" horiz-adv-x="585" 
d="M-48 46l53 4q4 0 8 5q54 96 170 310.5t159 291.5q9 2 52 2q20 -103 60.5 -325t52.5 -284l60 -3q-3 -25 -9 -46h-91q-23 0 -66 -0.5t-62 -0.5q2 13 8 47l79 3q4 0 4 6q-18 99 -26 142q0 4 -6 4l-241 -1q-25 -47 -77 -151l89 -3q-2 -18 -8 -46h-132q-15 0 -44 -0.5
t-42 -0.5q8 41 9 46zM345 549h-7q-15 -29 -70.5 -135t-83.5 -158q-3 -6 2 -6h210q-8 47 -25.5 149.5t-25.5 149.5zM485 787q-2 -18 -10 -51q-30 0 -103 0.5t-107 0.5q1 4 4 21.5t5 26.5q140 2 211 2z" />
    <glyph glyph-name="amacron" unicode="&#x101;" horiz-adv-x="461" 
d="M292 117l-7 3q-63 -70 -111.5 -101t-77.5 -31q-18 3 -38.5 17.5t-31.5 34.5q-9 18 -9 40q0 64 31 150q28 76 80 137.5t117 61.5q55 0 98 -48h6l22 52q33 -9 55 -16q-56 -196 -93 -371q0 -5 5 -5q12 0 68 17q6 -22 9 -42q-70 -25 -122 -25q-4 0 -14 8t-13 16q13 56 26 102
zM245 376h-1q-34 0 -64.5 -35.5t-51.5 -85.5q-37 -91 -37 -164q0 -21 9 -32.5t23 -11.5q34 0 98.5 60t78.5 100q15 42 31 120q-32 49 -86 49zM404 554q-3 -26 -9 -48q-29 0 -98.5 0.5t-102.5 0.5q2 17 8 45q136 2 202 2z" />
    <glyph glyph-name="Abreve" unicode="&#x102;" horiz-adv-x="585" 
d="M-48 46l53 4q4 0 8 5q54 96 170 310.5t159 291.5q9 2 52 2q20 -103 60.5 -325t52.5 -284l60 -3q-3 -25 -9 -46h-91q-23 0 -66 -0.5t-62 -0.5q2 13 8 47l79 3q4 0 4 6q-18 99 -26 142q0 4 -6 4l-241 -1q-25 -47 -77 -151l89 -3q-2 -18 -8 -46h-132q-15 0 -44 -0.5
t-42 -0.5q8 41 9 46zM345 549h-7q-15 -29 -70.5 -135t-83.5 -158q-3 -6 2 -6h210q-8 47 -25.5 149.5t-25.5 149.5zM457 834q27 -4 46 -9q-13 -40 -49.5 -69t-87.5 -29q-46 0 -74.5 29t-33.5 69q20 7 45 12q19 -56 70 -56q56 0 84 53z" />
    <glyph glyph-name="abreve" unicode="&#x103;" horiz-adv-x="461" 
d="M292 117l-7 3q-63 -70 -111.5 -101t-77.5 -31q-18 3 -38.5 17.5t-31.5 34.5q-9 18 -9 40q0 64 31 150q28 76 80 137.5t117 61.5q55 0 98 -48h6l22 52q33 -9 55 -16q-56 -196 -93 -371q0 -5 5 -5q12 0 68 17q6 -22 9 -42q-70 -25 -122 -25q-4 0 -14 8t-13 16q13 56 26 102
zM245 376h-1q-34 0 -64.5 -35.5t-51.5 -85.5q-37 -91 -37 -164q0 -21 9 -32.5t23 -11.5q34 0 98.5 60t78.5 100q15 42 31 120q-32 49 -86 49zM303 487h-1q-41 0 -67 28.5t-30 66.5q25 10 39 12q17 -57 66 -57q52 0 78 54q26 -4 40 -9q-12 -38 -44.5 -66.5t-80.5 -28.5z" />
    <glyph glyph-name="Aogonek" unicode="&#x104;" horiz-adv-x="585" 
d="M345 549h-7q-15 -29 -70.5 -135t-83.5 -158q-3 -6 2 -6h210q-8 47 -25.5 149.5t-25.5 149.5zM442 -154l6 -35q-31 -17 -69 -17q-30 0 -54.5 18.5t-24.5 51.5q0 34 21.5 64.5t63.5 71.5h-46q2 18 8 46l79 3q6 0 4 6q-3 14 -8 44.5t-9.5 55t-8.5 43.5q0 4 -6 4l-241 -1
q-48 -94 -77 -152l89 -3q-2 -12 -8 -46h-132h-86q1 8 4.5 23t4.5 23l53 3q3 0 8 5q57 103 178.5 326.5t150.5 276.5q16 2 52 2q20 -105 62 -332.5t51 -277.5l60 -3q-3 -21 -9 -46h-93h-34q-67 -69 -67 -119q0 -19 11 -30.5t26 -11.5q22 0 41 7z" />
    <glyph glyph-name="aogonek" unicode="&#x105;" horiz-adv-x="461" 
d="M245 376h-1q-34 0 -64.5 -35.5t-51.5 -85.5q-37 -91 -37 -165q0 -21 9 -32t23 -11q34 0 98.5 60t78.5 100q14 37 31 120q-32 49 -86 49zM220 -121v1q0 51 73 113h-5q-15 8 -23 23q2 9 11.5 44.5t14.5 57.5l-6 2q-63 -70 -111.5 -101t-77.5 -31q-18 3 -38.5 17.5
t-31.5 34.5q-9 18 -9 40q0 64 31 150q28 76 80 137.5t116 61.5q56 0 99 -48h6l22 52q42 -12 55 -16q-51 -173 -93 -370q0 -6 5 -6q12 0 68 18q6 -21 9 -42q-9 -3 -37 -10.5t-43 -15.5q-22 -10 -38.5 -39.5t-16.5 -58.5q0 -19 12 -29t30 -10q20 0 42 8q4 -18 5 -33
q-38 -18 -71 -18q-29 0 -53.5 18.5t-24.5 49.5z" />
    <glyph glyph-name="Cacute" unicode="&#x106;" horiz-adv-x="572" 
d="M507 464l3 112q0 10 -4 13q-28 16 -82 16q-94 0 -161 -60q-61 -53 -93 -129t-32 -151q0 -96 38 -149q22 -31 61 -50.5t86 -19.5q64 0 176 38q4 -31 3 -50q-125 -44 -196 -44q-106 0 -176 65q-73 69 -73 196q0 104 49.5 194.5t122.5 143.5q96 71 225 71q87 0 125 -22
q-5 -49 -20 -172q-8 -1 -26 -1.5t-26 -0.5zM523 844q17 -26 31 -55q-27 -13 -89.5 -43.5t-88.5 -43.5q-13 19 -20 34q22 14 80.5 52t86.5 56z" />
    <glyph glyph-name="cacute" unicode="&#x107;" horiz-adv-x="360" 
d="M21 121v1q0 51 23 116t68 114q38 41 77.5 59t91.5 18q48 0 71 -19q-2 -14 -16.5 -35.5t-24.5 -26.5q-42 24 -73 24q-44 0 -77 -43q-27 -35 -45.5 -90.5t-18.5 -104.5q0 -90 76 -90q45 0 123 34q7 -16 12 -39q-96 -49 -160 -49q-50 0 -88.5 34.5t-38.5 96.5zM343 632
q15 -15 37 -47q-6 -4 -68 -47t-92 -63q-2 2 -25 31q28 23 81.5 69t66.5 57z" />
    <glyph glyph-name="Ccaron" unicode="&#x10c;" horiz-adv-x="572" 
d="M507 464l3 112q0 10 -4 13q-28 16 -82 16q-94 0 -161 -60q-61 -53 -93 -129t-32 -151q0 -96 38 -149q22 -31 61 -50.5t86 -19.5q64 0 176 38q4 -31 3 -50q-125 -44 -196 -44q-106 0 -176 65q-73 69 -73 196q0 104 49.5 194.5t122.5 143.5q96 71 225 71q87 0 125 -22
q-5 -49 -20 -172q-8 -1 -26 -1.5t-26 -0.5zM419 768q12 7 57 34t65 40q10 -10 21 -30q-84 -61 -134 -99q-23 0 -33 1q-34 34 -100 98q16 19 28 29q55 -41 96 -73z" />
    <glyph glyph-name="ccaron" unicode="&#x10d;" horiz-adv-x="360" 
d="M21 121v1q0 51 23 116t68 114q38 41 77.5 59t91.5 18q48 0 71 -19q-2 -14 -16.5 -35.5t-24.5 -26.5q-42 24 -73 24q-44 0 -77 -43q-27 -35 -45.5 -90.5t-18.5 -104.5q0 -90 76 -90q45 0 123 34q7 -16 12 -39q-96 -49 -160 -49q-50 0 -88.5 34.5t-38.5 96.5zM250 540
q22 17 66 54l43 37q15 -10 27 -26q-6 -6 -54.5 -53.5t-69.5 -67.5q-18 -2 -39 0q-4 7 -34 54.5t-46 72.5q12 10 31 21q12 -14 76 -92z" />
    <glyph glyph-name="Dcaron" unicode="&#x10e;" horiz-adv-x="668" 
d="M9 46l66 2q7 0 8 7l92 546l-71 2q1 10 9 46q104 2 198 2q144 0 223 -56q51 -37 75 -95.5t24 -120.5q0 -98 -44.5 -184t-116.5 -135q-89 -61 -240 -61q-21 0 -64.5 0.5t-53.5 0.5q-17 0 -55.5 -0.5t-57.5 -0.5q5 26 8 47zM251 601l-90 -518q-4 -23 10 -30.5t69 -7.5
q131 0 201 61q46 40 78 107.5t32 158.5q0 106 -55 166q-64 67 -188 67q-40 0 -57 -4zM397 768q12 7 57 34t65 40q10 -10 21 -30q-84 -61 -134 -99q-23 0 -33 1q-34 34 -100 98q16 19 28 29q55 -41 96 -73z" />
    <glyph glyph-name="dcaron" unicode="&#x10f;" horiz-adv-x="543" 
d="M303 120l-6 3q-54 -63 -107.5 -98.5t-88.5 -36.5q-19 2 -40.5 16.5t-33.5 35.5q-9 16 -9 40q0 67 32 153q30 78 82 137t120 59q58 0 100 -35h6q21 88 55 241l-89 -4q-1 9 -2 24.5t-1 17.5q37 5 72 11.5t53.5 11t20.5 4.5q11 0 26 -22q-8 -33 -39.5 -170t-68 -292
t-39.5 -169q0 -6 5 -6q18 0 63 16q6 -21 9 -42q-69 -24 -118 -24q-4 0 -14 8t-13 16q4 23 25 105zM128 47h1q39 0 107 64.5t80 104.5q4 14 15.5 65t12.5 56q-33 39 -90 39q-40 0 -73.5 -36.5t-54.5 -90.5q-35 -89 -35 -155q0 -24 11 -35.5t26 -11.5zM629 643v-1
q0 -45 -32 -84.5t-77 -62.5q-9 11 -21 28q65 42 65 82q0 25 -35 35q1 27 17 44t36 17q19 0 33 -17t14 -41z" />
    <glyph glyph-name="Dcroat" unicode="&#x110;" horiz-adv-x="668" 
d="M175 601l-71 2q1 10 9 46q104 2 198 2q143 0 223 -56q52 -37 75.5 -95.5t23.5 -118.5q0 -99 -45 -185t-117 -136q-88 -61 -239 -61q-21 0 -64.5 0.5t-53.5 0.5q-17 0 -55.5 -0.5t-57.5 -0.5q5 26 8 47l66 2q7 0 8 7l41 246h-91q5 33 7 42q30 1 91 1zM197 301l-36 -218
q-4 -23 10 -30.5t69 -7.5q129 0 201 61q46 40 78 108t32 161q0 103 -55 163q-64 67 -188 67q-40 0 -57 -4l-46 -256q102 0 169 1q-3 -24 -9 -45h-168z" />
    <glyph glyph-name="dcroat" unicode="&#x111;" horiz-adv-x="478" 
d="M412 635l-89 -4q-2 30 -2 42q36 5 71 11.5t53.5 11t21.5 4.5q11 0 26 -22q-2 -9 -12.5 -53.5t-18.5 -77.5h72q0 -19 -5 -41h-76q-87 -368 -107 -459q0 -6 5 -6q16 0 63 16q6 -28 8 -42q-68 -24 -117 -24q-4 0 -14.5 8t-13.5 16q2 10 26 105l-7 3q-54 -63 -107 -98.5
t-88 -36.5q-19 2 -40.5 16.5t-33.5 35.5q-9 16 -9 40q0 67 32 153q30 78 82 137t120 59q56 0 100 -35h6q15 64 26 112h-135q1 13 5 39q91 0 138 1q18 81 20 89zM128 46h1q39 0 107 64.5t80 105.5q16 63 27 121q-33 39 -89 39q-40 0 -73.5 -36.5t-54.5 -90.5
q-35 -91 -35 -156q0 -24 11 -35.5t26 -11.5z" />
    <glyph glyph-name="Emacron" unicode="&#x112;" horiz-adv-x="532" 
d="M9 46l68 3q4 0 6 4l91 548l-73 2q6 32 9 47h113h216h81q-13 -109 -19 -154q-7 -1 -22.5 -2t-21.5 -1v86q0 16 -22 19q-52 4 -177 4q-8 0 -9 -4l-41 -243q27 0 79.5 0.5t78.5 1.5q15 0 21 4.5t8 15.5l13 48h46q-6 -38 -17 -96q-2 -10 -5 -28.5t-5.5 -34.5t-5.5 -30
q-15 -1 -47 -1l5 50q2 13 -3 17.5t-21 4.5q-47 1 -156 1l-40 -241q-2 -13 6.5 -16.5t46.5 -3.5q123 0 157 8q13 2 23 20l44 91q21 -4 43 -13q-44 -129 -53 -154q-15 0 -124 0.5t-186 0.5q-21 0 -60 -0.5t-56 -0.5q6 32 9 47zM453 787q-2 -18 -10 -51q-30 0 -103 0.5
t-107 0.5q1 4 4 21.5t5 26.5q140 2 211 2z" />
    <glyph glyph-name="emacron" unicode="&#x113;" horiz-adv-x="404" 
d="M22 108v1q0 51 24.5 120.5t70.5 121.5q70 78 150 78q50 0 79 -32.5t30 -73.5q-4 -26 -19 -52.5t-36 -37.5q-72 -38 -211 -38q-13 -45 -13 -77q0 -35 18 -54.5t50 -19.5q64 0 158 53q6 -13 16 -39q-111 -68 -200 -68q-44 0 -80.5 31.5t-36.5 86.5zM247 381h-1
q-42 0 -77 -43q-33 -43 -49 -100q89 -2 142 25q41 18 41 54q0 26 -14.5 45t-41.5 19zM375 554q-3 -26 -9 -48q-29 0 -98.5 0.5t-102.5 0.5q3 17 8 45q136 2 202 2z" />
    <glyph glyph-name="Edotaccent" unicode="&#x116;" horiz-adv-x="532" 
d="M9 46l68 3q4 0 6 4l91 548l-73 2q6 32 9 47h113h216h81q-13 -109 -19 -154q-7 -1 -22.5 -2t-21.5 -1v86q0 16 -22 19q-52 4 -177 4q-8 0 -9 -4l-41 -243q27 0 79.5 0.5t78.5 1.5q15 0 21 4.5t8 15.5l13 48h46q-6 -38 -17 -96q-2 -10 -5 -28.5t-5.5 -34.5t-5.5 -30
q-15 -1 -47 -1l5 50q2 13 -3 17.5t-21 4.5q-47 1 -156 1l-40 -241q-2 -13 6.5 -16.5t46.5 -3.5q123 0 157 8q13 2 23 20l44 91q21 -4 43 -13q-44 -129 -53 -154q-15 0 -124 0.5t-186 0.5q-21 0 -60 -0.5t-56 -0.5q6 32 9 47zM349 820h1q20 0 31.5 -13.5t11.5 -31.5
q0 -21 -14 -36t-37 -15q-19 0 -32 12.5t-13 31.5q0 22 14.5 37t37.5 15z" />
    <glyph glyph-name="edotaccent" unicode="&#x117;" horiz-adv-x="404" 
d="M22 108v1q0 51 24.5 120.5t70.5 121.5q70 78 150 78q50 0 79 -32.5t30 -73.5q-4 -26 -19 -52.5t-36 -37.5q-72 -38 -211 -38q-13 -45 -13 -77q0 -35 18 -54.5t50 -19.5q64 0 158 53q6 -13 16 -39q-111 -68 -200 -68q-44 0 -80.5 31.5t-36.5 86.5zM247 381h-1
q-42 0 -77 -43q-33 -43 -49 -100q89 -2 142 25q41 18 41 54q0 26 -14.5 45t-41.5 19zM282 591h1q20 0 31 -12.5t11 -29.5q0 -20 -13.5 -35t-34.5 -15q-19 0 -31.5 12.5t-12.5 30.5q0 20 14 34.5t35 14.5z" />
    <glyph glyph-name="Eogonek" unicode="&#x118;" horiz-adv-x="532" 
d="M438 -155l6 -35q-31 -17 -70 -17q-30 0 -54 18.5t-24 51.5q0 57 84 137q-77 1 -264 1q-21 0 -60 -0.5t-56 -0.5q3 16 9 46l68 3q4 0 6 4l91 548l-73 2q3 16 9 46h113q33 0 110.5 0.5t105.5 0.5h81q-13 -109 -19 -154q-6 0 -13.5 -0.5t-17 -1.5t-14.5 -1l1 86q0 16 -22 19
q-52 4 -177 4q-8 0 -9 -4l-41 -243q27 0 79.5 0.5t78.5 1.5q24 0 29 20l13 48h46q-6 -38 -17 -96q-2 -10 -5 -28.5t-5.5 -34.5t-5.5 -30q-15 -1 -47 -1l5 50q1 13 -4 17.5t-20 4.5q-47 1 -156 1l-40 -240q-2 -13 6.5 -16.5t45.5 -3.5q124 0 158 8q14 3 23 20l43 90
q27 -5 44 -12q-36 -107 -54 -154q-65 -69 -65 -120q0 -19 11 -30.5t26 -11.5q22 0 41 7z" />
    <glyph glyph-name="eogonek" unicode="&#x119;" horiz-adv-x="404" 
d="M248 381h-1q-44 0 -77 -43q-31 -39 -50 -100q90 -2 143 25q40 18 40 54q0 26 -14 45t-41 19zM185 -83v1q0 42 47 90q-51 -18 -93 -18q-44 0 -80.5 31.5t-36.5 86.5q0 52 24.5 121.5t70.5 121.5q70 78 150 78q50 0 79 -32.5t30 -73.5q-4 -26 -19 -52.5t-36 -37.5
q-72 -38 -211 -38q-13 -45 -13 -77q0 -35 18 -54.5t50 -19.5q64 0 158 53q6 -13 16 -39q-30 -16 -39 -23q-22 -17 -38.5 -46.5t-16.5 -56.5q0 -40 42 -40q19 0 41 8q5 -17 5 -33q-36 -18 -70 -18q-29 0 -53.5 18.5t-24.5 49.5z" />
    <glyph glyph-name="Ecaron" unicode="&#x11a;" horiz-adv-x="532" 
d="M9 46l68 3q4 0 6 4l91 548l-73 2q6 32 9 47h113h216h81q-13 -109 -19 -154q-7 -1 -22.5 -2t-21.5 -1v86q0 16 -22 19q-52 4 -177 4q-8 0 -9 -4l-41 -243q27 0 79.5 0.5t78.5 1.5q15 0 21 4.5t8 15.5l13 48h46q-6 -38 -17 -96q-2 -10 -5 -28.5t-5.5 -34.5t-5.5 -30
q-15 -1 -47 -1l5 50q2 13 -3 17.5t-21 4.5q-47 1 -156 1l-40 -241q-2 -13 6.5 -16.5t46.5 -3.5q123 0 157 8q13 2 23 20l44 91q21 -4 43 -13q-44 -129 -53 -154q-15 0 -124 0.5t-186 0.5q-21 0 -60 -0.5t-56 -0.5q6 32 9 47zM349 768q12 7 57 34t65 40q10 -10 21 -30
q-84 -61 -134 -99q-23 0 -33 1q-34 34 -100 98q16 19 28 29q55 -41 96 -73z" />
    <glyph glyph-name="ecaron" unicode="&#x11b;" horiz-adv-x="404" 
d="M22 108v1q0 51 24.5 120.5t70.5 121.5q70 78 150 78q50 0 79 -32.5t30 -73.5q-4 -26 -19 -52.5t-36 -37.5q-72 -38 -211 -38q-13 -45 -13 -77q0 -35 18 -54.5t50 -19.5q64 0 158 53q6 -13 16 -39q-111 -68 -200 -68q-44 0 -80.5 31.5t-36.5 86.5zM247 381h-1
q-42 0 -77 -43q-33 -43 -49 -100q89 -2 142 25q41 18 41 54q0 26 -14.5 45t-41.5 19zM267 540q22 17 65 54l44 37q15 -10 27 -26q-6 -6 -54.5 -53.5t-69.5 -67.5q-18 -2 -39 0q-4 7 -34 54.5t-46 72.5q12 10 31 21q12 -14 76 -92z" />
    <glyph glyph-name="Gbreve" unicode="&#x11e;" horiz-adv-x="640" 
d="M607 233l-51 -2q-3 0 -5 -4l-36 -202q-53 -35 -182 -35t-204 75q-73 72 -73 190q0 105 50.5 197t126.5 142q100 66 234 66q95 0 141 -32q-14 -108 -21 -163q-34 -2 -51 -2l4 101q0 12 -7 18q-30 27 -99 27q-99 0 -173 -62q-52 -44 -87 -120t-35 -164q0 -93 40 -146
q62 -80 179 -80q27 0 48.5 4t31.5 9.5t11 10.5l28 170l-105 2q2 16 8 48h143h92q-2 -16 -8 -48zM513 832q27 -4 46 -9q-13 -40 -49.5 -69t-87.5 -29q-46 0 -74.5 29t-33.5 69q20 7 45 12q19 -56 70 -56q56 0 84 53z" />
    <glyph glyph-name="gbreve" unicode="&#x11f;" horiz-adv-x="426" 
d="M41 223v1q0 77 54.5 141t140.5 64q38 0 62 -8q4 -2 15 -2q111 0 137 1q1 -14 -1 -46q-16 0 -49.5 -1t-49.5 -2l-1 -4q20 -24 20 -75q0 -68 -36 -124q-24 -36 -68.5 -62t-111.5 -19q-47 -31 -53 -42q-2 -5 -2 -9q0 -21 112 -30q7 -1 11 -1q85 -8 113 -25
q18 -11 30.5 -30.5t12.5 -40.5q0 -61 -66 -107.5t-191 -46.5q-80 0 -129.5 26.5t-49.5 72.5q0 38 23 53q37 24 109 64v6q-47 15 -47 60q0 8 13 19t66 43v5q-64 35 -64 119zM114 217v-1q0 -90 72 -90q45 0 77.5 47t32.5 118q0 46 -13 68q-17 29 -55 29q-50 0 -82 -50
t-32 -121zM304 -106v1q0 27 -18.5 37t-74.5 16q-10 1 -41.5 5t-44.5 6q-79 -48 -93 -62q-19 -18 -19 -39q0 -30 36.5 -45.5t84.5 -15.5q74 0 122 25.5t48 71.5zM245 487h-1q-41 0 -67 28.5t-30 66.5q25 10 39 12q17 -57 66 -57q52 0 78 54q26 -4 40 -9q-12 -38 -44.5 -66.5
t-80.5 -28.5z" />
    <glyph glyph-name="Gcommaaccent" unicode="&#x122;" horiz-adv-x="640" 
d="M607 233l-51 -2q-3 0 -5 -4l-36 -202q-53 -35 -182 -35t-204 75q-73 72 -73 190q0 105 50.5 197t126.5 142q100 66 234 66q95 0 141 -32q-14 -108 -21 -163q-34 -2 -51 -2l4 101q0 12 -7 18q-30 27 -99 27q-99 0 -173 -62q-52 -44 -87 -120t-35 -164q0 -93 40 -146
q62 -80 179 -80q27 0 48.5 4t31.5 9.5t11 10.5l28 170l-105 2q2 16 8 48h143h92q-2 -16 -8 -48zM356 -125v-1q0 -49 -35 -92t-84 -69q-16 20 -23 31q71 46 71 89q0 28 -39 39q1 30 19 48.5t40 18.5q21 0 36 -18.5t15 -45.5z" />
    <glyph glyph-name="gcommaaccent" unicode="&#x123;" horiz-adv-x="426" 
d="M41 223v1q0 77 54.5 141t140.5 64q38 0 62 -8q4 -2 15 -2q111 0 137 1q1 -14 -1 -46q-16 0 -49.5 -1t-49.5 -2l-1 -4q20 -24 20 -75q0 -68 -36 -124q-24 -36 -68.5 -62t-111.5 -19q-47 -31 -53 -42q-2 -5 -2 -9q0 -21 112 -30q7 -1 11 -1q85 -8 113 -25
q18 -11 30.5 -30.5t12.5 -40.5q0 -61 -66 -107.5t-191 -46.5q-80 0 -129.5 26.5t-49.5 72.5q0 38 23 53q37 24 109 64v6q-47 15 -47 60q0 8 13 19t66 43v5q-64 35 -64 119zM114 217v-1q0 -90 72 -90q45 0 77.5 47t32.5 118q0 46 -13 68q-17 29 -55 29q-50 0 -82 -50
t-32 -121zM304 -106v1q0 27 -18.5 37t-74.5 16q-10 1 -41.5 5t-44.5 6q-79 -48 -93 -62q-19 -18 -19 -39q0 -30 36.5 -45.5t84.5 -15.5q74 0 122 25.5t48 71.5zM196 540v1q0 45 32 84.5t77 62.5q9 -9 21 -27q-65 -42 -65 -83q0 -24 35 -35q-1 -27 -17 -44t-36 -17
q-19 0 -33 17t-14 41z" />
    <glyph glyph-name="Imacron" unicode="&#x12a;" horiz-adv-x="312" 
d="M8 47l68 3q6 0 6 5l92 546l-77 3q1 8 4 23t5 23h121h112q-3 -21 -10 -46l-76 -3q-2 0 -4 -4l-94 -547l85 -3q-3 -20 -10 -47q-16 0 -55.5 0.5t-59.5 0.5q-19 0 -59 -0.5t-57 -0.5q2 7 4.5 23.5t4.5 23.5zM352 787q-2 -18 -10 -51q-30 0 -103 0.5t-107 0.5q1 4 4 21.5
t5 26.5q140 2 211 2z" />
    <glyph glyph-name="imacron" unicode="&#x12b;" horiz-adv-x="251" 
d="M119 367l-85 -5q-2 28 -2 42q34 5 67.5 11t51 10t20.5 4q4 0 13.5 -9t13.5 -16q-10 -43 -28.5 -119t-36.5 -152t-21 -87q-2 -7 4 -7q16 0 75 16q5 -16 8 -42q-69 -22 -125 -22q-5 0 -18 10.5t-17 20.5q64 277 80 345zM264 554q-3 -26 -9 -48q-29 0 -98.5 0.5t-102.5 0.5
q2 17 8 45q136 2 202 2z" />
    <glyph glyph-name="Iogonek" unicode="&#x12e;" horiz-adv-x="312" 
d="M166 -152l6 -35q-32 -17 -61 -17q-31 0 -58 19t-27 51q0 60 80 135q-35 -1 -106 -1q1 8 4.5 23t4.5 23l67 3q6 0 6 5l92 547l-77 3q1 8 4 23t5 23h121h112q-3 -21 -10 -46l-77 -3q-1 0 -3 -4l-94 -548l85 -2q-3 -19 -10 -47h-8q-7 1 -15.5 1h-19t-20 -2t-15.5 -5
q-28 -17 -46.5 -49.5t-18.5 -61.5q0 -19 11 -30.5t27 -11.5q20 0 41 7z" />
    <glyph glyph-name="iogonek" unicode="&#x12f;" horiz-adv-x="251" 
d="M185 623h1q22 0 34.5 -15.5t12.5 -33.5q0 -20 -16 -36t-36 -16q-22 0 -37 15t-15 35q0 19 15.5 35t40.5 16zM11 -120v1q0 48 72 111q-11 0 -15 1q-6 3 -16.5 12.5t-13.5 16.5q9 40 38 161t43 184l-86 -5q-1 14 -1 42q34 5 67.5 11t51.5 10t21 4q4 0 13 -9t13 -16
q-76 -319 -85 -358q-5 -7 3 -7q18 0 76 17q6 -31 7 -43q-7 -2 -32.5 -8t-38.5 -13q-22 -10 -39.5 -39t-17.5 -58q0 -19 12.5 -29.5t30.5 -10.5q20 0 42 8q4 -20 4 -33q-36 -18 -70 -18q-29 0 -54 18.5t-25 49.5z" />
    <glyph glyph-name="Idotaccent" unicode="&#x130;" horiz-adv-x="312" 
d="M8 47l68 3q6 0 6 5l92 546l-77 3q1 8 4 23t5 23h121h112q-3 -21 -10 -46l-76 -3q-2 0 -4 -4l-94 -547l85 -3q-3 -20 -10 -47q-16 0 -55.5 0.5t-59.5 0.5q-19 0 -59 -0.5t-57 -0.5q2 7 4.5 23.5t4.5 23.5zM244 817h1q20 0 31.5 -13.5t11.5 -31.5q0 -21 -14 -36t-37 -15
q-19 0 -32 12.5t-13 31.5q0 22 14.5 37t37.5 15z" />
    <glyph glyph-name="dotlessi" unicode="&#x131;" horiz-adv-x="251" 
d="M119 367l-85 -5q-2 28 -2 42q34 5 67.5 11t51 10t20.5 4q4 0 13.5 -9t13.5 -16q-10 -43 -28.5 -119t-36.5 -152t-21 -87q-2 -7 4 -7q16 0 75 16q5 -16 8 -42q-69 -22 -125 -22q-5 0 -18 10.5t-17 20.5q64 277 80 345z" />
    <glyph glyph-name="Kcommaaccent" unicode="&#x136;" horiz-adv-x="611" 
d="M13 47l64 3q3 0 5 4l92 547l-70 3q2 8 5 24.5t4 21.5q17 0 55 -0.5t58 -0.5q18 0 53.5 0.5t50.5 0.5q-4 -26 -9 -47l-68 -2q-3 0 -5 -6l-42 -240q52 3 66 7q32 26 105.5 102t120.5 131q5 5 -1 5l-63 3q2 7 5 23t4 23h128q13 0 38 0.5t35 0.5q-3 -24 -9 -46l-49 -3
q-143 -149 -255 -253l-1 -5q50 -34 90 -132q36 -88 61 -136q13 -25 31 -25l70 -2q-4 -27 -9 -46q-13 0 -40 -1t-39 -1q-14 -1 -59 -1q-22 33 -79 172q-52 137 -99 137q-46 0 -59 -1l-44 -257l82 -3q-4 -27 -9 -47q-15 0 -54.5 0.5t-59.5 0.5q-19 0 -56 -0.5t-52 -0.5
q5 26 8 47zM342 -100v-1q0 -49 -35 -92t-84 -69q-16 20 -23 31q71 46 71 89q0 28 -39 39q1 30 19 48.5t40 18.5q21 0 36 -18.5t15 -45.5z" />
    <glyph glyph-name="kcommaaccent" unicode="&#x137;" horiz-adv-x="448" 
d="M136 219l6 -3q84 101 154.5 157.5t107.5 56.5q9 0 21 -18t14 -38q-88 -13 -200 -120v-5q49 -23 78 -112q20 -63 32 -85q4 -8 15 -8q19 1 63 13q4 -24 5 -42q-63 -21 -133 -21q-23 38 -46 113q-34 101 -60 101q-8 0 -17 -9q-20 -18 -52 -53q-6 -22 -18.5 -75t-17.5 -71
h-69q57 237 149 634l-86 -6q-1 15 -3 43q29 4 64 11.5t57 12.5t24 5q4 0 13 -7.5t14 -14.5q-42 -174 -115 -459zM222 -99v-1q0 -45 -32 -84.5t-77 -62.5q-13 15 -21 28q65 42 65 82q0 25 -35 35q1 27 17 44t36 17q19 0 33 -17t14 -41z" />
    <glyph glyph-name="Lacute" unicode="&#x139;" horiz-adv-x="513" 
d="M11 45l67 3q4 2 4 5l96 547l-72 2q6 32 10 47h114h121q-4 -28 -10 -47l-85 -2q-2 0 -4 -4l-94 -528q-2 -14 3.5 -17.5t35.5 -3.5q135 0 160 6q13 4 22 21l50 104q16 -2 48 -11q-32 -93 -62 -168q-14 0 -118.5 0.5t-180.5 0.5q-21 0 -59.5 -0.5t-54.5 -0.5q1 5 4 21.5
t5 24.5zM380 843q17 -26 31 -55q-27 -13 -89.5 -43.5t-88.5 -43.5q-13 19 -20 34q22 14 80.5 52t86.5 56z" />
    <glyph glyph-name="lacute" unicode="&#x13a;" horiz-adv-x="249" 
d="M169 635l-95 -5q-1 7 -1.5 14t-1 15.5t-0.5 13.5q39 4 75.5 11t55.5 11.5t21 4.5q12 0 27 -22q-63 -257 -148 -631q-2 -6 4 -6q29 0 86 15q3 -16 5 -44q-67 -21 -138 -21q-4 0 -15.5 10t-16.5 20q13 53 70 302.5t72 311.5zM304 863q17 -26 31 -55q-27 -13 -89.5 -43.5
t-88.5 -43.5q-13 19 -20 34q22 14 80.5 52t86.5 56z" />
    <glyph glyph-name="Lcommaaccent" unicode="&#x13b;" horiz-adv-x="513" 
d="M11 45l67 3q4 2 4 5l96 547l-72 2q6 32 10 47h114h121q-4 -28 -10 -47l-85 -2q-2 0 -4 -4l-94 -528q-2 -14 3.5 -17.5t35.5 -3.5q135 0 160 6q13 4 22 21l50 104q16 -2 48 -11q-32 -93 -62 -168q-14 0 -118.5 0.5t-180.5 0.5q-21 0 -59.5 -0.5t-54.5 -0.5q1 5 4 21.5
t5 24.5zM289 -115v-1q0 -49 -35 -92t-84 -69q-16 20 -23 31q71 46 71 89q0 28 -39 39q1 30 19 48.5t40 18.5q21 0 36 -18.5t15 -45.5z" />
    <glyph glyph-name="lcommaaccent" unicode="&#x13c;" horiz-adv-x="249" 
d="M169 635l-95 -5q-1 7 -1.5 14t-1 15.5t-0.5 13.5q39 4 75.5 11t55.5 11.5t21 4.5q12 0 27 -22q-63 -257 -148 -631q-2 -6 4 -6q29 0 86 15q3 -16 5 -44q-67 -21 -138 -21q-4 0 -15.5 10t-16.5 20q13 53 70 302.5t72 311.5zM123 -119v-1q0 -45 -32 -84.5t-77 -62.5
q-13 15 -21 28q65 42 65 82q0 25 -35 35q1 27 17 44t36 17q19 0 33 -17t14 -41z" />
    <glyph glyph-name="Lcaron" unicode="&#x13d;" horiz-adv-x="513" 
d="M10 45l67 3q5 2 5 5l96 547l-72 2q6 32 10 47h114h121q-3 -19 -10 -47l-86 -2q-3 0 -3 -4l-94 -528q-2 -14 3 -17.5t35 -3.5q136 0 161 6q13 4 22 21l50 104q16 -2 48 -11q-32 -93 -62 -168q-15 0 -119 0.5t-180 0.5q-21 0 -59.5 -0.5t-54.5 -0.5q3 23 8 46zM503 588v-1
q0 -49 -35 -92t-84 -69q-10 13 -23 31q71 46 71 90q0 27 -39 38q1 30 19 48.5t40 18.5q21 0 36 -18.5t15 -45.5z" />
    <glyph glyph-name="lcaron" unicode="&#x13e;" horiz-adv-x="297" 
d="M169 635l-95 -5q-3 22 -3 43q39 4 75.5 11t55.5 11.5t21 4.5q12 0 27 -22q-98 -404 -148 -631q-2 -6 4 -6q29 0 86 15q3 -16 5 -44q-69 -21 -138 -21q-4 0 -15 10t-17 20q13 53 70 302.5t72 311.5zM383 643v-1q0 -45 -32 -85t-77 -63q-9 10 -21 28q65 42 65 83
q0 25 -35 35q1 27 17 44t36 17q19 0 33 -17t14 -41z" />
    <glyph glyph-name="Lslash" unicode="&#x141;" horiz-adv-x="518" 
d="M138 342l45 258l-72 2q6 32 10 47h114h121q-4 -28 -10 -47l-85 -2q-2 0 -4 -4l-39 -224q11 5 61 26t84 36q9 -28 13 -48q-33 -14 -92 -37.5t-76 -30.5l-45 -250q-2 -14 3.5 -17.5t35.5 -3.5q134 0 160 6q13 4 22 21l50 104q16 -2 48 -11q-32 -93 -62 -168
q-14 0 -118.5 0.5t-180.5 0.5q-21 0 -59.5 -0.5t-54.5 -0.5q1 5 4 21.5t5 24.5l67 3q4 2 4 5l42 236q-4 -2 -36 -15t-52 -21q-7 15 -13 43q40 16 110 46z" />
    <glyph glyph-name="lslash" unicode="&#x142;" horiz-adv-x="292" 
d="M190 635l-95 -5q-2 30 -2 43q38 4 74.5 11t55.5 11.5t22 4.5q13 0 26 -22q-28 -119 -66 -281q73 28 96 38q8 -30 10 -43q-61 -24 -117 -45q-52 -215 -70 -300q-2 -7 3 -7q24 0 86 15q5 -21 6 -43q-72 -21 -139 -21q-4 0 -15 10t-16 20l15 66t26 113t28 119
q-30 -10 -79 -30q-6 17 -11 40q19 8 54 21t47 18q11 50 33 143.5t28 123.5z" />
    <glyph glyph-name="Nacute" unicode="&#x143;" horiz-adv-x="697" 
d="M3 47l64 3q6 0 6 5l93 545l-74 3q2 8 5 23.5t4 23.5q21 0 69.5 -0.5t71.5 -0.5q10 -20 60.5 -123.5t108.5 -223.5t97 -200l6 1q15 94 42 264.5t37 233.5l-95 1q6 32 9 47h124q17 0 49 0.5t45 0.5q-2 -13 -8 -47l-61 -2q-3 -1 -4 -6l-102 -593q-20 -8 -53 -8
q-130 228 -277 549h-7q-14 -82 -41.5 -246.5t-41.5 -246.5l99 -2q-8 -45 -9 -47h-132q-17 0 -48.5 -0.5t-44.5 -0.5q1 7 3.5 23t4.5 24zM528 843q17 -26 31 -55q-27 -13 -89.5 -43.5t-88.5 -43.5q-13 19 -20 34q22 14 80.5 52t86.5 56z" />
    <glyph glyph-name="nacute" unicode="&#x144;" horiz-adv-x="510" 
d="M120 366l-79 -7q-2 30 -2 42q28 5 59 12t48.5 11.5t20.5 4.5q5 0 13.5 -6.5t12.5 -13.5q-9 -42 -27 -109l7 -2q55 65 111.5 97.5t94.5 33.5q43 -7 65 -51q6 -12 6 -31q0 -74 -80 -300q-2 -7 4 -7q15 0 72 16q4 -21 6 -42q-62 -23 -129 -23q-5 0 -15 9.5t-13 20.5
q40 121 62 206q19 76 19 101q0 36 -31 36q-45 0 -113 -60.5t-80 -106.5q-6 -21 -26 -103t-23 -93q-23 -1 -69 -1q52 216 86 366zM375 632q15 -15 37 -47q-6 -4 -68 -47t-92 -63q-2 2 -25 31q28 23 81.5 69t66.5 57z" />
    <glyph glyph-name="Ncommaaccent" unicode="&#x145;" horiz-adv-x="697" 
d="M3 47l64 3q6 0 6 5l93 545l-74 3q2 8 5 23.5t4 23.5q21 0 69.5 -0.5t71.5 -0.5q10 -20 60.5 -123.5t108.5 -223.5t97 -200l6 1q15 94 42 264.5t37 233.5l-95 1q6 32 9 47h124q17 0 49 0.5t45 0.5q-2 -13 -8 -47l-61 -2q-3 -1 -4 -6l-102 -593q-20 -8 -53 -8
q-130 228 -277 549h-7q-14 -82 -41.5 -246.5t-41.5 -246.5l99 -2q-8 -45 -9 -47h-132q-17 0 -48.5 -0.5t-44.5 -0.5q1 7 3.5 23t4.5 24zM385 -100v-1q0 -49 -35 -92t-84 -69q-16 20 -23 31q71 46 71 89q0 28 -39 39q1 30 19 48.5t40 18.5q21 0 36 -18.5t15 -45.5z" />
    <glyph glyph-name="ncommaaccent" unicode="&#x146;" horiz-adv-x="510" 
d="M120 366l-79 -7q-2 30 -2 42q28 5 59 12t48.5 11.5t20.5 4.5q5 0 13.5 -6.5t12.5 -13.5q-9 -42 -27 -109l7 -2q55 65 111.5 97.5t94.5 33.5q43 -7 65 -51q6 -12 6 -31q0 -74 -80 -300q-2 -7 4 -7q15 0 72 16q4 -21 6 -42q-62 -23 -129 -23q-5 0 -15 9.5t-13 20.5
q40 121 62 206q19 76 19 101q0 36 -31 36q-45 0 -113 -60.5t-80 -106.5q-6 -21 -26 -103t-23 -93q-23 -1 -69 -1q52 216 86 366zM253 -99v-1q0 -45 -32 -84.5t-77 -62.5q-13 15 -21 28q65 42 65 82q0 25 -35 35q1 27 17 44t36 17q19 0 33 -17t14 -41z" />
    <glyph glyph-name="Ncaron" unicode="&#x147;" horiz-adv-x="697" 
d="M3 47l64 3q6 0 6 5l93 545l-74 3q2 8 5 23.5t4 23.5q21 0 69.5 -0.5t71.5 -0.5q10 -20 60.5 -123.5t108.5 -223.5t97 -200l6 1q15 94 42 264.5t37 233.5l-95 1q6 32 9 47h124q17 0 49 0.5t45 0.5q-2 -13 -8 -47l-61 -2q-3 -1 -4 -6l-102 -593q-20 -8 -53 -8
q-130 228 -277 549h-7q-14 -82 -41.5 -246.5t-41.5 -246.5l99 -2q-8 -45 -9 -47h-132q-17 0 -48.5 -0.5t-44.5 -0.5q1 7 3.5 23t4.5 24zM427 768q12 7 57 34t65 40q10 -10 21 -30q-84 -61 -134 -99q-23 0 -33 1q-34 34 -100 98q16 19 28 29q55 -41 96 -73z" />
    <glyph glyph-name="ncaron" unicode="&#x148;" horiz-adv-x="510" 
d="M120 366l-79 -7q-2 30 -2 42q28 5 59 12t48.5 11.5t20.5 4.5q5 0 13.5 -6.5t12.5 -13.5q-9 -42 -27 -109l7 -2q55 65 111.5 97.5t94.5 33.5q43 -7 65 -51q6 -12 6 -31q0 -74 -80 -300q-2 -7 4 -7q15 0 72 16q4 -21 6 -42q-62 -23 -129 -23q-5 0 -15 9.5t-13 20.5
q40 121 62 206q19 76 19 101q0 36 -31 36q-45 0 -113 -60.5t-80 -106.5q-6 -21 -26 -103t-23 -93q-23 -1 -69 -1q52 216 86 366zM290 540q22 17 66 54l43 37q15 -10 27 -26q-6 -6 -54.5 -53.5t-69.5 -67.5q-18 -2 -39 0q-4 7 -34 54.5t-46 72.5q12 10 31 21q12 -14 76 -92z
" />
    <glyph glyph-name="Omacron" unicode="&#x14c;" horiz-adv-x="703" 
d="M669 394v-1q0 -102 -42.5 -190t-105.5 -140q-92 -73 -216 -73q-108 0 -176 68q-72 69 -72 197q0 105 46 195.5t112 140.5q88 69 210 69q104 0 169 -65q75 -74 75 -201zM139 254v-1q0 -98 47 -156q49 -58 137 -58q87 0 151 58q48 43 80.5 119.5t32.5 177.5q0 98 -45 156
q-45 61 -133 61q-91 0 -158 -63q-46 -43 -79 -118.5t-33 -175.5zM548 787q-2 -18 -10 -51q-30 0 -103 0.5t-107 0.5q1 4 4 21.5t5 26.5q140 2 211 2z" />
    <glyph glyph-name="omacron" unicode="&#x14d;" horiz-adv-x="439" 
d="M397 282v-1q0 -64 -26 -126.5t-75 -109.5q-58 -55 -142 -55q-66 0 -101 43q-29 37 -29 92q0 72 28 138t74 110q60 56 140 56q59 0 93 -37q38 -40 38 -110zM172 34h1q48 0 87 47q26 32 43.5 89t17.5 109q0 49 -16 75q-18 30 -55 30q-52 0 -93 -55q-22 -30 -39.5 -84
t-17.5 -111q0 -47 16 -72q16 -28 56 -28zM369 554q-3 -26 -9 -48q-29 0 -98.5 0.5t-102.5 0.5q3 17 8 45q136 2 202 2z" />
    <glyph glyph-name="Ohungarumlaut" unicode="&#x150;" horiz-adv-x="703" 
d="M669 394v-1q0 -102 -42.5 -190t-105.5 -140q-92 -73 -216 -73q-108 0 -176 68q-72 69 -72 197q0 105 46 195.5t112 140.5q88 69 210 69q104 0 169 -65q75 -74 75 -201zM139 254v-1q0 -98 47 -156q49 -58 137 -58q87 0 151 58q48 43 80.5 119.5t32.5 177.5q0 98 -45 156
q-45 61 -133 61q-91 0 -158 -63q-46 -43 -79 -118.5t-33 -175.5zM489 856q17 -21 30 -48q-31 -17 -89.5 -49.5t-75.5 -42.5q-3 4 -22 34q93 62 157 106zM640 851q11 -15 28 -48q-6 -3 -68.5 -36.5t-95.5 -51.5q-13 19 -22 35q108 70 158 101z" />
    <glyph glyph-name="ohungarumlaut" unicode="&#x151;" horiz-adv-x="439" 
d="M397 282v-1q0 -64 -26 -126.5t-75 -109.5q-58 -55 -142 -55q-66 0 -101 43q-29 37 -29 92q0 72 28 138t74 110q60 56 140 56q59 0 93 -37q38 -40 38 -110zM172 34h1q48 0 87 47q26 32 43.5 89t17.5 109q0 49 -16 75q-18 30 -55 30q-52 0 -93 -55q-22 -30 -39.5 -84
t-17.5 -111q0 -47 16 -72q16 -28 56 -28zM282 636q18 -15 37 -42q-8 -6 -60 -46.5t-80 -62.5q-9 9 -27 29q70 65 130 122zM410 632q21 -21 35 -42q-33 -25 -139 -111l-27 30q20 19 65.5 62t65.5 61z" />
    <glyph glyph-name="OE" unicode="&#x152;" horiz-adv-x="961" 
d="M55 255v1q0 116 52 210t125 143q76 51 185 51q65 0 113 -25.5t73 -66.5q1 10 13 82h72h181h80q-3 -30 -10 -89.5t-8 -65.5q-7 -1 -22.5 -1t-22.5 -1v86q0 17 -21 19q-52 4 -173 4q-9 0 -13 -2l-42 -243q28 0 80.5 0.5t79.5 1.5q15 0 21 4.5t8 15.5l13 48h45
q-6 -38 -17 -96q-2 -10 -5 -28.5t-5.5 -34.5t-5.5 -30q-15 -1 -46 -1l5 50q2 13 -3 17.5t-21 4.5q-47 1 -157 1l-42 -243q-2 -13 7 -16.5t47 -3.5q122 0 158 8q14 3 22 20l43 90q18 -2 45 -12q-30 -89 -54 -154q-23 0 -120.5 0.5t-131.5 0.5q-18 0 -50 -0.5t-46 -0.5
q3 16 7.5 46.5t6.5 39.5q-86 -95 -222 -95q-120 0 -190 85q-54 64 -54 180zM137 252v-1q0 -94 43 -151q49 -62 139 -62q140 0 213 138q26 145 54 321q-45 114 -174 114q-96 0 -158 -59q-46 -44 -81.5 -120t-35.5 -180z" />
    <glyph glyph-name="oe" unicode="&#x153;" horiz-adv-x="676" 
d="M314 70h-5q-65 -80 -152 -80q-66 0 -103 43q-30 35 -30 93q0 72 27.5 137t73.5 109q60 57 137 57q92 0 112 -96h6q38 49 76 72.5t87 23.5q45 0 74.5 -31.5t30.5 -70.5q-3 -27 -18 -53.5t-34 -38.5q-74 -40 -215 -40q-12 -41 -12 -78q0 -34 18 -53.5t50 -19.5q64 0 158 53
q6 -13 16 -39q-113 -68 -195 -68q-35 0 -64 21t-38 59zM172 34h1q50 0 86 46q25 31 44 89t19 111q0 43 -17 75q-15 30 -53 30q-54 0 -95 -55q-22 -28 -39.5 -83t-17.5 -112q0 -48 16 -73q16 -28 56 -28zM519 381h-1q-43 0 -76 -43q-34 -42 -51 -100q92 -2 143 25
q41 19 41 55q0 26 -14.5 44.5t-41.5 18.5z" />
    <glyph glyph-name="Racute" unicode="&#x154;" horiz-adv-x="580" 
d="M12 46l64 3q6 2 6 5l92 547l-69 2q2 16 8 46q90 2 155 2q108 0 158 -18q50 -16 76 -55.5t26 -84.5q0 -65 -47.5 -117t-115.5 -73v-5q8 -3 15.5 -9t13 -11.5t12 -17t10 -19t10 -24.5t9.5 -26l10.5 -31.5l11.5 -34.5q17 -46 27 -60t24 -15l53 -2q-4 -32 -8 -47h-65
q-22 -1 -60 -1q-15 24 -46 114t-39 108q-14 32 -33 44.5t-58 12.5q-48 0 -58 -2l-40 -227l82 -3q-4 -30 -8 -47q-16 0 -56 0.5t-62 0.5q-20 0 -55.5 -0.5t-50.5 -0.5q6 34 8 46zM249 601l-47 -275q7 -2 54 -2q89 0 140 47.5t51 112.5q0 55 -36 88t-101 33q-43 0 -61 -4z
M463 843q17 -26 31 -55q-27 -13 -89.5 -43.5t-88.5 -43.5q-13 19 -20 34q22 14 80.5 52t86.5 56z" />
    <glyph glyph-name="racute" unicode="&#x155;" horiz-adv-x="364" 
d="M120 369l-78 -8q-2 30 -2 43q28 4 58.5 10.5t48 10.5t18.5 4q4 0 13 -8t13 -14q-12 -47 -29 -124l7 -3q45 67 87.5 108t69.5 41q26 0 49 -14q0 -18 -12 -44.5t-21 -30.5q-21 9 -41 9q-31 0 -87 -66.5t-72 -127.5q-9 -34 -36 -155h-68q39 168 82 369zM322 632
q15 -15 37 -47q-6 -4 -68 -47t-92 -63q-2 2 -25 31q28 23 81.5 69t66.5 57z" />
    <glyph glyph-name="Rcommaaccent" unicode="&#x156;" horiz-adv-x="580" 
d="M12 46l64 3q6 2 6 5l92 547l-69 2q2 16 8 46q90 2 155 2q108 0 158 -18q50 -16 76 -55.5t26 -84.5q0 -65 -47.5 -117t-115.5 -73v-5q8 -3 15.5 -9t13 -11.5t12 -17t10 -19t10 -24.5t9.5 -26l10.5 -31.5l11.5 -34.5q17 -46 27 -60t24 -15l53 -2q-4 -32 -8 -47h-65
q-22 -1 -60 -1q-15 24 -46 114t-39 108q-14 32 -33 44.5t-58 12.5q-48 0 -58 -2l-40 -227l82 -3q-4 -30 -8 -47q-16 0 -56 0.5t-62 0.5q-20 0 -55.5 -0.5t-50.5 -0.5q6 34 8 46zM249 601l-47 -275q7 -2 54 -2q89 0 140 47.5t51 112.5q0 55 -36 88t-101 33q-43 0 -61 -4z
M336 -100v-1q0 -49 -35 -92t-84 -69q-16 20 -23 31q71 46 71 89q0 28 -39 39q1 30 19 48.5t40 18.5q21 0 36 -18.5t15 -45.5z" />
    <glyph glyph-name="rcommaaccent" unicode="&#x157;" horiz-adv-x="364" 
d="M120 369l-78 -8q-2 30 -2 43q28 4 58.5 10.5t48 10.5t18.5 4q4 0 13 -8t13 -14q-12 -47 -29 -124l7 -3q45 67 87.5 108t69.5 41q26 0 49 -14q0 -18 -12 -44.5t-21 -30.5q-21 9 -41 9q-31 0 -87 -66.5t-72 -127.5q-9 -34 -36 -155h-68q39 168 82 369zM143 -110v-1
q0 -45 -32 -84.5t-77 -62.5q-13 15 -21 28q65 42 65 82q0 24 -35 35q1 27 17 44t36 17q19 0 33 -17t14 -41z" />
    <glyph glyph-name="Rcaron" unicode="&#x158;" horiz-adv-x="580" 
d="M12 46l64 3q6 2 6 5l92 547l-69 2q2 16 8 46q90 2 155 2q108 0 158 -18q50 -16 76 -55.5t26 -84.5q0 -65 -47.5 -117t-115.5 -73v-5q8 -3 15.5 -9t13 -11.5t12 -17t10 -19t10 -24.5t9.5 -26l10.5 -31.5l11.5 -34.5q17 -46 27 -60t24 -15l53 -2q-4 -32 -8 -47h-65
q-22 -1 -60 -1q-15 24 -46 114t-39 108q-14 32 -33 44.5t-58 12.5q-48 0 -58 -2l-40 -227l82 -3q-4 -30 -8 -47q-16 0 -56 0.5t-62 0.5q-20 0 -55.5 -0.5t-50.5 -0.5q6 34 8 46zM249 601l-47 -275q7 -2 54 -2q89 0 140 47.5t51 112.5q0 55 -36 88t-101 33q-43 0 -61 -4z
M342 768q12 7 57 34t65 40q10 -10 21 -30q-84 -61 -134 -99q-23 0 -33 1q-34 34 -100 98q16 19 28 29q55 -41 96 -73z" />
    <glyph glyph-name="rcaron" unicode="&#x159;" horiz-adv-x="364" 
d="M120 369l-78 -8q-2 30 -2 43q28 4 58.5 10.5t48 10.5t18.5 4q4 0 13 -8t13 -14q-12 -47 -29 -124l7 -3q45 67 87.5 108t69.5 41q26 0 49 -14q0 -18 -12 -44.5t-21 -30.5q-21 9 -41 9q-31 0 -87 -66.5t-72 -127.5q-9 -34 -36 -155h-68q39 168 82 369zM237 540q22 17 65 54
l44 37q15 -10 27 -26q-6 -6 -54.5 -53.5t-69.5 -67.5q-18 -2 -39 0q-4 7 -34 54.5t-46 72.5q12 10 31 21q12 -14 76 -92z" />
    <glyph glyph-name="Sacute" unicode="&#x15a;" horiz-adv-x="488" 
d="M402 485l-2 90q0 9 -4 13q-20 21 -78 21q-66 0 -100 -30q-47 -37 -47 -96q0 -41 23 -62t87 -54q10 -4 15 -7q69 -36 99 -72.5t30 -89.5q0 -97 -76 -157q-64 -51 -179 -51q-96 0 -148 29q8 79 15 156q16 3 50 3l2 -102q0 -10 5 -13q30 -22 94 -22q81 0 122 37
q42 36 42 100q0 25 -7.5 43t-28 34.5t-37.5 27t-54 29.5q-65 34 -96 69.5t-31 88.5q0 45 23.5 83.5t58.5 62.5q62 44 162 44q83 0 123 -26q-6 -77 -15 -147q-28 -2 -48 -2zM423 843q17 -26 31 -55q-27 -13 -89.5 -43.5t-88.5 -43.5q-13 19 -20 34q22 14 80.5 52t86.5 56z
" />
    <glyph glyph-name="sacute" unicode="&#x15b;" horiz-adv-x="365" 
d="M281 294l-4 65q-2 9 -6 12q-20 13 -53 13q-34 0 -56 -12q-37 -21 -37 -61q0 -18 9.5 -31t21 -19.5t39.5 -18.5q54 -24 79.5 -49.5t25.5 -65.5q0 -74 -69 -113q-41 -24 -123 -24q-65 0 -97 18q1 20 3 61t3 61q28 2 44 2l7 -73q0 -8 6 -11q20 -13 60 -13q44 0 66 15
q31 20 31 61q0 29 -16.5 43.5t-56.5 32.5q-52 22 -77 45.5t-25 66.5q0 36 22.5 65t52.5 44q45 21 110 21q61 0 94 -21q-2 -21 -5.5 -59.5t-4.5 -52.5q-26 -2 -44 -2zM317 632q15 -15 37 -47q-6 -4 -68 -47t-92 -63q-2 2 -25 31q28 23 81.5 69t66.5 57z" />
    <glyph glyph-name="Scedilla" unicode="&#x15e;" horiz-adv-x="488" 
d="M89 -224v36q39 1 61 15t22 33q0 17 -11 27q-10 11 -43 14q-1 4 -2.5 12.5t-2.5 12.5l76 64h-19q-96 0 -148 29q8 79 15 156q16 3 50 3l2 -102q0 -10 5 -13q30 -22 94 -22q81 0 122 37q42 36 42 100q0 25 -7.5 43t-28 34.5t-37.5 27t-54 29.5q-65 34 -96 69.5t-31 88.5
q0 45 23.5 83.5t58.5 62.5q62 44 162 44q83 0 123 -26q-6 -77 -15 -147q-28 -2 -48 -2l-2 90q0 9 -4 13q-20 21 -78 21q-66 0 -100 -30q-47 -37 -47 -96q0 -41 23 -62t87 -54q10 -4 15 -7q69 -36 99 -72.5t30 -89.5q0 -97 -76 -157q-35 -30 -91 -42l-81 -69q59 -12 59 -63
q0 -37 -41 -64t-106 -27z" />
    <glyph glyph-name="Scedilla" unicode="&#xf6c1;" horiz-adv-x="488" 
d="M89 -224v36q39 1 61 15t22 33q0 17 -11 27q-10 11 -43 14q-1 4 -2.5 12.5t-2.5 12.5l76 64h-19q-96 0 -148 29q8 79 15 156q16 3 50 3l2 -102q0 -10 5 -13q30 -22 94 -22q81 0 122 37q42 36 42 100q0 25 -7.5 43t-28 34.5t-37.5 27t-54 29.5q-65 34 -96 69.5t-31 88.5
q0 45 23.5 83.5t58.5 62.5q62 44 162 44q83 0 123 -26q-6 -77 -15 -147q-28 -2 -48 -2l-2 90q0 9 -4 13q-20 21 -78 21q-66 0 -100 -30q-47 -37 -47 -96q0 -41 23 -62t87 -54q10 -4 15 -7q69 -36 99 -72.5t30 -89.5q0 -97 -76 -157q-35 -30 -91 -42l-81 -69q59 -12 59 -63
q0 -37 -41 -64t-106 -27z" />
    <glyph glyph-name="scedilla" unicode="&#x15f;" horiz-adv-x="365" 
d="M39 -217l1 35q35 2 56 14.5t21 33.5q0 36 -50 36q-2 4 -3.5 11.5t-2.5 9.5l72 67h-32q-58 0 -90 17l6 123q26 2 44 2l6 -73q2 -9 7 -11q20 -13 60 -13q44 0 66 15q31 21 31 61q0 29 -16.5 43.5t-56.5 32.5q-52 22 -77 45.5t-25 66.5q0 36 22.5 65t52.5 44q45 21 110 21
q61 0 94 -21q-2 -21 -5.5 -59.5t-4.5 -52.5q-26 -2 -44 -2l-4 65q-2 9 -6 12q-20 13 -52 13q-34 0 -57 -12q-37 -21 -37 -61q0 -18 9.5 -31t21 -19.5t39.5 -18.5q54 -24 79.5 -49.5t25.5 -65.5q0 -73 -69 -114q-18 -10 -37 -14l-72 -69q24 -4 38.5 -20t14.5 -37
q0 -39 -38 -63.5t-98 -26.5z" />
    <glyph glyph-name="scedilla" unicode="&#xf6c2;" horiz-adv-x="365" 
d="M39 -217l1 35q35 2 56 14.5t21 33.5q0 36 -50 36q-2 4 -3.5 11.5t-2.5 9.5l72 67h-32q-58 0 -90 17l6 123q26 2 44 2l6 -73q2 -9 7 -11q20 -13 60 -13q44 0 66 15q31 21 31 61q0 29 -16.5 43.5t-56.5 32.5q-52 22 -77 45.5t-25 66.5q0 36 22.5 65t52.5 44q45 21 110 21
q61 0 94 -21q-2 -21 -5.5 -59.5t-4.5 -52.5q-26 -2 -44 -2l-4 65q-2 9 -6 12q-20 13 -52 13q-34 0 -57 -12q-37 -21 -37 -61q0 -18 9.5 -31t21 -19.5t39.5 -18.5q54 -24 79.5 -49.5t25.5 -65.5q0 -73 -69 -114q-18 -10 -37 -14l-72 -69q24 -4 38.5 -20t14.5 -37
q0 -39 -38 -63.5t-98 -26.5z" />
    <glyph glyph-name="Scaron" unicode="&#x160;" horiz-adv-x="488" 
d="M402 485l-2 90q0 9 -4 13q-20 21 -78 21q-66 0 -100 -30q-47 -37 -47 -96q0 -41 23 -62t87 -54q10 -4 15 -7q69 -36 99 -72.5t30 -89.5q0 -97 -76 -157q-64 -51 -179 -51q-96 0 -148 29q8 79 15 156q16 3 50 3l2 -102q0 -10 5 -13q30 -22 94 -22q81 0 122 37
q42 36 42 100q0 25 -7.5 43t-28 34.5t-37.5 27t-54 29.5q-65 34 -96 69.5t-31 88.5q0 45 23.5 83.5t58.5 62.5q62 44 162 44q83 0 123 -26q-6 -77 -15 -147q-28 -2 -48 -2zM330 768q12 7 57 34t65 40q10 -10 21 -30q-84 -61 -134 -99q-23 0 -33 1q-34 34 -100 98
q16 19 28 29q55 -41 96 -73z" />
    <glyph glyph-name="scaron" unicode="&#x161;" horiz-adv-x="365" 
d="M281 294l-4 65q-2 9 -6 12q-20 13 -53 13q-34 0 -56 -12q-37 -21 -37 -61q0 -18 9.5 -31t21 -19.5t39.5 -18.5q54 -24 79.5 -49.5t25.5 -65.5q0 -74 -69 -113q-41 -24 -123 -24q-65 0 -97 18q1 20 3 61t3 61q28 2 44 2l7 -73q0 -8 6 -11q20 -13 60 -13q44 0 66 15
q31 20 31 61q0 29 -16.5 43.5t-56.5 32.5q-52 22 -77 45.5t-25 66.5q0 36 22.5 65t52.5 44q45 21 110 21q61 0 94 -21q-2 -21 -5.5 -59.5t-4.5 -52.5q-26 -2 -44 -2zM234 540q22 17 66 54l43 37q15 -10 27 -26q-6 -6 -54.5 -53.5t-69.5 -67.5q-18 -2 -39 0q-4 7 -34 54.5
t-46 72.5q12 10 31 21q12 -14 76 -92z" />
    <glyph glyph-name="Tcommaaccent" unicode="&#x162;" horiz-adv-x="558" 
d="M122 46l79 3q5 0 5 4l92 547q-92 0 -137 -3q-22 -2 -28 -19l-29 -96q-5 0 -50 3q6 31 18 87.5t16 77.5q10 0 41 -0.5t52 -0.5h167q146 0 168 1q62 0 83 1q-6 -58 -22 -165q-15 -2 -49 -4l2 97q0 9 -4 13t-17 5q-34 3 -135 3l-95 -550l96 -3q-4 -27 -9 -47q-18 0 -62 0.5
t-65 0.5t-63 -0.5t-62 -0.5q2 8 4 23t4 23zM300 -100v-1q0 -49 -35 -92t-84 -69q-16 20 -23 31q71 46 71 89q0 28 -39 39q1 30 19 48.5t40 18.5q21 0 36 -18.5t15 -45.5z" />
    <glyph glyph-name="tcommaaccent" unicode="&#x163;" horiz-adv-x="345" 
d="M128 86v-1q0 -40 45 -40q44 0 114 20q2 -11 4 -43q-84 -31 -153 -31q-22 0 -47.5 17.5t-33.5 44.5q-3 9 -3 18q0 26 34 179q10 44 26 117h-78q1 5 3 14.5t3.5 17t2.5 13.5q50 4 74 5q7 0 8 7q4 15 13 48t12 45q37 17 65 17q3 0 3 -4q-9 -45 -25 -113q102 0 151 1
q-3 -23 -10 -51h-152q-12 -46 -27 -119q-29 -130 -29 -162zM171 -114v-1q0 -45 -32 -84.5t-77 -62.5q-13 15 -21 28q65 42 65 82q0 24 -35 35q1 27 17 44t36 17q19 0 33 -17t14 -41z" />
    <glyph glyph-name="Tcaron" unicode="&#x164;" horiz-adv-x="558" 
d="M122 46l79 3q5 0 5 4l92 547q-92 0 -137 -3q-22 -2 -28 -19l-29 -96q-5 0 -50 3q6 31 18 87.5t16 77.5q10 0 41 -0.5t52 -0.5h167q146 0 168 1q62 0 83 1q-6 -58 -22 -165q-15 -2 -49 -4l2 97q0 9 -4 13t-17 5q-34 3 -135 3l-95 -550l96 -3q-4 -27 -9 -47q-18 0 -62 0.5
t-65 0.5t-63 -0.5t-62 -0.5q2 8 4 23t4 23zM350 768q12 7 57 34t65 40q10 -10 21 -30q-84 -61 -134 -99q-23 0 -33 1q-34 34 -100 98q16 19 28 29q55 -41 96 -73z" />
    <glyph glyph-name="tcaron" unicode="&#x165;" horiz-adv-x="345" 
d="M127 86v-1q0 -40 45 -40q44 0 114 20q4 -26 4 -43q-84 -31 -152 -31q-23 0 -48.5 17.5t-34.5 44.5q-2 12 -2 18q0 26 34 179q10 44 26 117h-78q1 5 3 14.5t3.5 17t2.5 13.5q49 4 74 5q7 0 8 7q4 15 13 48t12 45q35 17 66 17q2 0 2 -3q-9 -43 -25 -114q103 0 151 1
q-3 -30 -9 -51h-153q-3 -13 -13 -57t-14 -62q-29 -130 -29 -162zM384 608v-1q0 -45 -32 -84.5t-77 -62.5q-9 10 -21 28q65 42 65 82q0 24 -35 35q1 27 17 44t36 17q19 0 33 -17t14 -41z" />
    <glyph glyph-name="Umacron" unicode="&#x16a;" horiz-adv-x="647" 
d="M678 603l-65 -3l-58 -335q-24 -140 -100 -212q-65 -63 -172 -63q-103 0 -155 58q-35 39 -42 95t7 120l57 338l-65 2q6 32 9 47h105h123q-3 -24 -9 -47l-82 -3q-4 0 -6 -6l-56 -325q-21 -121 13 -172q36 -54 111 -54q70 0 123 47q23 21 44.5 66.5t31.5 105.5
q53 320 55 334q0 4 -4 4l-83 2q7 39 9 47h116q18 0 52 0.5t48 0.5q-4 -33 -7 -47zM521 787q-2 -18 -10 -51q-30 0 -103 0.5t-107 0.5q1 4 4 21.5t5 26.5q140 2 211 2z" />
    <glyph glyph-name="umacron" unicode="&#x16b;" horiz-adv-x="487" 
d="M116 367l-75 -8q-2 28 -4 42q30 6 63 13t51 11t20 4q5 0 14 -9t11 -17q-39 -121 -61 -223q-15 -66 -15 -94q0 -18 9 -27.5t22 -9.5q36 0 100 61.5t75 100.5q13 44 46 207q24 1 70 1q-67 -305 -80 -371q-2 -6 4 -6q21 0 72 16q6 -22 9 -41q-65 -26 -123 -26q-4 0 -13.5 9
t-14.5 18q10 51 20 97l-6 2q-116 -127 -185 -129q-38 6 -64 42q-12 16 -12 43q0 71 67 294zM387 556q-3 -26 -9 -48q-29 0 -98.5 0.5t-102.5 0.5q3 17 8 45q136 2 202 2z" />
    <glyph glyph-name="Uring" unicode="&#x16e;" horiz-adv-x="647" 
d="M678 603l-65 -3l-58 -335q-24 -140 -100 -212q-65 -63 -172 -63q-103 0 -155 58q-35 39 -42 95t7 120l57 338l-65 2q6 32 9 47h105h123q-3 -24 -9 -47l-82 -3q-4 0 -6 -6l-56 -325q-21 -121 13 -172q36 -54 111 -54q70 0 123 47q23 21 44.5 66.5t31.5 105.5
q53 320 55 334q0 4 -4 4l-83 2q7 39 9 47h116q18 0 52 0.5t48 0.5q-4 -33 -7 -47zM411 700h-1q-39 0 -64 20.5t-25 55.5q0 40 30.5 65.5t75.5 25.5q40 0 64.5 -21t24.5 -54q0 -36 -28.5 -64t-76.5 -28zM414 736h1q20 0 36 13.5t16 39.5q0 18 -11.5 30.5t-31.5 12.5
q-24 0 -39 -14.5t-15 -39.5q0 -18 13 -30t31 -12z" />
    <glyph glyph-name="uring" unicode="&#x16f;" horiz-adv-x="487" 
d="M116 367l-75 -8q-2 28 -4 42q30 6 63 13t51 11t20 4q5 0 14 -9t11 -17q-39 -121 -61 -223q-15 -66 -15 -94q0 -18 9 -27.5t22 -9.5q36 0 100 61.5t75 100.5q13 44 46 207q24 1 70 1q-67 -305 -80 -371q-2 -6 4 -6q21 0 72 16q6 -22 9 -41q-65 -26 -123 -26q-4 0 -13.5 9
t-14.5 18q10 51 20 97l-6 2q-116 -127 -185 -129q-38 6 -64 42q-12 16 -12 43q0 71 67 294zM298 651h1q36 0 59 -20.5t23 -51.5q0 -40 -30.5 -67t-72.5 -27q-35 0 -60 20.5t-25 53.5q0 40 30.5 66t74.5 26zM294 617h-1q-22 0 -37.5 -15t-15.5 -40q0 -18 12 -30.5t30 -12.5
q21 0 36.5 15t15.5 42q0 19 -11.5 30t-28.5 11z" />
    <glyph glyph-name="Uhungarumlaut" unicode="&#x170;" horiz-adv-x="647" 
d="M678 603l-65 -3l-58 -335q-24 -140 -100 -212q-65 -63 -172 -63q-103 0 -155 58q-35 39 -42 95t7 120l57 338l-65 2q6 32 9 47h105h123q-3 -24 -9 -47l-82 -3q-4 0 -6 -6l-56 -325q-21 -121 13 -172q36 -54 111 -54q70 0 123 47q23 21 44.5 66.5t31.5 105.5
q53 320 55 334q0 4 -4 4l-83 2q7 39 9 47h116q18 0 52 0.5t48 0.5q-4 -33 -7 -47zM461 856q17 -21 30 -48q-31 -17 -89.5 -49.5t-75.5 -42.5q-3 4 -22 34q93 62 157 106zM612 851q11 -15 28 -48q-6 -3 -68.5 -36.5t-95.5 -51.5q-13 19 -22 35q108 70 158 101z" />
    <glyph glyph-name="uhungarumlaut" unicode="&#x171;" horiz-adv-x="487" 
d="M116 367l-75 -8q-2 28 -4 42q30 6 63 13t51 11t20 4q5 0 14 -9t11 -17q-39 -121 -61 -223q-15 -66 -15 -94q0 -18 9 -27.5t22 -9.5q36 0 100 61.5t75 100.5q13 44 46 207q24 1 70 1q-67 -305 -80 -371q-2 -6 4 -6q21 0 72 16q6 -22 9 -41q-65 -26 -123 -26q-4 0 -13.5 9
t-14.5 18q10 51 20 97l-6 2q-116 -127 -185 -129q-38 6 -64 42q-12 16 -12 43q0 71 67 294zM296 636q18 -15 37 -42q-8 -6 -60 -46.5t-80 -62.5q-9 9 -27 29q70 65 130 122zM424 632q21 -21 35 -42q-33 -25 -139 -111l-27 30q20 19 65.5 62t65.5 61z" />
    <glyph glyph-name="Uogonek" unicode="&#x172;" horiz-adv-x="647" 
d="M343 -162l6 -35q-32 -17 -70 -17q-30 0 -54 18.5t-24 51.5t20 63.5t60 70.5q-105 3 -154 58q-34 39 -41 95t7 120l56 338l-64 2q6 32 9 47h104h123q-3 -24 -9 -47l-82 -3q-4 0 -6 -6l-56 -325q-21 -121 13 -172q38 -54 112 -54q70 0 123 47q23 21 44.5 66.5t31.5 105.5
q53 320 55 334q0 4 -4 4l-83 2q7 39 9 47h116q18 0 52 0.5t48 0.5q-4 -33 -7 -47l-65 -3l-58 -335q-24 -142 -100 -212q-17 -15 -29 -24.5t-36.5 -20.5t-57.5 -19q-20 -5 -44 -46t-24 -69q0 -20 11 -31.5t27 -11.5q20 0 41 7z" />
    <glyph glyph-name="uogonek" unicode="&#x173;" horiz-adv-x="487" 
d="M247 -123v1q0 52 75 115q-1 0 -3 2q-14 6 -23 24q3 22 20 96l-6 2q-118 -127 -185 -129q-38 6 -64 42q-12 16 -12 43q0 71 67 294l-75 -8q-2 28 -4 42q30 6 63 13t51 11t20 4q5 0 14 -9t11 -17q-38 -115 -61 -223q-15 -69 -15 -94q0 -38 31 -38q36 0 100 61.5t75 101.5
q18 71 46 207q24 1 70 1q-74 -338 -81 -372q0 -6 5 -6q18 0 71 17q6 -20 9 -41q-13 -5 -40.5 -12.5t-41.5 -14.5q-23 -10 -40 -40t-17 -59q0 -19 12 -29t30 -10q20 0 42 8q4 -18 5 -33q-38 -18 -71 -18q-29 0 -53.5 18.5t-24.5 49.5z" />
    <glyph glyph-name="Ydieresis" unicode="&#x178;" horiz-adv-x="533" 
d="M106 47l75 3q7 0 7 6l33 196q-51 137 -126 345q-2 4 -6 4l-51 3q1 5 4 21.5t5 24.5h91q25 0 70 0.5t63 0.5q-4 -27 -9 -47l-86 -3q44 -134 97 -291h7q125 175 192 286q2 5 -3 5l-80 2q8 38 10 47h126q13 0 41.5 0.5t39.5 0.5q-1 -5 -4 -21.5t-5 -24.5l-48 -4
q-233 -322 -253 -349l-35 -202l90 -3q-4 -29 -9 -47q-17 0 -59.5 0.5t-63.5 0.5q-19 0 -61 -0.5t-62 -0.5q2 8 5 24t5 23zM275 805h1q19 0 28.5 -12t9.5 -28q0 -18 -12.5 -31.5t-31.5 -13.5q-17 0 -29 10.5t-12 26.5q0 19 12.5 33.5t33.5 14.5zM441 805h1q19 0 28.5 -12
t9.5 -27q0 -19 -12 -32.5t-30 -13.5q-20 0 -31.5 11.5t-11.5 26.5q0 19 12 33t34 14z" />
    <glyph glyph-name="Zacute" unicode="&#x179;" horiz-adv-x="555" 
d="M469 592l-1 5q-243 2 -264 -3q-16 -4 -24 -23l-39 -106q-34 6 -50 9q43 156 49 176q5 0 37.5 -0.5t51.5 -0.5h319q6 -22 12 -57q-344 -395 -478 -536l1 -4q257 0 299 9q22 5 31 27l42 103q26 -5 50 -11q-21 -67 -61 -181q-4 0 -51.5 0.5t-113 0.5h-112.5h-168l-12 45
q55 60 140 156.5t190 217t152 173.5zM457 843q17 -26 31 -55q-27 -13 -89.5 -43.5t-88.5 -43.5q-13 19 -20 34q22 14 80.5 52t86.5 56z" />
    <glyph glyph-name="zacute" unicode="&#x17a;" horiz-adv-x="415" 
d="M298 368l-1 6q-78 0 -150 -2q-23 0 -28 -15l-30 -80q-23 3 -46 8q5 20 17 65.5t18 69.5q3 0 34.5 -0.5t59.5 -0.5h200q7 -22 12 -53q-44 -49 -144.5 -153.5t-160.5 -162.5l1 -5q128 0 180 4q24 2 33 21l33 78q23 -3 46 -10q-15 -54 -43 -139q-5 0 -46 0.5t-84 0.5h-107
h-86q-2 7 -7.5 20.5t-7.5 19.5q52 55 163 174t144 154zM328 632q15 -15 37 -47q-6 -4 -68 -47t-92 -63q-2 2 -25 31q28 23 81.5 69t66.5 57z" />
    <glyph glyph-name="Zdotaccent" unicode="&#x17b;" horiz-adv-x="555" 
d="M469 592l-1 5q-243 2 -264 -3q-16 -4 -24 -23l-39 -106q-34 6 -50 9q43 156 49 176q5 0 37.5 -0.5t51.5 -0.5h319q6 -22 12 -57q-344 -395 -478 -536l1 -4q257 0 299 9q22 5 31 27l42 103q26 -5 50 -11q-21 -67 -61 -181q-4 0 -51.5 0.5t-113 0.5h-112.5h-168l-12 45
q55 60 140 156.5t190 217t152 173.5zM376 828h1q20 0 31.5 -13.5t11.5 -31.5q0 -21 -14 -36t-37 -15q-19 0 -32 12.5t-13 31.5q0 22 14.5 37t37.5 15z" />
    <glyph glyph-name="zdotaccent" unicode="&#x17c;" horiz-adv-x="415" 
d="M298 368l-1 6q-78 0 -150 -2q-23 0 -28 -15l-30 -80q-23 3 -46 8q5 20 17 65.5t18 69.5q3 0 34.5 -0.5t59.5 -0.5h200q7 -22 12 -53q-44 -49 -144.5 -153.5t-160.5 -162.5l1 -5q128 0 180 4q24 2 33 21l33 78q23 -3 46 -10q-15 -54 -43 -139q-5 0 -46 0.5t-84 0.5h-107
h-86q-2 7 -7.5 20.5t-7.5 19.5q52 55 163 174t144 154zM242 594h1q20 0 31 -12.5t11 -29.5q0 -20 -13.5 -35t-34.5 -15q-19 0 -31.5 12.5t-12.5 30.5q0 20 14 34.5t35 14.5z" />
    <glyph glyph-name="Zcaron" unicode="&#x17d;" horiz-adv-x="555" 
d="M469 592l-1 5q-243 2 -264 -3q-16 -4 -24 -23l-39 -106q-34 6 -50 9q43 156 49 176q5 0 37.5 -0.5t51.5 -0.5h319q6 -22 12 -57q-344 -395 -478 -536l1 -4q257 0 299 9q22 5 31 27l42 103q26 -5 50 -11q-21 -67 -61 -181q-4 0 -51.5 0.5t-113 0.5h-112.5h-168l-12 45
q55 60 140 156.5t190 217t152 173.5zM365 768q12 7 57 34t65 40q10 -10 21 -30q-84 -61 -134 -99q-23 0 -33 1q-34 34 -100 98q16 19 28 29q55 -41 96 -73z" />
    <glyph glyph-name="zcaron" unicode="&#x17e;" horiz-adv-x="415" 
d="M298 368l-1 6q-78 0 -150 -2q-23 0 -28 -15l-30 -80q-23 3 -46 8q5 20 17 65.5t18 69.5q3 0 34.5 -0.5t59.5 -0.5h200q7 -22 12 -53q-44 -49 -144.5 -153.5t-160.5 -162.5l1 -5q128 0 180 4q24 2 33 21l33 78q23 -3 46 -10q-15 -54 -43 -139q-5 0 -46 0.5t-84 0.5h-107
h-86q-2 7 -7.5 20.5t-7.5 19.5q52 55 163 174t144 154zM248 540q22 17 66 54l43 37q15 -10 27 -26q-6 -6 -54.5 -53.5t-69.5 -67.5q-18 -2 -39 0q-4 7 -34 54.5t-46 72.5q12 10 31 21q12 -14 76 -92z" />
    <glyph glyph-name="florin" unicode="&#x192;" horiz-adv-x="512" 
d="M473 655h1q35 0 57 -12q-1 -13 -13 -34t-24 -28q-31 12 -77 12q-42 0 -72 -32q-26 -26 -41.5 -65.5t-32.5 -130.5q28 0 87.5 0.5t92.5 0.5q-4 -27 -11 -48q-124 0 -178 -1q-42 -220 -62 -286q-26 -86 -89 -137t-137 -51q-31 0 -53 8q2 13 13 32.5t22 28.5q33 -9 58 -9
q39 0 72.5 34t47.5 97q23 96 57 283h-106q1 11 9 46q70 2 99 2q5 0 8 7q17 91 37 134.5t63 81.5q76 67 172 67z" />
    <glyph glyph-name="Scommaaccent" unicode="&#x218;" horiz-adv-x="488" 
d="M402 485l-2 90q0 9 -4 13q-20 21 -78 21q-66 0 -100 -30q-47 -37 -47 -96q0 -41 23 -62t87 -54q10 -4 15 -7q69 -36 99 -72.5t30 -89.5q0 -97 -76 -157q-64 -51 -179 -51q-96 0 -148 29q8 79 15 156q16 3 50 3l2 -102q0 -10 5 -13q30 -22 94 -22q81 0 122 37
q42 36 42 100q0 25 -7.5 43t-28 34.5t-37.5 27t-54 29.5q-65 34 -96 69.5t-31 88.5q0 45 23.5 83.5t58.5 62.5q62 44 162 44q83 0 123 -26q-6 -77 -15 -147q-28 -2 -48 -2zM271 -125v-1q0 -49 -35 -92t-84 -69q-16 20 -23 31q71 46 71 89q0 28 -39 39q1 30 19 48.5t40 18.5
q21 0 36 -18.5t15 -45.5z" />
    <glyph glyph-name="scommaaccent" unicode="&#x219;" horiz-adv-x="365" 
d="M281 294l-4 65q-2 9 -6 12q-20 13 -53 13q-34 0 -56 -12q-37 -21 -37 -61q0 -18 9.5 -31t21 -19.5t39.5 -18.5q54 -24 79.5 -49.5t25.5 -65.5q0 -74 -69 -113q-41 -24 -123 -24q-65 0 -97 18q1 20 3 61t3 61q28 2 44 2l7 -73q0 -8 6 -11q20 -13 60 -13q44 0 66 15
q31 20 31 61q0 29 -16.5 43.5t-56.5 32.5q-52 22 -77 45.5t-25 66.5q0 36 22.5 65t52.5 44q45 21 110 21q61 0 94 -21q-2 -21 -5.5 -59.5t-4.5 -52.5q-26 -2 -44 -2zM179 -116v-1q0 -45 -32 -84.5t-77 -62.5q-13 15 -21 28q65 42 65 82q0 24 -35 35q1 27 17 44t36 17
q19 0 33 -17t14 -41z" />
    <glyph glyph-name="uni021A" unicode="&#x21a;" horiz-adv-x="558" 
d="M122 46l79 3q5 0 5 4l92 547q-92 0 -137 -3q-22 -2 -28 -19l-29 -96q-5 0 -50 3q6 31 18 87.5t16 77.5q10 0 41 -0.5t52 -0.5h167q146 0 168 1q62 0 83 1q-6 -58 -22 -165q-15 -2 -49 -4l2 97q0 9 -4 13t-17 5q-34 3 -135 3l-95 -550l96 -3q-4 -27 -9 -47q-18 0 -62 0.5
t-65 0.5t-63 -0.5t-62 -0.5q2 8 4 23t4 23zM300 -100v-1q0 -49 -35 -92t-84 -69q-16 20 -23 31q71 46 71 89q0 28 -39 39q1 30 19 48.5t40 18.5q21 0 36 -18.5t15 -45.5z" />
    <glyph glyph-name="uni021B" unicode="&#x21b;" horiz-adv-x="345" 
d="M128 86v-1q0 -40 45 -40q44 0 114 20q2 -11 4 -43q-84 -31 -153 -31q-22 0 -47.5 17.5t-33.5 44.5q-3 9 -3 18q0 26 34 179q10 44 26 117h-78q1 5 3 14.5t3.5 17t2.5 13.5q50 4 74 5q7 0 8 7q4 15 13 48t12 45q37 17 65 17q3 0 3 -4q-9 -45 -25 -113q102 0 151 1
q-3 -23 -10 -51h-152q-12 -46 -27 -119q-29 -130 -29 -162zM171 -114v-1q0 -45 -32 -84.5t-77 -62.5q-13 15 -21 28q65 42 65 82q0 24 -35 35q1 27 17 44t36 17q19 0 33 -17t14 -41z" />
    <glyph glyph-name="circumflex" unicode="&#x2c6;" horiz-adv-x="458" 
d="M276 561q-15 -13 -51.5 -43.5t-52.5 -43.5q-10 8 -26 27q20 20 60.5 60t57.5 57h38q13 -19 41.5 -62.5t37.5 -56.5q-12 -11 -31 -24q-48 57 -74 86z" />
    <glyph glyph-name="caron" unicode="&#x2c7;" horiz-adv-x="458" 
d="M264 540q22 17 66 54l43 37q15 -10 27 -26q-6 -6 -54.5 -53.5t-69.5 -67.5q-18 -2 -39 0q-4 7 -34 54.5t-46 72.5q12 10 31 21q12 -14 76 -92z" />
    <glyph glyph-name="uni02C9" unicode="&#x2c9;" horiz-adv-x="458" 
d="M372 554q-3 -26 -9 -48q-29 0 -98.5 0.5t-102.5 0.5q2 17 8 45q136 2 202 2z" />
    <glyph glyph-name="breve" unicode="&#x2d8;" horiz-adv-x="458" 
d="M261 487h-1q-41 0 -67 28.5t-30 66.5q25 10 39 12q17 -57 66 -57q52 0 78 54q26 -4 40 -9q-12 -38 -44.5 -66.5t-80.5 -28.5z" />
    <glyph glyph-name="dotaccent" unicode="&#x2d9;" horiz-adv-x="458" 
d="M266 594h1q20 0 31 -12.5t11 -29.5q0 -20 -13.5 -35t-34.5 -15q-19 0 -31.5 12.5t-12.5 30.5q0 20 14 34.5t35 14.5z" />
    <glyph glyph-name="ring" unicode="&#x2da;" horiz-adv-x="458" 
d="M283 651h1q36 0 59 -20.5t23 -51.5q0 -40 -30.5 -67t-72.5 -27q-35 0 -60 20.5t-25 53.5q0 40 30.5 66t74.5 26zM279 617h-1q-22 0 -37.5 -15t-15.5 -40q0 -18 12.5 -30.5t29.5 -12.5q21 0 36.5 15t15.5 42q0 19 -11.5 30t-28.5 11z" />
    <glyph glyph-name="ogonek" unicode="&#x2db;" horiz-adv-x="458" 
d="M167 -94v1q0 52 79 118h37q-56 -56 -56 -105q0 -19 12 -29t30 -10q20 0 42 8q4 -18 5 -33q-38 -18 -71 -18q-29 0 -53.5 18.5t-24.5 49.5z" />
    <glyph glyph-name="tilde" unicode="&#x2dc;" horiz-adv-x="458" 
d="M231 597h1q9 0 18.5 -4t14.5 -7t16 -11.5t13 -9.5q28 -22 41 -22q25 0 36 52h36q-6 -45 -27 -74.5t-53 -29.5q-19 0 -56 28q-34 28 -47 28q-24 0 -39 -49h-37q8 45 31 72.5t52 26.5z" />
    <glyph glyph-name="hungarumlaut" unicode="&#x2dd;" horiz-adv-x="458" 
d="M281 636q18 -15 37 -42q-8 -6 -60 -46.5t-80 -62.5q-9 9 -27 29q70 65 130 122zM409 632q21 -21 35 -42q-33 -25 -139 -111l-27 30q20 19 65.5 62t65.5 61z" />
    <glyph glyph-name="Delta" unicode="&#x394;" horiz-adv-x="599" 
d="M-2 43l339 612h79l115 -612l-8 -43h-532zM458 59l-70 372q-11 54 -24 153h-4q-20 -44 -69 -134l-210 -391h377z" />
    <glyph glyph-name="Delta" unicode="&#x2206;" horiz-adv-x="599" 
d="M-2 43l339 612h79l115 -612l-8 -43h-532zM458 59l-70 372q-11 54 -24 153h-4q-20 -44 -69 -134l-210 -391h377z" />
    <glyph glyph-name="Omega" unicode="&#x3a9;" horiz-adv-x="684" 
d="M244 48l-9 -48h-229l11 58h141v3q-38 38 -63 97t-25 125q0 159 95.5 268t237.5 109q114 0 182 -74t68 -183q0 -112 -53 -201t-128 -141v-3h131l-9 -58h-231l9 48q81 46 143.5 139.5t62.5 206.5q0 85 -47 146t-134 61q-76 0 -136 -49.5t-88.5 -120.5t-28.5 -146
q0 -81 28 -142t72 -95z" />
    <glyph glyph-name="Omega" unicode="&#x2126;" horiz-adv-x="684" 
d="M244 48l-9 -48h-229l11 58h141v3q-38 38 -63 97t-25 125q0 159 95.5 268t237.5 109q114 0 182 -74t68 -183q0 -112 -53 -201t-128 -141v-3h131l-9 -58h-231l9 48q81 46 143.5 139.5t62.5 206.5q0 85 -47 146t-134 61q-76 0 -136 -49.5t-88.5 -120.5t-28.5 -146
q0 -81 28 -142t72 -95z" />
    <glyph glyph-name="pi" unicode="&#x3c0;" horiz-adv-x="545" 
d="M536 419h-69l-50 -275q-18 -98 -12 -144h-68q-12 32 8 137l52 282h-157q-4 -15 -12 -49t-13 -52q-63 -234 -121 -318h-70q66 106 121 316q12 43 25 103q-64 0 -101 -10l-2 44q30 24 128 24h355z" />
    <glyph glyph-name="figuredash" unicode="&#x2012;" horiz-adv-x="512" 
d="M255 273h-1h-219q3 22 8 50h221q40 0 115 0.5t113 1.5q-2 -15 -9 -52h-228z" />
    <glyph glyph-name="endash" unicode="&#x2013;" horiz-adv-x="500" 
d="M238 223h-1h-208q1 9 4 27t4 26h210q85 0 219 2q-6 -38 -10 -55h-218z" />
    <glyph glyph-name="emdash" unicode="&#x2014;" horiz-adv-x="1000" 
d="M478 223h-1h-448q3 23 8 53q295 0 443 1q81 0 243 0.5t243 0.5q-5 -35 -9 -55h-479z" />
    <glyph glyph-name="quoteleft" unicode="&#x2018;" horiz-adv-x="181" 
d="M134 476h-1q-19 0 -34.5 19.5t-15.5 45.5q0 49 34.5 93.5t84.5 69.5q12 -14 24 -32q-71 -45 -71 -90q0 -28 38 -38q-1 -30 -18.5 -49t-40.5 -19z" />
    <glyph glyph-name="quoteright" unicode="&#x2019;" horiz-adv-x="181" 
d="M201 633v-1q0 -48 -34 -91t-84 -70q-21 26 -24 31q70 44 70 90q0 28 -38 37q1 30 18.5 49.5t40.5 19.5q20 0 35.5 -19t15.5 -46z" />
    <glyph glyph-name="quotesinglbase" unicode="&#x201a;" horiz-adv-x="224" 
d="M91 94h1q20 0 35.5 -19t15.5 -46q0 -49 -34 -92t-84 -70q-18 23 -24 31q70 46 70 90q0 28 -38 37q1 30 18.5 49.5t39.5 19.5z" />
    <glyph glyph-name="quotedblleft" unicode="&#x201c;" horiz-adv-x="332" 
d="M133 481h-1q-19 0 -34.5 18.5t-15.5 44.5q0 48 33 90.5t83 69.5q12 -12 24 -31q-69 -45 -69 -89q0 -27 38 -37q-1 -29 -18.5 -47.5t-39.5 -18.5zM287 481h-1q-19 0 -34.5 18.5t-15.5 44.5q0 48 33.5 91.5t82.5 68.5q12 -12 24 -31q-69 -46 -69 -89q0 -27 38 -37
q-1 -29 -18.5 -47.5t-39.5 -18.5z" />
    <glyph glyph-name="quotedblright" unicode="&#x201d;" horiz-adv-x="332" 
d="M147 698h1q19 0 34.5 -18.5t15.5 -44.5q0 -48 -33.5 -91t-82.5 -68q-16 20 -23 30q68 44 68 89q0 27 -38 36q1 29 19 48t39 19zM301 698h1q19 0 34.5 -18.5t15.5 -44.5q0 -48 -33.5 -91t-82.5 -68q-15 17 -23 30q68 45 68 89q0 26 -38 36q1 30 18.5 48.5t39.5 18.5z" />
    <glyph glyph-name="quotedblbase" unicode="&#x201e;" horiz-adv-x="372" 
d="M88 94h1q19 0 34.5 -18.5t15.5 -44.5q0 -48 -33.5 -90.5t-82.5 -68.5q-16 20 -23 30q68 44 68 89q0 27 -38 36q1 29 19 48t39 19zM242 94h1q19 0 34.5 -18.5t15.5 -44.5q0 -48 -33.5 -91t-82.5 -68q-15 17 -23 30q68 45 68 89q0 26 -38 36q1 30 18.5 48.5t39.5 18.5z" />
    <glyph glyph-name="dagger" unicode="&#x2020;" horiz-adv-x="443" 
d="M314 652h1q1 -2 0 -4q-18 -87 -43 -217q24 0 76 0.5t79 0.5q-2 -30 -8 -53h-156q-88 -444 -103 -519l-56 -4q14 83 45.5 267.5t43.5 255.5h-144q3 27 8 50q92 2 136 2q7 0 9 7q8 40 19.5 112t14.5 87q34 15 78 15z" />
    <glyph glyph-name="daggerdbl" unicode="&#x2021;" horiz-adv-x="445" 
d="M322 652h1v-5q-1 -4 -18 -87t-26 -129q26 0 77.5 0.5t78.5 0.5q-2 -31 -8 -53h-157q-15 -76 -45 -230h157q-1 -22 -7 -50q-23 0 -79.5 -0.5t-80.5 -0.5q-26 -134 -47 -237q-7 -1 -17.5 -1.5t-22 -1.5t-15.5 -1q5 32 19.5 114.5t21.5 125.5q-90 0 -146 -1q1 20 9 53h140
q6 0 7 7q6 31 19 110t19 113h-144q2 26 8 50q90 2 136 2q8 0 10 7l33 198q32 16 77 16z" />
    <glyph glyph-name="bullet" unicode="&#x2022;" horiz-adv-x="308" 
d="M249 269v-1q0 -41 -27.5 -71t-68.5 -30q-45 0 -71 27.5t-26 69.5q0 40 28.5 72.5t71.5 32.5t68 -30t25 -70z" />
    <glyph glyph-name="onedotenleader" unicode="&#x2024;" horiz-adv-x="261" 
d="M125 99h1q27 0 39 -17t12 -36q0 -23 -16 -39t-39 -16q-24 0 -38 14.5t-14 37.5q0 21 15 38.5t40 17.5z" />
    <glyph glyph-name="twodotenleader" unicode="&#x2025;" horiz-adv-x="522" 
d="M125 99h1q27 0 39 -17t12 -36q0 -23 -16 -39t-39 -16q-24 0 -38 14.5t-14 37.5q0 21 15 38.5t40 17.5zM386 99h1q27 0 39 -17t12 -36q0 -23 -16 -39t-39 -16q-24 0 -38 14.5t-14 37.5q0 21 15 38.5t40 17.5z" />
    <glyph glyph-name="ellipsis" unicode="&#x2026;" horiz-adv-x="783" 
d="M125 99h1q27 0 39 -17t12 -36q0 -23 -16 -39t-39 -16q-24 0 -38 14.5t-14 37.5q0 21 15 38.5t40 17.5zM386 99h1q27 0 39 -17t12 -36q0 -23 -16 -39t-39 -16q-24 0 -38 14.5t-14 37.5q0 21 15 38.5t40 17.5zM647 99h1q27 0 39 -17t12 -36q0 -23 -16 -39t-39 -16
q-24 0 -38 14.5t-14 37.5q0 21 15 38.5t40 17.5z" />
    <glyph glyph-name="perthousand" unicode="&#x2030;" horiz-adv-x="1094" 
d="M558 613l-2 4q-76 -1 -237 -1q30 -32 30 -95q0 -93 -69 -156q-43 -38 -104 -38q-51 0 -82 31q-38 36 -38 101q0 42 19.5 85.5t54.5 72.5q44 37 103 37q295 0 378 6q13 -19 19 -33q-41 -55 -121.5 -166t-105.5 -145q-172 -239 -247 -341q-18 9 -41 25q105 141 248 341
q13 18 85 118.5t110 153.5zM185 366h1q33 0 56 24q45 47 45 139q0 41 -16 63q-16 23 -48 23q-33 0 -56 -22q-23 -21 -35.5 -61.5t-12.5 -79.5q0 -44 20 -66q17 -20 46 -20zM528 -10h-1q-50 0 -81 31q-38 36 -38 99q0 43 19 86.5t52 72.5q46 39 102 39q57 0 87 -36
q32 -34 32 -98q0 -39 -18 -82t-51 -74q-45 -38 -103 -38zM870 -10h-1q-50 0 -81 31q-38 36 -38 99q0 43 19 86.5t52 72.5q46 39 102 39q57 0 87 -36q32 -34 32 -98q0 -39 -18 -82t-51 -74q-45 -38 -103 -38zM537 29h1q34 0 56 25q18 19 31 56.5t13 79.5t-15 64
q-18 25 -49 25q-32 0 -55 -22t-35.5 -62.5t-12.5 -79.5q0 -44 19 -66q18 -20 47 -20zM879 29h1q34 0 56 25q18 19 31 56.5t13 79.5t-15 64q-18 25 -49 25q-32 0 -55 -22t-35.5 -62.5t-12.5 -79.5q0 -44 19 -66q18 -20 47 -20z" />
    <glyph glyph-name="guilsinglleft" unicode="&#x2039;" horiz-adv-x="265" 
d="M113 217q25 -49 79 -140q-21 -17 -36 -26q-69 93 -116 149q0 6 6 39q92 82 161 147q19 -17 29 -31z" />
    <glyph glyph-name="guilsinglright" unicode="&#x203a;" horiz-adv-x="265" 
d="M133 221q-46 82 -79 139q9 8 36 26q73 -99 116 -149q-2 -23 -6 -39q-31 -28 -87 -79.5t-74 -67.5q-6 5 -29 31q58 61 123 139z" />
    <glyph glyph-name="fraction" unicode="&#x2044;" horiz-adv-x="433" 
d="M470 634q-38 -53 -249 -351q-36 -51 -117.5 -164.5t-95.5 -133.5q-12 6 -38 22q69 96 211 296q125 177 250 356q23 -11 39 -25z" />
    <glyph glyph-name="zerosuperior" unicode="&#x2070;" 
d="M328 644v-1q0 -57 -20.5 -110.5t-53.5 -80.5q-35 -29 -84 -29q-41 0 -68 29t-27 87q0 48 17.5 99t49.5 82q37 36 90 36q46 0 71 -32q25 -33 25 -80zM223 721h-1q-22 0 -38 -19q-22 -23 -35.5 -71.5t-13.5 -95.5q0 -40 11 -57q11 -19 32 -19q25 0 40 18q22 24 36 71.5
t14 98.5q0 43 -14 59q-11 15 -31 15z" />
    <glyph glyph-name="foursuperior" unicode="&#x2074;" 
d="M151 463l54 1q2 0 2 2q3 12 7 43h-150q-3 8 -13 37q33 36 98 105q19 20 53.5 55.5t44.5 46.5q22 0 58 -2q-19 -112 -34 -205h60q-2 -21 -7 -36h-60q-2 -7 -4 -23t-4 -23l45 -1q-1 -13 -5 -32h-73h-77q1 5 2.5 16t2.5 16zM248 699h-6q-23 -27 -70 -75q-51 -56 -66 -73
q-5 -5 1 -5h113z" />
    <glyph glyph-name="fivesuperior" unicode="&#x2075;" 
d="M305 546v-1q0 -53 -41 -88q-44 -34 -118 -34q-51 0 -75 8q0 13 -1.5 41.5t-2.5 42.5q11 2 41 4l7 -48q0 -3 3 -5q14 -6 38 -6q38 0 64 20q26 21 26 56q0 25 -19.5 43.5t-64.5 18.5q-18 0 -62 -4l-3 3q11 40 41 152h96h94q-4 -30 -8 -42h-144q-4 -11 -11.5 -35t-11.5 -36
q28 2 37 2q52 0 83.5 -25t31.5 -67z" />
    <glyph glyph-name="sixsuperior" unicode="&#x2076;" 
d="M143 603l2 -1q42 30 85 30q41 0 65 -28q20 -23 20 -59q0 -25 -12 -52t-35 -44q-35 -26 -83 -26q-47 0 -72 24q-34 31 -34 89q0 51 18.5 98t48.5 77q47 45 113 45q35 0 63 -8q0 -49 -1 -76q-25 -4 -41 -5l-5 40q-1 4 -6 8q-6 3 -23 3q-37 0 -58 -25q-30 -34 -45 -90z
M210 591h-1q-40 0 -70 -35q-10 -51 11 -78q15 -20 40 -20q27 0 44 17q24 24 24 64q0 24 -13 38q-10 14 -35 14z" />
    <glyph glyph-name="sevensuperior" unicode="&#x2077;" 
d="M282 704l-1 2q-113 0 -125 -1q-9 0 -15 -10l-14 -42q-29 4 -40 7q3 12 11 42t12 46h62h159q5 -14 9 -40q-78 -103 -133 -220q-12 -25 -17 -59q-32 -2 -59 -2q4 34 20 64q53 100 131 213z" />
    <glyph glyph-name="eightsuperior" unicode="&#x2078;" 
d="M253 600v-2q60 -24 60 -75q0 -49 -47 -78q-35 -22 -90 -22q-58 0 -87 24q-25 21 -25 55q0 31 23.5 56.5t63.5 40.5v2q-44 26 -44 66q0 46 44 71q31 18 75 18q46 0 72 -21q25 -20 25 -51q0 -53 -70 -84zM161 672v-1q0 -19 12 -31.5t41 -24.5q55 22 55 65q0 19 -11 30
q-12 14 -37 14t-40 -12q-20 -13 -20 -40zM256 516v1q0 25 -16.5 39.5t-54.5 27.5q-28 -12 -46 -32.5t-18 -44.5q0 -25 16 -38q16 -14 46 -14q32 0 50 15q23 18 23 46z" />
    <glyph glyph-name="ninesuperior" unicode="&#x2079;" 
d="M259 577l-4 1q-33 -26 -77 -26q-42 0 -67 24q-25 23 -25 64q0 47 38 83q35 33 92 33q48 0 76 -31q29 -31 29 -85t-20.5 -106t-55.5 -78q-42 -33 -102 -33q-39 0 -65 8q-1 13 -2.5 38t-2.5 37q19 4 41 6l8 -43q0 -3 4 -5q10 -5 28 -5q33 0 59 23q31 29 46 95zM194 589h1
q34 0 65 32q10 51 -8 78q-13 23 -44 23q-28 0 -44 -18q-21 -24 -21 -58q0 -27 13 -42q12 -15 38 -15z" />
    <glyph glyph-name="parenleftsuperior" unicode="&#x207d;" horiz-adv-x="189" 
d="M82 531v1q0 83 49.5 160t118.5 111q7 -8 13 -27q-49 -33 -87.5 -101.5t-38.5 -147.5q0 -84 54 -146q-9 -11 -23 -23q-86 62 -86 173z" />
    <glyph glyph-name="parenrightsuperior" unicode="&#x207e;" horiz-adv-x="189" 
d="M187 630v-1q0 -84 -49 -158.5t-119 -113.5q-3 4 -16 28q52 37 90.5 101.5t38.5 146.5q0 89 -55 144q6 8 22 26q88 -63 88 -173z" />
    <glyph glyph-name="nsuperior" unicode="&#x207f;" horiz-adv-x="392" 
d="M126 595l-58 -6q-2 24 -2 35q21 4 44.5 9.5t37.5 8.5t16 3q4 0 11 -5.5t10 -10.5l-19 -76l5 -2q41 46 82 70t71 25q32 -5 51 -39q3 -12 3 -23q0 -55 -58 -219q-2 -5 3 -5q12 0 53 12q4 -25 5 -34q-52 -18 -102 -18q-4 0 -11 7.5t-10 15.5q37 114 46 151q14 59 14 72
q0 26 -22 26q-33 0 -82.5 -44t-58.5 -77q-3 -11 -18 -69.5t-19 -74.5h-56q9 36 32.5 134.5t31.5 133.5z" />
    <glyph glyph-name="zeroinferior" unicode="&#x2080;" 
d="M279 105v-1q0 -57 -20.5 -110.5t-53.5 -80.5q-35 -29 -84 -29q-41 0 -68 29t-27 87q0 48 17.5 99t49.5 82q37 36 90 36q46 0 71 -32q25 -33 25 -80zM174 182h-1q-22 0 -38 -19q-22 -23 -35.5 -71.5t-13.5 -95.5q0 -40 11 -57q11 -19 32 -19q25 0 40 18q22 24 36 71.5
t14 98.5q0 43 -14 59q-11 15 -31 15z" />
    <glyph glyph-name="oneinferior" unicode="&#x2081;" 
d="M32 -72l77 2q2 0 2 2q31 181 38 218q-41 -7 -83 -17q-4 23 -5 37q30 7 67 19.5t61 21t28 8.5q3 0 1 -3q-30 -170 -51 -286l80 -1q-5 -27 -7 -37h-110h-105q4 27 7 36z" />
    <glyph glyph-name="twoinferior" unicode="&#x2082;" 
d="M266 128v-1q0 -67 -112 -152q-8 -6 -56 -38l1 -4q19 1 74 3.5t70 2.5q1 0 1 -2q0 -21 -7 -45h-146h-76q-3 9 -7 29q60 39 100 71q97 75 97 133q0 23 -12 38q-14 16 -41 16q-30 0 -46 -12q-2 -1 -3 -6l-16 -53q-25 4 -40 5q2 12 8 41.5t9 44.5q38 18 94 18q62 0 88 -29
q20 -21 20 -60z" />
    <glyph glyph-name="threeinferior" unicode="&#x2083;" 
d="M182 64l-1 -6q35 -4 54 -24.5t19 -49.5q0 -45 -44 -75q-36 -25 -113 -25q-51 0 -78 6q0 14 -1.5 43t-2.5 44q13 3 41 5l9 -49q1 -1 2 -3l1 -2q21 -7 42 -7q41 0 61 16q21 16 21 44q0 27 -20 41.5t-54 14.5h-38q2 26 4 37q53 -2 88.5 15.5t35.5 48.5q0 17 -12 29
q-13 13 -44 13q-30 0 -45 -11q-4 -2 -4 -5l-14 -45q-12 2 -40 4q6 35 15 77q45 17 99 17q58 0 85 -25q21 -21 21 -48q0 -29 -22.5 -50.5t-64.5 -29.5z" />
    <glyph glyph-name="fourinferior" unicode="&#x2084;" 
d="M102 -76l54 1q2 0 2 2q3 12 7 43h-150q-3 8 -13 37q33 36 98 105q19 20 53.5 55.5t44.5 46.5q22 0 58 -2q-19 -112 -34 -205h60q-2 -21 -7 -36h-60q-1 -7 -4 -23t-4 -23l45 -1q-1 -13 -5 -32h-73h-77q1 5 2.5 16t2.5 16zM199 160h-6q-23 -27 -70 -75q-51 -56 -66 -73
q-5 -5 1 -5h113z" />
    <glyph glyph-name="fiveinferior" unicode="&#x2085;" 
d="M256 7v-1q0 -53 -41 -88q-44 -34 -118 -34q-51 0 -75 8q0 13 -1.5 41.5t-2.5 42.5q11 2 41 4l7 -48q0 -4 3 -5q13 -6 38 -6q38 0 64 20q26 21 26 56q0 25 -19.5 43.5t-64.5 18.5q-18 0 -62 -4l-3 3q11 40 41 152h96h94q-4 -30 -8 -42h-144q-4 -12 -11.5 -36t-11.5 -35
q28 2 37 2q52 0 83.5 -25t31.5 -67z" />
    <glyph glyph-name="sixinferior" unicode="&#x2086;" 
d="M94 64l2 -1q42 30 85 30q41 0 65 -28q20 -23 20 -59q0 -25 -12 -52t-35 -44q-35 -26 -83 -26q-46 0 -72 24q-34 31 -34 89q0 51 18.5 98t48.5 77q47 45 113 45q35 0 63 -8q0 -49 -1 -76q-25 -4 -41 -5l-5 40q-1 4 -6 8q-6 3 -23 3q-37 0 -58 -25q-30 -34 -45 -90zM161 52
h-1q-40 0 -70 -35q-10 -51 11 -78q15 -20 40 -20q27 0 44 17q24 24 24 64q0 24 -13 38q-10 14 -35 14z" />
    <glyph glyph-name="seveninferior" unicode="&#x2087;" 
d="M233 165l-1 2q-113 0 -125 -1q-9 0 -15 -10l-14 -42q-29 4 -40 7q3 12 11 42t12 46h62h159q5 -14 9 -40q-78 -103 -133 -220q-12 -25 -17 -59q-32 -2 -59 -2q4 34 20 64q53 100 131 213z" />
    <glyph glyph-name="eightinferior" unicode="&#x2088;" 
d="M204 61v-2q60 -24 60 -75q0 -49 -47 -78q-35 -22 -90 -22q-59 0 -87 24q-25 21 -25 55q0 31 23.5 56.5t63.5 40.5v2q-44 26 -44 66q0 46 44 71q31 18 75 18q47 0 72 -21q25 -20 25 -51q0 -53 -70 -84zM112 133v-1q0 -19 12 -31.5t41 -24.5q55 22 55 65q0 19 -11 30
q-12 14 -37 14t-40 -12q-20 -13 -20 -40zM207 -23v1q0 25 -16.5 39.5t-54.5 27.5q-28 -12 -46 -32.5t-18 -44.5q0 -25 16 -38q16 -14 46 -14q32 0 50 15q23 18 23 46z" />
    <glyph glyph-name="nineinferior" unicode="&#x2089;" 
d="M210 38l-4 1q-33 -26 -77 -26q-42 0 -67 24q-25 23 -25 64q0 47 38 83q35 33 92 33q48 0 76 -31q29 -31 29 -85t-20.5 -106t-55.5 -78q-42 -33 -102 -33q-39 0 -65 8q-1 13 -2.5 38t-2.5 37q18 4 41 6l8 -43q0 -3 4 -5q10 -5 28 -5q33 0 59 23q31 29 46 95zM145 50h1
q34 0 65 32q10 51 -8 78q-13 23 -44 23q-27 0 -44 -18q-21 -25 -21 -58q0 -27 13 -42q12 -15 38 -15z" />
    <glyph glyph-name="parenleftinferior" unicode="&#x208d;" horiz-adv-x="189" 
d="M33 -8v1q0 83 49.5 160t118.5 111q7 -8 13 -27q-49 -33 -87.5 -101.5t-38.5 -147.5q0 -84 54 -146q-9 -11 -23 -23q-86 62 -86 173z" />
    <glyph glyph-name="parenrightinferior" unicode="&#x208e;" horiz-adv-x="189" 
d="M138 91v-1q0 -84 -49 -158.5t-119 -113.5q-3 4 -16 28q52 37 90.5 101.5t38.5 146.5q0 89 -55 144q6 8 22 26q88 -63 88 -173z" />
    <glyph glyph-name="colonmonetary" unicode="&#x20a1;" horiz-adv-x="513" 
d="M276 590l24 117q27 3 46 2l-24 -110q32 7 63 7l22 102q29 2 45 1l-23 -104q30 -1 60.5 -9t40.5 -18q-1 -16 -12.5 -34.5t-24.5 -26.5q-11 11 -33.5 21.5t-41.5 11.5l-99 -466q56 3 135 32q4 -28 4 -47q-92 -33 -150 -37l-23 -107q-13 -1 -41 -1l22 107q-38 2 -61 8
l-27 -113q-28 -2 -41 -1l29 126q-54 23 -86.5 74.5t-32.5 132.5q0 111 62.5 206t166.5 126zM278 83l98 471q-36 2 -66 -7l-92 -453q24 -9 60 -11zM180 111l85 423q-61 -27 -103 -99t-42 -172q0 -114 60 -152z" />
    <glyph glyph-name="Euro" unicode="&#x20ac;" horiz-adv-x="512" 
d="M-4 237l5 41h49q3 39 11 67h-50l5 41h58q43 121 146 198q95 70 218 70q76 0 120 -22q-1 -9 -8.5 -73t-12.5 -97q-32 -2 -51 -2l3 110q0 10 -4 13q-26 16 -77 16q-88 0 -155 -60q-70 -61 -102 -153h268l-5 -41h-275q-7 -32 -9 -67h273l-5 -41h-268q5 -77 37 -122
q21 -30 59.5 -49t85.5 -19q61 0 167 36q3 -21 3 -50q-121 -43 -190 -43q-100 0 -171 65q-70 65 -72 182h-53z" />
    <glyph glyph-name="afii61289" unicode="&#x2113;" horiz-adv-x="445" 
d="M367 142l34 -34q-70 -115 -185 -115q-71 0 -104.5 44.5t-29.5 114.5l1 11q-21 -15 -57 -37l-18 40q53 33 84 58l51 265q20 106 66 157.5t106 51.5q46 0 73 -31.5t27 -82.5q0 -169 -260 -378l-2 -15q-16 -136 79 -136q69 0 135 87zM211 504l-43 -226q186 166 186 300
q0 66 -48 66q-30 0 -56 -35.5t-39 -104.5z" />
    <glyph glyph-name="trademark" unicode="&#x2122;" horiz-adv-x="618" 
d="M124 430l37 1v187q-32 0 -47 -3l-8 -50q-10 0 -32 2q2 76 3 83q36 -1 111 -1q19 0 53 0.5t50 0.5q2 -52 4 -83q-10 0 -34 -2l-6 50q-17 3 -48 3v-187h40q0 -23 -1 -33q-8 0 -28 0.5t-32 0.5q-11 0 -31.5 -0.5t-30.5 -0.5v32zM318 430l33 1q1 60 1 187h-33v31h95
q7 -22 27.5 -86.5t31.5 -95.5h4q49 145 60 182h90v-31h-33v-187l34 -1v-32q-8 0 -26 0.5t-28 0.5q-9 0 -24 -0.5t-21 -0.5q0 21 1 32l24 1q2 106 2 160h-6q-20 -65 -62 -181h-33q-27 71 -61 184h-6q1 -49 1 -163l25 -1q0 -22 -1 -32q-5 0 -20 0.5t-24 0.5t-26 -0.5t-25 -0.5
v32z" />
    <glyph glyph-name="estimated" unicode="&#x212e;" horiz-adv-x="816" 
d="M798 312h-603q-5 0 -5 -5v-181q0 -12 8 -22q92 -98 229 -98q144 0 239 110h54q-51 -60 -128.5 -95t-165.5 -35q-154 0 -263.5 97.5t-109.5 236.5t109.5 237.5t263.5 98.5t263 -98.5t109 -237.5v-8zM661 336v183q0 13 -9 22q-93 95 -225 95q-133 0 -228 -97q-9 -9 -9 -24
v-179q0 -5 5 -5h462q4 0 4 5z" />
    <glyph glyph-name="onethird" unicode="&#x2153;" horiz-adv-x="764" 
d="M78 363l77 2q2 0 2 2q18 98 38 218q-41 -7 -83 -17q-4 23 -5 37q30 7 67 19.5t61.5 21t28.5 8.5q1 0 1 -3q-6 -35 -24 -134.5t-28 -151.5l80 -1q-5 -27 -7 -37h-110h-105q4 27 7 36zM638 634q-167 -235 -249 -351q-76 -109 -214 -298q-22 11 -37 22q87 119 211 296
q125 177 250 356q23 -11 39 -25zM617 172l-1 -6q35 -4 54 -24.5t19 -49.5q0 -45 -44 -75q-36 -25 -113 -25q-50 0 -77 6q0 14 -1.5 43t-2.5 44q13 3 41 5l9 -49q1 -1 2 -3l1 -2q21 -7 41 -7q43 0 61 16q21 16 21 44q0 26 -20 41t-53 15h-38q2 26 4 37q52 -2 87.5 15.5
t35.5 48.5q0 17 -12 29q-13 13 -44 13q-29 0 -45 -11q-4 -3 -4 -5l-13 -45q-12 2 -40 4q6 35 15 77q45 17 98 17q58 0 85 -25q21 -21 21 -48q0 -29 -22.5 -50.5t-64.5 -29.5z" />
    <glyph glyph-name="twothirds" unicode="&#x2154;" horiz-adv-x="764" 
d="M316 563v-1q0 -67 -112 -152q-8 -6 -56 -38l1 -4q19 1 74 3.5t70 2.5q1 0 1 -2q0 -20 -7 -45h-146h-76q-3 9 -7 29q60 39 100 71q97 75 97 133q0 23 -12 38q-14 16 -41 16q-30 0 -46 -12q-2 -2 -3 -6l-16 -53q-25 4 -40 5q2 12 8 41.5t9 44.5q38 18 94 18q62 0 88 -29
q20 -21 20 -60zM643 634q-167 -235 -249 -351q-46 -66 -213 -298q-20 10 -38 22q121 165 211 296q125 177 250 356q23 -11 39 -25zM623 172l-1 -6q35 -4 54 -24.5t19 -49.5q0 -45 -44 -75q-36 -25 -113 -25q-51 0 -78 6q0 14 -1.5 43t-2.5 44q13 3 41 5l9 -49q0 -1 2 -3
q0 -2 1 -2q21 -7 42 -7q41 0 61 16q21 16 21 44q0 27 -20 41.5t-54 14.5h-38q2 26 4 37q52 -2 87.5 15.5t35.5 48.5q0 17 -12 29q-13 13 -44 13q-28 0 -45 -11q-3 -3 -4 -5l-13 -45q-12 2 -40 4q6 35 15 77q45 17 98 17q58 0 85 -25q21 -21 21 -48q0 -29 -22.5 -50.5
t-63.5 -29.5z" />
    <glyph glyph-name="oneeighth" unicode="&#x215b;" horiz-adv-x="764" 
d="M80 363l77 2q2 0 2 2q31 181 38 218q-37 -6 -84 -17q-4 24 -4 37q30 7 67 19.5t61 21t28 8.5q1 0 1 -3q-6 -35 -24 -134.5t-28 -151.5l81 -1q-4 -26 -8 -37h-110h-104q4 27 7 36zM639 634q-167 -235 -249 -351q-36 -51 -117.5 -164.5t-95.5 -133.5q-16 8 -38 22
q131 182 211 296q16 23 108 153.5t143 202.5q21 -10 38 -25zM631 169v-2q61 -23 61 -75q0 -47 -47 -78q-35 -22 -90 -22q-59 0 -87 24q-25 21 -25 55q0 31 23.5 56.5t62.5 40.5v2q-44 26 -44 66q0 46 44 71q31 18 76 18q47 0 72 -21q25 -20 25 -51q0 -54 -71 -84zM539 241
v-1q0 -19 11.5 -31t42.5 -25q55 22 55 65q0 19 -11 30q-12 14 -38 14q-25 0 -40 -12q-20 -13 -20 -40zM635 85v1q0 25 -16.5 39.5t-54.5 27.5q-28 -12 -46 -32.5t-18 -44.5q0 -25 16 -38q16 -14 46 -14q32 0 50 15q23 18 23 46z" />
    <glyph glyph-name="threeeighths" unicode="&#x215c;" horiz-adv-x="764" 
d="M246 500l-1 -6q35 -4 54 -24.5t19 -49.5q0 -46 -44 -76q-36 -25 -113 -25q-53 0 -78 7q0 13 -1.5 42.5t-2.5 44.5q28 4 41 5l9 -50q1 0 2 -2t1 -3q21 -7 42 -7q41 0 61 16q21 16 21 45q0 27 -20 41.5t-54 14.5h-38q2 26 4 37q52 -2 87.5 15.5t35.5 48.5q0 16 -12 28
q-13 13 -44 13q-28 0 -45 -10q0 -1 -1.5 -2.5t-2.5 -3.5l-13 -44q-29 2 -40 4q7 36 15 76q45 17 98 17q58 0 85 -25q21 -21 21 -47q0 -29 -22.5 -50.5t-63.5 -29.5zM652 634q-184 -258 -249 -351q-36 -51 -117.5 -164.5t-95.5 -133.5q-16 8 -38 22q150 208 211 296
q42 60 126.5 180.5t123.5 175.5q23 -11 39 -25zM639 169v-2q60 -24 60 -75q0 -47 -47 -78q-35 -22 -90 -22q-58 0 -87 24q-25 21 -25 54q0 32 23.5 57.5t63.5 40.5v2q-44 26 -44 66q0 46 44 71q31 18 76 18t71 -21q25 -20 25 -51q0 -53 -70 -84zM547 241v-1q0 -19 12 -31.5
t41 -24.5q55 22 55 65q0 19 -11 30q-12 14 -37 14t-40 -12q-20 -13 -20 -40zM642 85v1q0 25 -16.5 39.5t-54.5 26.5q-28 -11 -46 -31.5t-18 -44.5q0 -25 16 -38q16 -14 46 -14q32 0 50 15q23 18 23 46z" />
    <glyph glyph-name="fiveeighths" unicode="&#x215d;" horiz-adv-x="764" 
d="M318 442v-1q0 -53 -41 -88q-44 -34 -118 -34q-49 0 -75 7q0 13 -1.5 42t-2.5 43q11 2 41 4l7 -48q0 -3 3 -5q13 -6 38 -6q38 0 64 20q26 21 26 56q0 25 -19.5 43.5t-64.5 18.5q-18 0 -62 -4l-3 3q15 55 41 151h96h94q-4 -30 -8 -42h-144q-4 -12 -11.5 -35t-11.5 -35
q28 2 37 2q52 0 83.5 -25t31.5 -67zM647 634q-110 -154 -249 -351q-55 -78 -214 -298q-11 6 -37 22q69 96 211 296q239 339 251 356q21 -10 38 -25zM634 169v-2q60 -23 60 -75q0 -47 -47 -78q-35 -22 -90 -22q-59 0 -87 24q-25 21 -25 55q0 31 23.5 56.5t63.5 40.5v2
q-44 26 -44 66q0 46 44 71q31 18 76 18q46 0 71 -21q25 -20 25 -51q0 -53 -70 -84zM542 241v-1q0 -19 11.5 -31t41.5 -25q55 22 55 65q0 19 -11 30q-12 14 -37 14t-40 -12q-20 -13 -20 -40zM637 85v1q0 25 -16.5 39.5t-54.5 27.5q-28 -12 -46 -32.5t-18 -44.5q0 -25 16 -38
q16 -14 46 -14q32 0 50 15q23 18 23 46z" />
    <glyph glyph-name="seveneighths" unicode="&#x215e;" horiz-adv-x="764" 
d="M302 600l-1 2q-112 0 -125 -1q-10 0 -14 -10l-14 -42q-31 5 -40 7q8 36 23 88h61h160q7 -28 9 -40q-81 -107 -134 -220q-10 -25 -17 -59q-32 -2 -59 -2q6 38 20 64q57 105 131 213zM608 634q-36 -51 -122 -172.5t-126 -178.5q-36 -51 -117.5 -164.5t-95.5 -133.5
q-16 8 -38 22q131 182 211 296q125 177 250 356q24 -11 38 -25zM601 169v-2q60 -23 60 -75q0 -47 -47 -78q-35 -22 -90 -22q-58 0 -87 24q-25 21 -25 55q0 31 23.5 56.5t63.5 40.5v2q-44 26 -44 66q0 46 44 71q31 18 76 18t71 -21q25 -20 25 -51q0 -53 -70 -84zM509 241v-1
q0 -19 11.5 -31t41.5 -25q55 22 55 65q0 19 -11 30q-12 14 -37 14t-40 -12q-20 -13 -20 -40zM604 85v1q0 25 -16.5 39.5t-54.5 27.5q-28 -12 -46 -32.5t-18 -44.5q0 -25 16 -38q16 -14 46 -14q32 0 50 15q23 18 23 46z" />
    <glyph glyph-name="partialdiff" unicode="&#x2202;" horiz-adv-x="511" 
d="M120 619l-18 47q71 51 165 51q95 0 158 -75.5t63 -211.5q0 -111 -34.5 -210t-104 -165t-159.5 -66q-80 0 -123 52t-43 129q0 108 70.5 185.5t174.5 77.5q50 0 90 -27.5t53 -60.5h2q8 46 8 89q0 108 -48.5 166t-116.5 58q-80 0 -137 -39zM266 376h-1q-72 0 -120.5 -59.5
t-48.5 -145.5q0 -57 28 -91t76 -34h1q71 0 123.5 66.5t73.5 164.5q-13 40 -50 69.5t-82 29.5z" />
    <glyph glyph-name="product" unicode="&#x220f;" horiz-adv-x="563" 
d="M536 582l-134 -669h-70l136 669h-253l-135 -669h-69l135 669h-77l13 63h543l-13 -63h-76z" />
    <glyph glyph-name="summation" unicode="&#x2211;" horiz-adv-x="447" 
d="M-58 -86l8 45l297 322l-173 314l9 50h427l-11 -62h-342v-3l167 -301l-275 -300v-3h375l-11 -62h-471z" />
    <glyph glyph-name="minus" unicode="&#x2212;" horiz-adv-x="512" 
d="M444 263q0 -21 -2 -55h-398q0 20 2 52q64 1 201.5 2t196.5 1z" />
    <glyph glyph-name="uni2215" unicode="&#x2215;" horiz-adv-x="433" 
d="M470 634q-38 -53 -249 -351q-36 -51 -117.5 -164.5t-95.5 -133.5q-12 6 -38 22q69 96 211 296q125 177 250 356q23 -11 39 -25z" />
    <glyph glyph-name="uni2219" unicode="&#x2219;" horiz-adv-x="244" 
d="M125 316h1q27 0 39 -17t12 -36q0 -23 -16 -39t-39 -16q-24 0 -38 14.5t-14 37.5q0 21 15 38.5t40 17.5z" />
    <glyph glyph-name="radical" unicode="&#x221a;" horiz-adv-x="523" 
d="M633 818l-369 -914h-54l-76 427l-73 -30l-12 42l134 55l57 -354q0 -2 7 -55q1 1 1 0q3 8 10 27.5t10 28.5l308 773h57z" />
    <glyph glyph-name="infinity" unicode="&#x221e;" horiz-adv-x="718" 
d="M536 121h-1q-11 0 -22 2t-20 4t-20 8t-18 9.5t-18.5 12.5t-16 12.5t-16.5 14.5t-15 13.5t-15.5 15l-14.5 14.5q-38 -37 -55 -52.5t-54.5 -34.5t-75.5 -19q-61 0 -100 40t-39 103q0 59 42.5 101t104.5 42q35 0 71.5 -20t52 -34.5t53.5 -52.5q28 28 40.5 39.5t39 31.5
t51.5 28t54 8q61 0 100 -40t39 -103q0 -59 -42.5 -101t-104.5 -42zM536 173h1q38 0 64 27t26 64q0 39 -25 65t-63 26q-27 0 -56.5 -16.5t-44.5 -31t-43 -43.5q4 -3 29 -28t35.5 -33t33 -19t43.5 -11zM179 173h1q27 0 56 16.5t44 31t43 43.5q-4 3 -29 28t-35.5 33t-33 19
t-43.5 11q-38 0 -64.5 -27t-26.5 -64q0 -39 25 -65t63 -26z" />
    <glyph glyph-name="integral" unicode="&#x222b;" horiz-adv-x="275" 
d="M362 786l-18 -50q-12 4 -28 4q-18 0 -32.5 -8t-25 -24.5t-17.5 -31t-13 -40t-8.5 -37.5t-6.5 -36q-9 -58 -29.5 -218.5t-33.5 -238.5q-7 -44 -16.5 -77.5t-27.5 -70.5t-48 -57.5t-70 -20.5q-26 0 -48 11l15 50q23 -5 35 -5q25 0 44 17t30 49.5t16 53t10 51.5
q11 71 31.5 232t31.5 229q37 226 168 226q23 0 41 -8z" />
    <glyph glyph-name="approxequal" unicode="&#x2248;" horiz-adv-x="512" 
d="M434 351l32 -35q-51 -59 -118 -59q-24 0 -56 10q-13 4 -41 16q-1 0 -14.5 6.5t-22.5 10.5q-21 8 -46 8q-45 0 -87 -44l-30 36q54 58 118 58q25 0 55 -10q8 -3 22 -9t19 -8q4 -2 38 -16q21 -8 45 -8q42 0 86 44zM438 207l31 -34q-51 -59 -118 -59q-26 0 -55 9q-8 3 -22 9
t-19 8q-1 1 -16 7.5t-24 9.5q-23 7 -44 7q-43 0 -87 -44l-30 36q52 58 118 58q27 0 54 -9q21 -8 43 -18q5 -2 17 -7t19 -8q23 -9 46 -9q45 0 87 44z" />
    <glyph glyph-name="notequal" unicode="&#x2260;" horiz-adv-x="513" 
d="M308 283l-35 -95h187q0 -17 -2 -53q-133 0 -204 -1q-16 -41 -35 -97q-30 11 -50 20q3 9 12.5 35t15.5 41q-94 0 -137 -1q-2 28 2 56h155q11 31 33 95h-190q0 19 2 53q31 0 101 0.5t106 0.5q27 74 34 96q19 -6 52 -21q-9 -24 -27 -74q24 0 68 0.5t64 0.5q2 -26 -2 -56
h-150z" />
    <glyph glyph-name="lessequal" unicode="&#x2264;" horiz-adv-x="512" 
d="M169 343q35 -30 234 -195q-17 -25 -31 -40q-209 162 -271 210q-1 16 -1 47q61 45 273 202q18 -20 30 -42q-15 -12 -119 -93t-115 -89zM58 -3q0 51 3 56h398q0 -17 -2 -53q-291 0 -399 -3z" />
    <glyph glyph-name="greaterequal" unicode="&#x2265;" horiz-adv-x="513" 
d="M345 337q-152 126 -234 189q15 25 31 41q186 -140 272 -205q2 -22 0 -47q-43 -33 -133.5 -101t-138.5 -105q-16 17 -31 41q7 5 110.5 87.5t123.5 99.5zM60 -2q0 50 3 55q273 0 398 1q0 -18 -2 -54q-319 0 -399 -2z" />
    <glyph glyph-name="lozenge" unicode="&#x25ca;" horiz-adv-x="491" 
d="M468 324l-240 -350h-61l-115 351l241 350h60zM400 323l-84 271l-3 12l-2 7h-2q-3 -8 -12 -20l-177 -267l84 -271q1 -3 2.5 -10t2.5 -10h1q6 11 13 21z" />
    <glyph glyph-name="Euro.fitted" unicode="&#xe000;" horiz-adv-x="565" 
d="M23 235l5 41h49q3 40 11 68h-50l5 41h58q44 122 146 197q95 71 223 71q80 0 124 -22q-1 -9 -8.5 -73t-12.5 -97q-32 -2 -50 -2l3 110q-2 11 -5 13q-26 16 -82 16q-92 0 -159 -60q-70 -61 -102 -153h277l-5 -41h-284q-7 -34 -9 -68h282l-5 -41h-277q5 -76 37 -121
q22 -30 62 -49t87 -19q70 0 172 37q3 -24 3 -51q-127 -43 -195 -43q-105 0 -175 65t-72 181h-53z" />
    <glyph glyph-name="Euro.oldstyle" unicode="&#xe001;" horiz-adv-x="507" 
d="M0 161l5 37h50q0 20 6 54h-46l5 38h50q32 99 121 163q77 53 190 53q74 0 108 -17q-10 -92 -15 -139q-8 0 -24 -1t-24 -1l1 86q0 8 -5 11q-18 12 -65 12q-76 0 -132 -46q-58 -46 -81 -121h250l-5 -38h-254q-4 -20 -4 -54h248l-5 -37h-239q6 -42 30 -72q39 -49 121 -49
q55 0 145 28q3 -21 3 -46q-96 -32 -162 -32q-98 0 -156 50q-50 45 -59 121h-57z" />
    <glyph glyph-name="cent.fitted" unicode="&#xe005;" horiz-adv-x="448" 
d="M54 257v1q0 87 63 170.5t158 102.5q12 68 17 99q21 5 50 7q-3 -18 -9 -53t-8 -48q6 1 22 1q56 0 87 -23q-2 -14 -14.5 -32.5t-23.5 -24.5q-36 26 -82 27q-8 -46 -28 -158t-30 -169q58 4 118 36q6 -15 10 -40q-69 -38 -136 -45q-3 -18 -9 -52.5t-9 -51.5q-13 -2 -47 -4
q7 34 18 105q-59 1 -103 41t-44 111zM129 265v-1q0 -39 20 -70t62 -37q49 283 56 324q-58 -13 -98 -79t-40 -137z" />
    <glyph glyph-name="degree.oldstyle" unicode="&#xe006;" horiz-adv-x="274" 
d="M139 404h-1q-40 0 -71 26.5t-31 71.5q0 43 32.5 75t83.5 32q45 0 73 -27t28 -68q0 -48 -31.5 -79t-82.5 -31zM143 445h1q24 0 39 17.5t15 47.5q0 26 -13 42t-36 16q-25 0 -41 -17.5t-16 -47.5q0 -26 14.5 -42t36.5 -16z" />
    <glyph glyph-name="dollar.fitted" unicode="&#xe007;" horiz-adv-x="471" 
d="M85 444v1q0 42 26 76.5t58 51.5q48 28 112 31q6 32 17 98q21 5 50 7q-2 -11 -8.5 -46.5t-10.5 -56.5q89 0 126 -25q-8 -36 -36 -58q-50 32 -100 36q-5 -28 -18 -100t-20 -111q72 -26 104 -57.5t32 -84.5q0 -80 -72 -131q-48 -35 -128 -45q-3 -15 -9 -48t-9 -48
q-14 -2 -46 -4q9 48 18 99q-110 -3 -167 34q10 38 40 57q65 -45 136 -46q22 123 40 227q-67 27 -101 58.5t-34 84.5zM153 451v-1q0 -31 18 -48.5t67 -37.5q6 35 17.5 100.5t16.5 94.5q-40 0 -72 -21q-47 -33 -47 -87zM349 190v1q0 35 -19 55.5t-66 39.5q-32 -172 -39 -212
q48 4 80 29q44 34 44 87z" />
    <glyph glyph-name="florin.fitted" unicode="&#xe00a;" horiz-adv-x="447" 
d="M447 655h1q35 0 57 -12q-1 -13 -13 -34t-24 -28q-31 12 -77 12q-42 0 -72 -32q-26 -26 -41.5 -65.5t-32.5 -130.5q28 0 87.5 0.5t92.5 0.5q-4 -27 -11 -48q-124 0 -178 -1q-42 -220 -62 -286q-26 -86 -89 -137t-137 -51q-31 0 -53 8q2 13 13 32.5t22 28.5q33 -9 58 -9
q39 0 72.5 34t47.5 97q23 96 57 283h-106q1 11 9 46q70 2 99 2q5 0 8 7q17 91 37 134.5t63 81.5q76 67 172 67z" />
    <glyph glyph-name="florin.oldstyle" unicode="&#xe00b;" horiz-adv-x="410" 
d="M367 506h1q32 0 56 -11q-1 -11 -11 -30.5t-21 -26.5q-34 12 -64 12q-39 0 -61 -24q-20 -20 -31.5 -51t-23.5 -104q99 0 152 1q-3 -23 -9 -44q-104 0 -150 -1q-24 -168 -44 -233q-21 -70 -73.5 -112t-116.5 -42q-30 0 -51 9q2 13 11 30.5t20 25.5q24 -10 50 -10
q32 0 59.5 27.5t39.5 79.5q11 46 40 225h-88q3 23 9 43q14 0 41 0.5t39 0.5q5 0 6 6q14 77 28.5 111t48.5 63q63 55 143 55z" />
    <glyph glyph-name="numbersign.oldstyle" unicode="&#xe00c;" horiz-adv-x="535" 
d="M287 120h-117q-6 -18 -26 -75.5t-31 -87.5q-21 -3 -50 -1q33 95 56 164q-18 0 -55 -0.5t-52 -0.5q3 23 10 46h113q7 21 14.5 45t17 52t14.5 44h-114q4 25 9 44q81 0 121 1q6 16 48 143q18 3 55 3q-34 -98 -51 -146h116q26 73 49 144q36 2 55 1q-9 -24 -25.5 -72.5
t-25.5 -72.5q19 0 54.5 0.5t50.5 0.5q-3 -24 -11 -46h-111q-16 -46 -48 -142h114q-3 -22 -9 -44h-120q-36 -101 -57 -163q-17 -1 -50 -1q31 92 56 164zM233 306l-48 -142h118q20 64 46 142h-116z" />
    <glyph glyph-name="orn.001" unicode="&#xe00d;" horiz-adv-x="1000" 
d="M615 635q2 -39 2.5 -127t1.5 -114q-50 -2 -239 -2v241q67 4 235 2zM334 353q2 -34 1.5 -118.5t0.5 -121.5q-94 -5 -238 -3q-3 101 1 242q68 3 235 1zM901 353q0 -181 -1 -242q-118 -3 -236 0q-3 126 0 243q42 1 131 0t106 -1zM616 68q3 -184 1 -241q-157 -2 -236 0v243
q168 0 235 -2z" />
    <glyph glyph-name="orn.002" unicode="&#xe00e;" horiz-adv-x="1000" 
d="M515 734q76 -150 134 -300q0 -1 -4 -7q-114 -4 -294 -2q40 109 137 309h27zM998 246q0 -20 -1 -30q-182 -97 -299 -144q-1 25 -1 312q196 -78 301 -138zM0 213v25q135 71 305 143q2 -83 2 -314q-216 96 -307 146zM351 26l4 10q265 0 296 -1q-60 -163 -129 -305h-32
q-54 100 -139 296z" />
    <glyph glyph-name="orn.003" unicode="&#xe00f;" horiz-adv-x="1000" 
d="M334 634q1 -36 1.5 -118.5t1.5 -119.5q-80 -3 -241 -3q0 39 -0.5 123.5t-0.5 116.5q63 3 239 1zM902 634q0 -98 -2 -240q-133 -2 -239 0q-1 85 1 242q102 2 240 -2zM618 350q2 -136 2 -240q-124 -3 -241 0q-2 52 1 241q169 0 238 -1zM334 68q3 -97 1 -241q-70 -3 -238 0
q-5 122 0 239q70 2 237 2zM903 66q0 -116 -4 -240q-85 -1 -238 1q0 166 2 240q139 2 240 -1z" />
    <glyph glyph-name="orn.004" unicode="&#xe010;" horiz-adv-x="1000" 
d="M15 723q68 1 461 1q9 -219 1 -486q-88 -2 -462 -2v487zM81 650q-3 -262 1 -339q80 -4 333 3q1 73 -5 338q-34 1 -329 -2zM163 566q33 2 166 2q2 -48 2 -172q-52 -2 -168 0q-2 89 0 170zM664 567q26 1 168 1q2 -46 2 -173q-107 -4 -169 0q-1 27 -1 172zM521 226
q167 1 462 -1q2 -265 0 -486q-201 -3 -463 1q-4 254 1 486zM587 154q-6 -188 -2 -340q303 -3 333 -3q2 231 0 338q-233 6 -331 5zM669 64q46 2 167 2q2 -56 2 -172h-169v170zM163 61h168q1 -17 1 -173q-112 -2 -169 -1q-2 112 0 174z" />
    <glyph glyph-name="orn.005" unicode="&#xe011;" horiz-adv-x="916" 
d="M85 261l7 4q479 0 668 4q2 303 -1 421q47 2 74 0q-1 -193 -1 -486l-8 -5h-206.5t-250.5 -0.5t-209 -2.5q-3 -86 0 -420q-42 -2 -67 -1l-7 5q1 105 1 265.5v215.5zM200 408v279q181 2 281 1q1 -46 1 -137.5v-140.5q-61 -2 -282 -2zM270 474q98 -2 144 1q0 82 -3 148
q-34 -1 -146 -4q3 -112 5 -145zM435 -223q-2 176 -2 280q186 0 283 -1v-278q-123 -3 -281 -1zM505 -159l3 -1q119 3 141 4q0 80 -3 146q-23 0 -73.5 -0.5t-71.5 -1.5q0 -100 4 -147z" />
    <glyph glyph-name="orn.006" unicode="&#xe012;" horiz-adv-x="1000" 
d="M759 429v-85h233v-67q-71 -2 -233 -2v-84q160 0 233 -2v-65q-68 -1 -233 -1v-82q30 0 113 -1t120 -1v-66q-72 -1 -236 -1v-234q-12 0 -35.5 0.5t-31.5 0.5q0 29 -1.5 112t-1.5 113q-25 -1 -81 -1v-224q-9 -1 -66 -1v226h-81v-226q-13 -1 -36.5 0t-30.5 1q0 27 -0.5 110
t-0.5 114h-78q-1 -41 -2 -126t-1 -98h-66q-1 31 -1 117v115q-161 0 -234 1q-1 21 -1 66q32 0 115 1t119 2q-1 30 -1 84q-33 1 -117 0t-115 -1v65q195 3 232 3v85q-31 1 -114 1h-118q-1 12 -1 67h233v84q-30 0 -112.5 1t-119.5 1q-1 11 -1 66q35 0 119.5 0.5t115.5 0.5v228
q11 0 34 0.5t32 0.5q1 -30 1.5 -110.5t0.5 -112.5q25 1 82 1v220q21 1 65 1q3 -162 3 -221h79q1 35 1.5 118.5t0.5 102.5h65q1 -25 1.5 -108.5t0.5 -112.5q13 0 40 -0.5t40 -0.5q0 110 2 222h66v-227q32 -1 117 -1.5t119 -0.5q2 -42 2 -65q-30 0 -116 -1t-119 -2zM686 433
q-134 3 -376 3v-399q202 -5 381 -2q0 99 -2.5 240.5t-2.5 157.5z" />
    <glyph glyph-name="orn.007" unicode="&#xe013;" horiz-adv-x="1000" 
d="M500 -216l-9 14q265 566 438 904l19 2q3 -272 1 -920q-67 0 -224 -0.5t-225 0.5zM418 -203l-9 -11q-31 -1 -359 -1v889l10 6q246 5 357 0q0 -526 1 -883zM594 -145l4 -7q197 2 277 6q3 104 14 616l-8 1q-161 -328 -287 -616z" />
    <glyph glyph-name="orn.008" unicode="&#xe014;" horiz-adv-x="1000" 
d="M409 680l9 -9v-885q-80 -2 -358 0l-9 6q-1 215 -1 889q328 0 359 -1zM948 -237l-18 1q-180 350 -438 904q4 10 6 14q68 1 226 0.5t225 -0.5q2 -645 -1 -919zM605 617l-5 -7q122 -289 282 -612l7 1q-3 204 -14 614q-72 4 -270 4z" />
    <glyph glyph-name="orn.009" unicode="&#xe015;" horiz-adv-x="1000" 
d="M508 -206l-6 -14q-68 -1 -226 -0.5t-225 0.5q-3 705 1 921l18 -1q169 -332 438 -906zM591 -218l-10 8q1 357 1 890q44 0 179 0.5t180 -0.5l8 -6q1 -216 1 -892h-359zM397 -156l5 8q-93 219 -281 613h-8q1 -88 3.5 -307.5t4.5 -307.5q109 -6 276 -6z" />
    <glyph glyph-name="orn.010" unicode="&#xe016;" horiz-adv-x="1000" 
d="M502 681l7 -14q-286 -608 -439 -904l-18 -1q-1 78 -1 919h451zM582 671l8 9h360q0 -204 -0.5 -500t-0.5 -391l-9 -7q-291 0 -358 2v887zM401 606l-4 8q-196 3 -272 0q-5 -125 -10 -617l8 -2q207 444 278 611z" />
    <glyph glyph-name="orn.011" unicode="&#xe017;" horiz-adv-x="860" 
d="M235 -315l-6 4q34 95 69 181q-140 0 -201 1v701q313 3 665 2q3 -488 2 -702q-66 -1 -199 -1q10 -30 33 -90.5t33 -89.5l-6 -7q-331 0 -390 1zM431 220h9q17 -45 54 -145.5t49 -131.5q5 0 61 1t84 2q4 276 4 558q-299 -2 -520 -6q-4 -540 -4 -554q94 -2 158 -2
q99 262 105 278z" />
    <glyph glyph-name="orn.012" unicode="&#xe018;" horiz-adv-x="860" 
d="M659 755l3 -7q-7 -29 -24.5 -92t-25.5 -92h149q0 -510 -1 -687q-382 -2 -659 -1q0 600 1 687q50 1 143 1q-55 167 -61 185l6 6h469zM425 183l10 -1q105 374 138 503q-114 5 -289 3l-4 -6q124 -433 145 -499z" />
    <glyph glyph-name="orn.013" unicode="&#xe019;" horiz-adv-x="1000" 
d="M89 23l-7 5q-2 220 1 389l4 5q45 -18 167 -68q0 149 1 220h662q3 -334 2 -703q-177 -2 -663 -2q-1 77 -1 219q-71 -29 -166 -65zM583 222l1 -9q-114 -48 -256 -102q0 -51 2 -165q191 -4 518 -4q-2 386 -5 557q-3 0 -199.5 2t-315.5 2q-2 -116 -1 -178q87 -33 256 -103z
" />
    <glyph glyph-name="orn.014" unicode="&#xe01a;" horiz-adv-x="1000" 
d="M911 -7l-7 -3q-61 20 -163 48v-158q-492 0 -651 2q-4 343 -1 680h651q1 -56 1 -152q141 50 164 58l6 -5q2 -311 0 -470zM361 227l-1 -10q340 -98 484 -138q2 196 0 288l-5 6q-29 -9 -209.5 -63t-268.5 -83z" />
    <glyph glyph-name="orn.015" unicode="&#xe01b;" horiz-adv-x="1000" 
d="M0 56v676h1000v-670l-7 1q-35 44 -148 167h-7q-55 -56 -150 -164h-5q-70 98 -161 214h-6q-1 -1 -172 -207l-8 -1q-97 116 -154 176h-10q-54 -61 -165 -192h-7zM0 -268v155q66 0 291.5 -1t406.5 -0.5t302 2.5v-156h-1000z" />
    <glyph glyph-name="orn.016" unicode="&#xe01c;" horiz-adv-x="394" 
d="M207 395h-21q-55 92 -168 298l5 8q291 0 344 -1q-64 -134 -160 -305zM194 334h1q39 0 65 -29t26 -70q0 -45 -25 -75t-66 -30q-42 0 -70.5 28t-28.5 70q0 46 28.5 76t69.5 30zM184 70h19q54 -87 169 -298l-5 -8q-309 0 -344 1q83 171 161 305z" />
    <glyph glyph-name="orn.017" unicode="&#xe01d;" horiz-adv-x="1000" 
d="M660 218v22q61 37 290 169l8 -5q0 -313 -1 -348q-189 99 -297 162zM339 241l1 -19q-156 -95 -291 -171l-8 5q0 313 1 348q143 -73 297 -163zM590 230v-1q0 -41 -24 -68t-61 -27q-45 0 -70 27t-25 67q0 41 25.5 71t63.5 30q39 0 65 -28t26 -71z" />
    <glyph glyph-name="orn.018" unicode="&#xe01e;" horiz-adv-x="574" 
d="M0 315v33q160 2 251 1q64 -43 114.5 -88.5t112.5 -111.5q67 0 96 1v-33q-152 -2 -251 -1q-41 23 -122.5 94t-111.5 106q-12 0 -43 -0.5t-46 -0.5z" />
    <glyph glyph-name="orn.019" unicode="&#xe01f;" horiz-adv-x="574" 
d="M574 348v-32q-14 0 -45.5 0.5t-43.5 0.5q-30 -35 -111.5 -106.5t-122.5 -94.5q-98 -1 -251 1v32h96q62 66 112.5 111.5t114.5 88.5q91 1 251 -1z" />
    <glyph glyph-name="orn.020" unicode="&#xe020;" horiz-adv-x="982" 
d="M48 93l4 3q119 -74 146 -93l-1 -3q-24 -1 -78 -0.5t-76 0.5q-6 48 5 93zM144 385h3q28 -87 39 -124q-34 -7 -107 -19q4 28 23.5 73.5t41.5 69.5zM410 538l3 -3q-32 -97 -40 -117q-39 18 -116 59q20 21 67.5 40.5t85.5 20.5zM718 473l-2 -4q-52 -27 -104 -52
q-8 20 -24 59.5t-23 59.5q42 -3 85.5 -22t67.5 -41zM833 378l3 3q54 -65 69 -158q-21 6 -58.5 18t-49.5 15q13 47 36 122zM725 50h-5q-11 103 -73 178q-57 62 -152 62q-57 0 -97 -17t-77 -56q-61 -81 -69 -177l-5 1q-103 73 -184 132l1 3q113 22 203 38l1 2q-47 135 -69 207
l2 5q62 -28 203 -97v-1q37 102 79 210h6q54 -116 91 -210h1q72 38 196 97l3 -4q-37 -126 -63 -210v1q145 -41 185 -53v-5q-75 -48 -177 -106zM937 4l-3 -4h-163v4q29 16 86 47.5t70 38.5q7 -20 10 -86zM322 0l-3 5q0 46 14.5 89t35.5 66q50 56 122 56q81 0 122 -65
q35 -59 40 -149q-34 -2 -179 -2h-152z" />
    <glyph glyph-name="orn.021" unicode="&#xe021;" horiz-adv-x="886" 
d="M527 76l1 -2q65 1 174 8.5t123 13.5q3 -25 -1.5 -56t-12.5 -39q-73 -1 -301 -1q-349 2 -440 3q-15 23 -15 93q60 -15 300 -22l1 2q-187 178 -267 286q2 22 16.5 46t30.5 32q37 -57 131.5 -165t132.5 -138h2q0 83 -11 464q14 12 42 19t50 3q-2 -56 -5 -243t-1 -251l2 -1
q52 55 130.5 154t114.5 157q11 1 30 -24t23 -51q-32 -51 -109.5 -138.5t-140.5 -149.5z" />
    <glyph glyph-name="orn.022" unicode="&#xe022;" horiz-adv-x="1000" 
d="M499 485l5 5q241 4 491 2l3 -4q-87 -204 -231 -514h-7q-173 321 -261 511zM255 491h7q122 -272 227 -514l-3 -4q-277 -3 -488 0q-3 2 -5 5q127 261 262 513zM591 435l-3 -3q131 -254 168 -325h5q95 195 152 325l-2 3q-90 5 -320 0zM251 357l-4 -1q-74 -141 -164 -324
l3 -3q104 -2 315 2l2 3q-58 132 -152 323z" />
    <glyph glyph-name="orn.023" unicode="&#xe023;" horiz-adv-x="1000" 
d="M761 85l-8 -1q-106 168 -244 412l5 9q42 1 475 1l4 -10q-144 -266 -232 -411zM489 -33l-5 -9q-124 -2 -471 1l-6 10q124 224 241 408h8q108 -181 233 -410z" />
    <glyph glyph-name="orn.024" unicode="&#xe024;" horiz-adv-x="672" 
d="M501 -48l-12 1q-149 206 -331 439q-106 -137 -158 -205v99q64 88 155 214h12q291 -386 329 -436h9q19 25 167 222v-99q-15 -21 -74.5 -103t-96.5 -132zM508 271h-11q-93 138 -142 213l2 11q128 3 292 1l4 -11q-57 -87 -145 -214zM306 -26l-3 -11q-41 -1 -292 -1l-3 11
q64 101 140 214l11 1q60 -86 147 -214z" />
    <glyph glyph-name="orn.025" unicode="&#xe025;" horiz-adv-x="1000" 
d="M743 -24l-6 -5q-83 0 -246 0.5t-245 1.5l-6 3q-1 244 1 741l6 2q503 -233 694 -327l1 -8q-120 -251 -199 -408zM705 30l5 2q59 127 147 331l-2 8q-281 130 -549 246l-4 -4q-1 -99 2 -577q391 -6 401 -6zM674 121l-3 -3q-158 22 -321 50l-2 5q111 154 214 280l3 1
q52 -150 109 -333zM614 170l1 2q-38 108 -71 187h-3q-97 -125 -121 -157l1 -3q74 -14 193 -29z" />
    <glyph glyph-name="orn.026" unicode="&#xe026;" horiz-adv-x="1000" 
d="M16 -27l-2 6q268 574 327 693l8 1q199 -93 407 -198l5 -6q0 -83 -0.5 -246t-1.5 -245l-3 -6q-243 -1 -740 1zM116 38l4 -4q99 -1 577 2q0 65 2 198t3 202l-2 5q-149 71 -330 147l-7 -2q-86 -184 -247 -548zM272 301l-1 3q212 77 327 116l3 -3q-19 -180 -43 -336l-4 -2
q-105 75 -282 222zM366 283v-3q25 -20 77.5 -62.5t81.5 -65.5l3 1q13 96 21 208l-2 1q-62 -26 -181 -79z" />
    <glyph glyph-name="orn.027" unicode="&#xe027;" horiz-adv-x="1000" 
d="M244 -11l-5 6q0 83 0.5 246t1.5 245l3 6q244 1 740 -1l2 -6q-273 -585 -327 -694l-8 -1q-213 101 -407 199zM298 27l2 -5q141 -65 330 -147l7 2q95 204 247 549l-4 4q-99 1 -577 -2q0 -65 -2 -198t-3 -203zM401 47l-3 3q23 188 44 333l5 2q131 -93 279 -222l1 -3
q-126 -48 -326 -113zM451 106l2 -1q116 45 179 75v3q-93 79 -157 129l-3 -1q-8 -59 -21 -205z" />
    <glyph glyph-name="orn.028" unicode="&#xe028;" horiz-adv-x="1000" 
d="M257 488l6 5q83 0 246 -0.5t245 -1.5l6 -4q1 -243 -1 -741l-6 -2q-487 226 -694 327l-1 8q105 223 199 409zM295 433l-5 -2q-62 -133 -147 -331l2 -7q204 -95 549 -247l4 4q1 100 -2 578q-65 0 -198 2t-203 3zM324 342l3 3q91 -11 324 -49l2 -6q-43 -61 -219 -282l-3 -1
q-76 228 -107 335zM383 293l-1 -2q46 -139 66 -192h3q82 102 130 163l-1 3q-77 13 -197 28z" />
    <glyph glyph-name="orn.029" unicode="&#xe029;" horiz-adv-x="1000" 
d="M775 567l-1 -13q-46 -55 -125 -151t-88 -108q117 -119 252 -241h9q38 48 107.5 139t70.5 93v-99q-166 -225 -171 -232l-15 1q-110 107 -349 331q148 175 218 264q-45 35 -132 101t-105 80h99q101 -73 230 -165zM479 526v-13q-61 -70 -194 -233l1 -12q172 -165 325 -304
h-99q-45 42 -138.5 126.5t-140.5 128.5q-2 53 0 105q122 147 149 180l-1 9q-60 51 -148 122q-2 42 0 83q27 -21 77.5 -60.5t91.5 -71.5t77 -60zM711 310q69 86 98 120q31 -27 99 -91q-72 -92 -99 -125q-68 66 -98 96z" />
    <glyph glyph-name="orn.030" unicode="&#xe02a;" horiz-adv-x="1000" 
d="M446 732h100q-131 -102 -228 -181q57 -73 217 -264q-35 -33 -157.5 -149t-191.5 -182l-15 -1q-126 172 -171 232v99q24 -30 84.5 -109.5t94.5 -122.5h9q138 125 251 241q-164 202 -213 259v13zM714 268l1 12q-119 148 -194 233l1 13q78 59 245 193q2 -41 0 -83
q-63 -52 -148 -123v-9q53 -67 148 -180q2 -52 0 -105q-47 -44 -140.5 -128.5t-138.5 -126.5q-48 -1 -98 0q162 147 324 304zM290 310q-15 -15 -48 -47t-50 -49q-27 33 -99 125q83 78 98 91q31 -36 99 -120z" />
    <glyph glyph-name="orn.031" unicode="&#xe02b;" horiz-adv-x="1000" 
d="M545 -268h-100q176 133 237 181q-90 115 -217 263q21 20 150 142t199 190l15 1q27 -35 83.5 -109t87.5 -114v-100q-121 155 -179 225h-9q-129 -117 -251 -242q30 -36 100 -122t113 -137v-13q-221 -159 -229 -165zM286 195l-1 -12q128 -158 194 -232l-1 -13
q-62 -46 -245 -193q-2 41 0 83q63 52 148 123v9q-53 67 -148 180q-2 52 0 105q31 28 88 80t103.5 94.5t87.5 80.5h98q-131 -117 -324 -305zM710 154q32 33 98 95q66 -79 99 -124q-67 -63 -98 -91q-17 20 -49.5 60t-49.5 60z" />
    <glyph glyph-name="orn.032" unicode="&#xe02c;" horiz-adv-x="1000" 
d="M545 -268h-99q-47 37 -127.5 96.5t-93.5 69.5l1 13q45 53 117 141t96 117q-122 126 -252 243h-9q-44 -54 -178 -225v100q18 23 76 99.5t95 123.5l15 -1q70 -68 195.5 -186.5t153.5 -145.5q-127 -150 -218 -264q58 -46 228 -181zM715 184l-1 12q-175 172 -325 305h99
q41 -38 87.5 -80.5t103.5 -94.5t88 -80q2 -52 0 -106q-100 -118 -149 -179l1 -9q28 -24 81 -68t67 -56q2 -42 0 -83q-185 148 -246 194v13q43 49 194 232zM289 154q-64 -80 -98 -120q-29 26 -99 92q33 42 99 124q43 -39 98 -96z" />
    <glyph glyph-name="orn.033" unicode="&#xe02d;" horiz-adv-x="1000" 
d="M889 353l1 -15q-60 -117 -212 -379q-49 0 -138.5 -1t-165 -1t-147.5 2q-4 512 1 744l10 4q357 -179 651 -354zM552 467l-7 2q-145 -158 -254 -298l2 -6q159 -48 352 -92l5 5q-32 146 -98 389z" />
    <glyph glyph-name="orn.034" unicode="&#xe02e;" horiz-adv-x="1000" 
d="M380 621l14 1q147 -75 380 -212q0 -49 1 -138.5t1 -164.5t-2 -147q-512 -4 -745 1l-4 10q204 396 355 650zM258 299l-1 -7q123 -125 282 -267l7 2q48 170 93 370l-5 5q-193 -48 -376 -103z" />
    <glyph glyph-name="orn.035" unicode="&#xe02f;" horiz-adv-x="1000" 
d="M621 -157l-15 -1q-133 69 -379 212q0 49 -1 138.5t-1 165t2 147.5q511 4 744 -1l4 -10q-193 -381 -354 -651zM735 181l2 6q-139 129 -298 254l-7 -2q-32 -152 -62 -368l5 -5q154 44 360 115z" />
    <glyph glyph-name="orn.036" unicode="&#xe030;" horiz-adv-x="1000" 
d="M111 112l-1 15q74 143 212 379q49 0 138.5 1t164.5 1t147 -2q6 -480 0 -745l-11 -4q-401 207 -650 355zM433 -10l7 -1q112 109 268 280l-2 7q-123 42 -360 107l-5 -5q33 -155 92 -388z" />
    <glyph glyph-name="sterling.fitted" unicode="&#xe031;" horiz-adv-x="526" 
d="M-5 47l65 3q11 0 17 6q59 53 77 165q3 12 7 63h-103q2 7 5 22t4 22q15 0 46 0.5t46 1.5q5 0 5 5q7 106 11 127q18 89 75 138q62 55 160 55q51 0 88 -16q-5 -80 -12 -142q-31 -4 -51 -5l-2 91q-1 10 -8 13q-17 9 -45 9q-48 0 -83 -31q-35 -32 -48 -106q-4 -20 -11 -137
q113 0 178 1q-3 -24 -10 -48h-171q-1 -13 -6 -42q-20 -112 -86 -184q-12 -10 6 -10q193 0 226 7q11 3 22 21l46 97q15 -2 47 -11q-37 -106 -60 -163q-17 0 -133 0.5t-191 0.5h-120q2 7 4.5 23.5t4.5 23.5z" />
    <glyph glyph-name="sterling.oldstyle" unicode="&#xe032;" horiz-adv-x="497" 
d="M8 43l58 3q9 0 14 5q43 37 57 119q4 30 5 45h-90q2 7 5 20t4 20q27 1 79 1q4 0 4 5q5 82 7 93q13 66 61 107q52 46 142 46q50 0 89 -17q-2 -43 -8 -115l-48 -3l-2 71q0 4 -6 10q-14 9 -45 9q-46 0 -73 -24q-31 -26 -41 -80q-2 -11 -7 -101q99 0 162 1q-4 -25 -9 -43h-155
q-2 -8 -4 -28q-14 -79 -64 -134q-8 -8 4 -8q130 0 200 5q9 3 17 16l35 78q20 -2 46 -10q-31 -91 -48 -134h-285h-112q1 7 3.5 21.5t4.5 21.5z" />
    <glyph glyph-name="yen.fitted" unicode="&#xe033;" horiz-adv-x="529" 
d="M264 49l93 -3q-4 -26 -9 -46q-17 0 -59 0.5t-63 0.5q-20 0 -61 -0.5t-61 -0.5q0 3 9 46l79 2q4 0 8 6l14 90h-152q5 32 7 38q50 1 152 1l10 67h-154q3 18 8 38q45 1 138 1q-60 164 -105 293q-4 4 -7 4l-50 3q1 7 4 22.5t5 22.5q12 0 41 -0.5t43 -0.5q25 0 69 0.5t62 0.5
q-4 -27 -9 -45l-83 -4q15 -46 44 -139.5t44 -139.5h5q73 111 175 274q2 6 -3 6l-78 2q2 7 5 22.5t4 22.5h121q13 0 40 0.5t38 0.5q0 -2 -3.5 -19.5t-5.5 -26.5l-48 -3q-130 -191 -207 -295q92 0 135 1q-4 -28 -9 -41h-153l-10 -67q104 0 153 1q-4 -26 -9 -40h-151z" />
    <glyph glyph-name="yen.oldstyle" unicode="&#xe034;" horiz-adv-x="463" 
d="M165 50l10 61h-130q1 5 2 11t2 13.5t2 11.5h130l8 46h-132l6 36h117q-66 148 -97 219q-1 4 -5 4l-45 2q5 33 7 43q12 0 36.5 -0.5t35.5 -0.5q20 0 57 0.5t52 0.5q-2 -17 -8 -43l-62 -2q31 -83 82 -207h4q81 111 144 202q3 5 -3 5l-58 1q2 8 7 43h101q10 0 32.5 0.5
t32.5 0.5q-5 -33 -8 -43l-40 -2q-102 -135 -173 -222h114q-1 -16 -7 -37h-131l-8 -46q87 0 131 1q-5 -29 -7 -37h-130l-11 -65l80 -2q-2 -18 -8 -44q-16 0 -52.5 0.5t-54.5 0.5q-17 0 -52.5 -0.5t-53.5 -0.5q3 14 9 44l68 1q6 2 6 5z" />
    <glyph glyph-name="uniEFED" unicode="&#xefed;" horiz-adv-x="458" 
d="M327 828h1q20 0 31.5 -13.5t11.5 -31.5q0 -21 -14 -36t-37 -15q-19 0 -32 12.5t-13 31.5q0 22 14.5 37t37.5 15z" />
    <glyph glyph-name="uniEFEE" unicode="&#xefee;" horiz-adv-x="458" 
d="M407 832q27 -4 46 -9q-13 -40 -49.5 -69t-87.5 -29q-46 0 -74.5 29t-33.5 69q20 7 45 12q19 -56 70 -56q56 0 84 53z" />
    <glyph glyph-name="uniEFF1" unicode="&#xeff1;" horiz-adv-x="458" 
d="M414 -147l6 -35q-31 -17 -69 -17q-30 0 -54.5 18.5t-24.5 51.5q0 34 22 66t65 73h46q-69 -69 -69 -122q0 -19 11 -30.5t26 -11.5q22 0 41 7z" />
    <glyph glyph-name="uniEFF2" unicode="&#xeff2;" horiz-adv-x="458" 
d="M203 -225v36q39 1 61 15t22 33q0 17 -11 27q-10 11 -43 14q-1 4 -2.5 12.5t-2.5 12.5l93 79h59l-88 -75q59 -12 59 -63q0 -37 -41 -64t-106 -27z" />
    <glyph glyph-name="uniEFF3" unicode="&#xeff3;" horiz-adv-x="458" 
d="M361 700h-1q-39 0 -64 20.5t-25 55.5q0 40 30.5 65.5t75.5 25.5q40 0 64.5 -21t24.5 -54q0 -36 -28.5 -64t-76.5 -28zM364 736h1q20 0 36 13.5t16 39.5q0 18 -11.5 30.5t-31.5 12.5q-24 0 -39 -14.5t-15 -39.5q0 -18 13 -30t31 -12z" />
    <glyph glyph-name="uniEFF5" unicode="&#xeff5;" horiz-adv-x="458" 
d="M349 807h1q25 0 67 -27q29 -20 48 -20q15 0 26 12.5t14 31.5q20 2 38 0q-4 -36 -29 -66t-61 -30q-8 0 -17 3t-13 4.5t-16 9.5l-12 8q-38 22 -56 22q-13 0 -26 -12t-17 -30q-18 -2 -37 0q5 36 32 65t58 29z" />
    <glyph glyph-name="uniEFF7" unicode="&#xeff7;" horiz-adv-x="458" 
d="M332 780q-85 -51 -121 -73q-15 17 -24 31q40 29 132 97q12 1 37 1q15 -15 48.5 -49.5t47.5 -48.5q-13 -16 -29 -29q-26 21 -91 71z" />
    <glyph glyph-name="uniF628" unicode="&#xf628;" horiz-adv-x="986" 
d="M495 459l-3 5q-27 0 -65 -0.5t-86.5 -1.5t-74.5 -1q29 -25 29 -77q0 -69 -47 -112q-40 -37 -100 -37q-47 0 -78 29q-32 30 -32 85q0 63 49 108q43 38 100 38q242 0 357 9q5 -8 18 -38q-12 -13 -210 -236q-48 -54 -226 -260q-18 12 -34 28q163 187 231 263q83 93 172 198z
M154 272h1q32 0 55 23q30 31 30 86q0 42 -20 60q-17 17 -42 17q-30 0 -55 -25q-30 -31 -30 -86q0 -37 19 -56q17 -19 42 -19zM481 -11h-1q-46 0 -77 29q-32 30 -32 84q0 63 49 109q41 38 99 38q47 0 74 -27q35 -33 35 -85q0 -68 -48 -112q-39 -36 -99 -36zM487 26h1
q35 0 55 23q30 30 30 85q0 41 -20 61q-17 17 -43 17q-29 0 -54 -25q-30 -35 -30 -86q0 -35 19 -56q17 -19 42 -19zM791 -11h-1q-46 0 -77 29q-32 30 -32 84q0 63 49 109q41 38 99 38q47 0 74 -27q35 -33 35 -85q0 -68 -48 -112q-39 -36 -99 -36zM797 26h1q35 0 55 23
q30 30 30 85q0 41 -20 61q-17 17 -43 17q-29 0 -54 -25q-30 -35 -30 -86q0 -35 19 -56q17 -19 42 -19z" />
    <glyph glyph-name="uniF629" unicode="&#xf629;" 
d="M35 128v1q0 53 40.5 96.5t98.5 48.5q6 38 9 56q24 4 37 4q-7 -43 -10 -59h9q35 0 58 -16q-2 -9 -9.5 -21.5t-14.5 -16.5q-23 16 -50 17q-9 -53 -29 -161q40 4 73 24q5 -15 8 -30q-38 -24 -86 -29q-1 -10 -11 -57q-33 -3 -35 -3q4 20 10 60q-44 1 -71 22.5t-27 63.5z
M90 134v-1q0 -50 50 -55q5 26 13.5 80t13.5 80q-30 -5 -53.5 -35.5t-23.5 -68.5z" />
    <glyph glyph-name="uniF62A" unicode="&#xf62a;" 
d="M112 44l18 103q-79 25 -79 77q0 39 35 64q31 22 80 23l9 53q11 2 37 4l-11 -57q45 0 74 -16q-7 -29 -22 -40q-24 20 -58 22l-17 -96q79 -22 79 -77q0 -44 -37 -69q-32 -24 -80 -26l-10 -51q-6 0 -17 -1t-17 -1l10 54q-59 0 -93 21q4 28 23 42q35 -26 76 -29zM145 190
l15 88q-29 -2 -43 -14q-17 -14 -17 -34q0 -26 45 -40zM163 138l-17 -95q28 0 46 16q15 15 15 37q0 29 -44 42z" />
    <glyph glyph-name="uniF62B" unicode="&#xf62b;" horiz-adv-x="242" 
d="M101 128h-1h-81q5 34 7 44q54 0 79 1q61 0 90 1q-2 -19 -8 -46h-86z" />
    <glyph glyph-name="uniF62C" unicode="&#xf62c;" horiz-adv-x="189" 
d="M33 100v1q0 83 49.5 160t118.5 111q7 -8 13 -27q-49 -33 -87.5 -101.5t-38.5 -147.5q0 -84 54 -146q-9 -11 -23 -23q-86 62 -86 173z" />
    <glyph glyph-name="uniF62D" unicode="&#xf62d;" horiz-adv-x="189" 
d="M138 199v-1q0 -84 -49 -158.5t-119 -113.5q-3 4 -16 28q52 37 90.5 101.5t38.5 146.5q0 89 -55 144q6 8 22 26q88 -63 88 -173z" />
    <glyph glyph-name="uniF62E" unicode="&#xf62e;" 
d="M84 455v1q0 53 40.5 96.5t98.5 48.5q6 38 9 56q24 4 37 4q-7 -43 -10 -59h9q35 0 58 -16q-2 -9 -9.5 -21.5t-14.5 -16.5q-23 16 -50 17q-9 -53 -29 -161q40 4 73 24q5 -15 8 -30q-38 -24 -86 -29q-2 -9 -11 -57q-33 -3 -35 -3q4 20 10 60q-44 1 -71 22.5t-27 63.5z
M139 461v-1q0 -50 50 -55q5 26 13.5 80t13.5 80q-30 -5 -53.5 -35.5t-23.5 -68.5z" />
    <glyph glyph-name="uniF62F" unicode="&#xf62f;" 
d="M161 371l18 103q-79 25 -79 77q0 39 35 64q31 22 80 23l9 53q11 2 37 4l-11 -57q45 0 74 -16q-7 -29 -22 -40q-24 20 -58 22l-17 -96q79 -22 79 -77q0 -44 -37 -69q-32 -24 -80 -26l-10 -51q-5 -1 -17 -1t-17 -1l10 54q-59 0 -93 21q4 28 23 42q35 -26 76 -29zM194 517
l15 88q-29 -2 -43 -14q-17 -14 -17 -34q0 -26 45 -40zM212 465l-17 -95q28 0 46 16q15 15 15 37q0 29 -44 42z" />
    <glyph glyph-name="uniF630" unicode="&#xf630;" horiz-adv-x="242" 
d="M150 455h-1h-81q5 34 7 44q54 0 79 1q61 0 90 1q-2 -19 -8 -46h-86z" />
    <glyph glyph-name="uniF631" unicode="&#xf631;" horiz-adv-x="189" 
d="M82 427v1q0 83 49.5 160t118.5 111q7 -8 13 -27q-49 -33 -87.5 -101.5t-38.5 -147.5q0 -84 54 -146q-9 -11 -23 -23q-86 62 -86 173z" />
    <glyph glyph-name="uniF632" unicode="&#xf632;" horiz-adv-x="189" 
d="M187 526v-1q0 -84 -49 -158.5t-119 -113.5q-3 4 -16 28q52 37 90.5 101.5t38.5 146.5q0 89 -55 144q6 8 22 26q88 -63 88 -173z" />
    <glyph glyph-name="uniF633" unicode="&#xf633;" horiz-adv-x="686" 
d="M39 213v1q0 92 36.5 177.5t95.5 145.5q116 119 270 119q107 0 169 -64q57 -60 57 -152q0 -67 -25.5 -130t-67.5 -99q-62 -51 -154 -51q-4 0 -13 7.5t-13 14.5q1 22 11 65l-6 2q-86 -88 -142 -88q-15 0 -37.5 14t-30.5 31q-2 10 -2 19q0 51 26 118q22 54 64.5 101t93.5 47
q45 0 82 -34h5l19 36q21 -4 47 -12q-37 -125 -71 -273q-1 -2 0.5 -4t3.5 -2q54 0 93 42q67 70 67 183q0 84 -49 138q-50 55 -142 55q-129 0 -227 -109q-50 -56 -79.5 -134t-29.5 -159q0 -91 53 -142q51 -50 132 -50t149 45q9 -15 14 -33q-75 -48 -187 -48q-84 0 -144 54
q-68 63 -68 169zM255 240v-1q0 -27 25 -27q27 0 75 41.5t60 71.5q17 40 26 86q-27 36 -68 36q-50 0 -91 -91q-27 -59 -27 -116z" />
    <glyph glyph-name="uniF634" unicode="&#xf634;" horiz-adv-x="458" 
d="M265 -100v-1q0 -49 -35 -92t-84 -69q-16 20 -23 31q71 46 71 89q0 28 -39 39q1 30 19 48.5t40 18.5q21 0 36 -18.5t15 -45.5z" />
    <glyph glyph-name="uniF635" unicode="&#xf635;" horiz-adv-x="458" 
d="M261 -94v-1q0 -45 -32 -84.5t-77 -62.5q-13 15 -21 28q65 42 65 82q0 24 -35 35q1 27 17 44t36 17q19 0 33 -17t14 -41z" />
    <glyph glyph-name="uniF637" unicode="&#xf637;" horiz-adv-x="392" 
d="M325 646q31 -5 50 -39q3 -12 3 -23q0 -55 -58 -219q-2 -5 3 -5q12 0 53 12q4 -25 5 -34q-52 -18 -102 -18q-4 0 -11 7.5t-10 15.5q30 86 46 151q14 59 14 72q0 26 -21 26q-34 0 -83.5 -44t-58.5 -77q-12 -45 -36 -144h-57q38 157 60 258q32 142 48 208l-70 -3
q0 6 -0.5 17.5t-1.5 17.5q29 3 57 8t42.5 8t16.5 3q9 0 23 -16q-10 -38 -34 -141t-32 -134q40 46 81.5 69t72.5 24z" />
    <glyph glyph-name="uniF638" unicode="&#xf638;" horiz-adv-x="512" 
d="M326 655h1q58 0 96 -32q7 12 19 32.5t17 27.5q26 -15 42 -28q-3 -5 -43 -70q33 -53 33 -145q0 -121 -39.5 -231t-101.5 -164q-64 -55 -146 -55q-56 0 -93 30q-20 -32 -44 -70q-18 10 -38 23q10 16 27.5 44.5t21.5 35.5q-37 53 -37 153q0 111 36.5 220t97.5 167
q66 62 151 62zM312 609h-1q-47 0 -86 -41q-44 -44 -73 -143t-31 -204q-2 -47 10 -82q43 70 127 208q22 38 68 114.5t62 104.5q-1 4 -4 8q-25 35 -72 35zM220 36h1q47 0 83 38q46 46 76 145t32 202q0 42 -8 76q-21 -36 -60.5 -101.5t-43.5 -71.5q-55 -90 -154 -248q2 -4 5 -8
q24 -32 69 -32z" />
    <glyph glyph-name="uniF639" unicode="&#xf639;" horiz-adv-x="535" 
d="M505 440v-1q0 -120 -39.5 -230.5t-101.5 -164.5q-63 -54 -145 -54q-71 0 -114 48q-49 54 -49 168q0 111 36.5 220t97.5 167q66 62 151 62q79 0 123 -56q41 -54 41 -159zM326 609h-1q-45 0 -86 -41q-45 -46 -75.5 -156t-30.5 -216q0 -73 22 -115q23 -45 79 -45q47 0 85 38
q47 48 78 158t31 215q0 81 -20 115q-27 47 -82 47z" />
    <glyph glyph-name="uniF63A" unicode="&#xf63a;" horiz-adv-x="496" 
d="M171 565l-26 -95q-8 1 -26.5 2.5t-26.5 2.5q15 87 26 143q80 37 165 37q95 0 144 -51q41 -43 41 -114q0 -41 -18 -85t-39 -75t-59 -70t-54.5 -53.5t-49.5 -42.5q-66 -58 -132 -104v-5q32 0 148 2.5t161 2.5l3 -1q-5 -34 -14 -60q-9 0 -110 0.5t-144 0.5h-139
q-10 33 -12 41q113 85 193 157q42 37 67.5 62.5t57.5 64t47.5 79t15.5 82.5q0 45 -23 78q-29 40 -92 40q-60 0 -97 -26q-6 -6 -7 -13z" />
    <glyph glyph-name="uniF63B" unicode="&#xf63b;" horiz-adv-x="490" 
d="M307 346l-1 -6q63 -12 97 -52.5t34 -94.5q0 -97 -90 -157q-65 -46 -184 -46q-93 0 -136 14q-1 26 -2 76t-1 66q22 5 53 7l13 -90q2 -8 7 -11q29 -13 82 -13q77 0 123 34q54 40 54 114q0 54 -40 88t-107 34h-59q2 27 6 50q103 -2 167 40t64 108q0 40 -22 66q-26 33 -93 33
q-62 0 -91 -23q-5 -5 -7 -10l-24 -91q-3 0 -23.5 2t-30.5 4q16 90 25 134q72 33 165 33q96 0 140 -44q39 -39 39 -97q0 -61 -45 -105.5t-113 -62.5z" />
    <glyph glyph-name="uniF63C" unicode="&#xf63c;" horiz-adv-x="522" 
d="M188 43l87 3q6 0 6 4q4 22 11.5 63t10.5 60q-39 -1 -265 -1q-13 39 -18 59q20 22 77.5 88t94.5 107q142 162 198 223q44 0 65 -2q-3 -18 -31 -179t-43 -244q83 0 107 1q-7 -39 -11 -51h-105q-7 -42 -23 -128l84 -3q-3 -22 -9 -43q-17 0 -59 0.5t-63 0.5q-22 0 -64 -0.5
t-59 -0.5q3 15 9 43zM372 555l-6 1q-27 -32 -142 -167q-48 -55 -134 -157q-5 -7 2 -7q100 -2 219 -2z" />
    <glyph glyph-name="uniF63D" unicode="&#xf63d;" horiz-adv-x="489" 
d="M82 150l13 -89q0 -7 6 -11q26 -11 71 -11q83 0 132 42q61 51 61 138q0 63 -42 100t-121 37q-67 0 -103 -9l-6 6q20 78 77 291h160q113 0 165 1q-5 -34 -14 -62q-39 0 -128 0.5t-138 0.5q-24 -82 -48 -173q54 4 69 4q101 0 152.5 -54t51.5 -127q0 -62 -28.5 -113
t-68.5 -78q-73 -53 -190 -53q-73 0 -118 12q-2 45 -6 141q13 2 53 7z" />
    <glyph glyph-name="uniF63E" unicode="&#xf63e;" horiz-adv-x="509" 
d="M146 326h5q74 70 160 70q69 0 111 -47q40 -46 40 -116q0 -61 -26 -114t-65 -83q-58 -46 -138 -46q-79 0 -128 54q-49 59 -49 154q0 114 37 212.5t90 154.5q84 90 207 90q54 0 89 -14q0 -87 -1 -131q-31 -6 -52 -7l-10 81q0 8 -4 11q-13 10 -51 10q-76 0 -128 -66
q-60 -77 -87 -213zM286 341h-1q-35 0 -76 -21.5t-70 -62.5q-18 -112 17 -176q10 -18 33 -32.5t54 -14.5q50 0 89 37q54 51 54 149q0 50 -23 85q-24 36 -77 36z" />
    <glyph glyph-name="uniF63F" unicode="&#xf63f;" horiz-adv-x="500" 
d="M436 578l-2 5q-231 2 -256 -1q-21 -1 -30 -22l-27 -79l-24 4t-26 5q26 104 40 155q4 0 34.5 -0.5t50.5 -0.5h303q6 -18 13 -58q-140 -202 -265 -466q-23 -48 -35 -119q-33 -3 -80 -3q10 69 41 128q106 200 263 452z" />
    <glyph glyph-name="uniF640" unicode="&#xf640;" horiz-adv-x="517" 
d="M354 345l-1 -5q55 -24 85.5 -64t30.5 -87q0 -100 -94 -160q-58 -39 -153 -39q-86 0 -141 44q-51 40 -51 109q0 62 45 115t120 85l1 4q-82 49 -82 131q0 43 23.5 79.5t51.5 57.5q57 40 137 40q38 0 72 -12.5t52 -30.5q41 -39 41 -91q0 -117 -137 -176zM185 487v-1
q0 -42 25.5 -68t92.5 -53q118 50 118 144q0 38 -20 65q-11 16 -34.5 26t-47.5 10q-56 0 -89 -27q-45 -36 -45 -96zM395 175v1q0 50 -36 84t-115 61q-58 -23 -98.5 -69t-40.5 -100q0 -50 28 -79q36 -38 98 -38q63 0 105 30q59 41 59 110z" />
    <glyph glyph-name="uniF641" unicode="&#xf641;" horiz-adv-x="512" 
d="M393 316l-4 1q-79 -63 -157 -63q-35 0 -66.5 14.5t-48.5 34.5q-40 46 -40 121q0 53 27.5 105t70.5 84q59 42 131 42q81 0 129 -57q46 -54 46 -155q0 -121 -38.5 -222t-85.5 -149q-83 -82 -206 -82q-49 0 -92 8q-2 23 -4.5 67t-3.5 66q15 3 52 7l15 -82q1 -7 7 -11
q13 -8 50 -8q39 0 75 18.5t59 46.5q56 67 84 214zM254 305h1q76 0 143 73q10 63 4.5 110t-21.5 74q-26 49 -83 49q-54 0 -87 -33q-58 -58 -58 -148q0 -56 21 -86q12 -18 34.5 -28.5t45.5 -10.5z" />
    <glyph glyph-name="uniF642" unicode="&#xf642;" horiz-adv-x="676" 
d="M495 459l-3 5q-9 0 -226 -3q29 -25 29 -77q0 -69 -47 -112q-40 -37 -100 -37q-47 0 -78 29q-32 30 -32 85q0 63 49 108q43 38 100 38q242 0 357 9q5 -8 18 -38q-83 -95 -210 -235q-20 -23 -226 -261q-18 12 -34 28q194 222 231 264q103 115 172 197zM154 272h1
q32 0 55 23q30 31 30 86q0 42 -20 60q-17 17 -42 17q-30 0 -55 -25q-30 -31 -30 -86q0 -37 19 -56q17 -19 42 -19zM481 -11h-1q-46 0 -77 29q-32 30 -32 84q0 63 49 109q41 38 99 38q47 0 74 -27q35 -33 35 -85q0 -68 -48 -112q-39 -36 -99 -36zM487 26h1q35 0 55 23
q30 30 30 85q0 41 -20 61q-17 17 -43 17q-29 0 -54 -25q-30 -35 -30 -86q0 -35 19 -56q17 -19 42 -19z" />
    <glyph glyph-name="uniF643" unicode="&#xf643;" horiz-adv-x="527" 
d="M237 -10h-1q-89 0 -142 53q-56 58 -56 149q0 51 21.5 103.5t67.5 90.5q64 53 161 53q83 0 134 -49q57 -55 57 -148q0 -112 -76 -187q-67 -65 -166 -65zM244 43h1q65 0 111 47q53 53 53 147q0 73 -38 113q-36 36 -94 36q-65 0 -108 -40q-61 -55 -61 -153q0 -71 37 -110
q37 -40 99 -40z" />
    <glyph glyph-name="uniF644" unicode="&#xf644;" horiz-adv-x="527" 
d="M87 45l128 3q3 0 5 4q20 108 53 302q-24 -6 -69 -18t-69 -18q-3 13 -7 41q39 13 96 34.5t94.5 36.5t39.5 15q4 0 2 -5q-21 -125 -71 -392l126 -3q-4 -27 -9 -45q-25 0 -80 0.5t-80 0.5q-28 0 -84 -0.5t-83 -0.5q1 7 4 22.5t4 22.5z" />
    <glyph glyph-name="uniF645" unicode="&#xf645;" horiz-adv-x="527" 
d="M148 59l1 -8q28 1 136.5 2t138.5 1q-3 -27 -11 -54h-247h-111q-8 31 -10 51q106 51 156 81q80 47 116 87t36 82q0 40 -25 62q-22 21 -62 21q-75 0 -141 -74q-15 13 -32 35q82 94 192 94q69 0 107 -38q36 -35 36 -90q0 -113 -180 -207q-56 -29 -100 -45z" />
    <glyph glyph-name="uniF646" unicode="&#xf646;" horiz-adv-x="527" 
d="M279 159v-7q55 -6 85.5 -42.5t30.5 -85.5q0 -87 -69.5 -142.5t-186.5 -55.5q-89 0 -138 27q10 25 20 45q44 -22 124 -22q73 0 123.5 37t50.5 102q0 51 -37 80.5t-103 29.5q-6 0 -21 -0.5t-21 -0.5q0 8 -0.5 24t-0.5 23q94 1 149 37t55 95q0 34 -22.5 58t-68.5 24
q-76 0 -134 -68l-30 33q74 89 187 89q67 0 104 -35.5t37 -87.5q0 -113 -134 -157z" />
    <glyph glyph-name="uniF647" unicode="&#xf647;" horiz-adv-x="527" 
d="M256 -180q3 12 18.5 97t15.5 87q-18 0 -134 -0.5t-127 -0.5q-2 6 -9 25.5t-10 30.5q167 183 171 188q59 66 179 192q28 0 78 -2q-14 -76 -40 -220t-30 -163h103q-2 -18 -10 -49h-102q-6 -30 -16.5 -90.5t-16.5 -91.5q-5 -3 -70 -3zM357 363l-6 1q-28 -32 -145 -163
q-10 -11 -56 -63t-65 -74q-6 -8 2 -8q26 0 115 -0.5t96 -0.5z" />
    <glyph glyph-name="uniF648" unicode="&#xf648;" horiz-adv-x="527" 
d="M110 162l-6 7q8 29 31 120.5t36 139.5h136h148q-3 -21 -13 -56q-138 -2 -227 -2q-9 -30 -25 -83t-20 -68q20 2 51 2q94 0 146 -50q46 -46 46 -120q0 -93 -65 -155q-73 -71 -204 -71q-74 0 -115 23q10 25 20 45q42 -18 99 -18q92 0 142 48q49 47 49 119q0 49 -28 78
q-40 45 -130 45q-11 0 -71 -4z" />
    <glyph glyph-name="uniF649" unicode="&#xf649;" horiz-adv-x="527" 
d="M153 315l5 -2q65 72 153 72q66 0 103 -42q40 -47 40 -117q0 -47 -18 -96t-54 -83q-57 -57 -138 -57q-80 0 -127 44q-55 51 -55 150q0 81 35 167t106 160q87 89 207 120q8 -17 15 -44q-96 -29 -164 -98q-69 -69 -108 -174zM245 36h1q50 0 84 36q49 52 49 145q0 58 -25 87
q-24 27 -67 27q-84 0 -143 -87q-7 -29 -7 -65q0 -74 36 -113q27 -30 72 -30z" />
    <glyph glyph-name="uniF64A" unicode="&#xf64a;" horiz-adv-x="527" 
d="M371 367l-1 5q-172 0 -295 -3q8 48 11 61q4 0 97 -0.5t144 -0.5h113q8 -19 16 -52q-36 -58 -86 -143.5t-86.5 -149.5t-85 -150.5t-61.5 -108.5q-48 18 -55 22q59 102 289 520z" />
    <glyph glyph-name="uniF64B" unicode="&#xf64b;" horiz-adv-x="527" 
d="M341 327l-1 -6q115 -51 115 -149q0 -73 -58 -126q-59 -56 -164 -56q-92 0 -142 44q-42 39 -42 99q0 57 41.5 108t117.5 76l1 5q-88 53 -88 128q0 59 47 103q58 56 149 56q77 0 118 -39q34 -36 34 -87q0 -52 -34 -93t-94 -63zM190 457v-1q0 -34 22.5 -60.5t75.5 -52.5
q113 46 113 133q0 41 -22 62q-26 26 -72 26q-50 0 -81 -28q-36 -33 -36 -79zM384 163v1q0 48 -31 76t-96 55q-60 -20 -98.5 -62t-38.5 -91q0 -48 28 -75q34 -32 92 -32q63 0 106 38q38 35 38 90z" />
    <glyph glyph-name="uniF64C" unicode="&#xf64c;" horiz-adv-x="527" 
d="M366 124l-5 3q-69 -72 -149 -72q-65 0 -106 39q-47 44 -47 124q0 87 63 154q62 67 155 67q84 0 128 -52q46 -56 46 -140q0 -101 -42 -194t-116 -155q-92 -74 -196 -91q-6 15 -15 45q104 25 166 83q77 67 118 189zM268 393h-1q-53 0 -91 -43q-43 -51 -43 -124
q0 -60 32 -94q25 -25 65 -25q80 0 140 82q6 22 6 71q0 64 -33 102q-28 31 -75 31z" />
    <glyph glyph-name="uniF64E" unicode="&#xf64e;" horiz-adv-x="527" 
d="M16 161l5 37h50q0 20 6 54h-46l5 38h50q32 99 121 163q77 53 190 53q74 0 108 -17q-10 -92 -15 -139q-8 0 -24 -1t-24 -1l1 86q0 8 -5 11q-18 12 -65 12q-76 0 -132 -46q-58 -46 -81 -121h250l-5 -38h-254q-4 -20 -4 -54h248l-5 -37h-239q6 -42 30 -72q39 -49 121 -49
q55 0 145 28q3 -21 3 -46q-96 -32 -162 -32q-98 0 -156 50q-50 45 -59 121h-57z" />
    <glyph glyph-name="uniF64F" unicode="&#xf64f;" horiz-adv-x="527" 
d="M432 506h1q32 0 56 -11q-1 -11 -11 -30.5t-21 -26.5q-34 12 -64 12q-39 0 -61 -24q-20 -20 -31.5 -51t-23.5 -104q99 0 152 1q-3 -23 -9 -44q-104 0 -150 -1q-24 -168 -44 -233q-21 -70 -73.5 -112t-116.5 -42q-30 0 -51 9q2 13 11 30.5t20 25.5q24 -10 50 -10
q33 0 60.5 27.5t38.5 79.5q9 38 40 225h-88q3 23 9 43q14 0 41 0.5t39 0.5q5 0 6 6q14 77 28.5 111t48.5 63q63 55 143 55z" />
    </font>
</defs>
</svg>
